<?xml version="1.0" encoding="utf-8" standalone="no"?>
<!DOCTYPE svg PUBLIC "-//W3C//DTD SVG 1.1//EN"
  "http://www.w3.org/Graphics/SVG/1.1/DTD/svg11.dtd">
<svg xmlns:xlink="http://www.w3.org/1999/xlink" width="720.58125pt" height="295.31625pt" viewBox="0 0 720.58125 295.31625" xmlns="http://www.w3.org/2000/svg" version="1.1">
 <metadata>
  <rdf:RDF xmlns:dc="http://purl.org/dc/elements/1.1/" xmlns:cc="http://creativecommons.org/ns#" xmlns:rdf="http://www.w3.org/1999/02/22-rdf-syntax-ns#">
   <cc:Work>
    <dc:type rdf:resource="http://purl.org/dc/dcmitype/StillImage"/>
    <dc:date>2024-07-09T00:36:01.369441</dc:date>
    <dc:format>image/svg+xml</dc:format>
    <dc:creator>
     <cc:Agent>
      <dc:title>Matplotlib v3.9.0, https://matplotlib.org/</dc:title>
     </cc:Agent>
    </dc:creator>
   </cc:Work>
  </rdf:RDF>
 </metadata>
 <defs>
  <style type="text/css">*{stroke-linejoin: round; stroke-linecap: butt}</style>
 </defs>
 <g id="figure_1">
  <g id="patch_1">
   <path d="M 0 295.31625 
L 720.58125 295.31625 
L 720.58125 0 
L 0 0 
L 0 295.31625 
z
" style="fill: none"/>
  </g>
  <g id="axes_1">
   <g id="patch_2">
    <path d="M 43.78125 257.76 
L 259.78125 257.76 
L 259.78125 36 
L 43.78125 36 
L 43.78125 257.76 
z
" style="fill: none"/>
   </g>
   <g id="PolyCollection_1">
    <defs>
     <path id="me5d7cc7f10" d="M 53.599432 -47.63625 
L 53.599432 -47.63625 
L 55.582903 -221.151051 
L 57.566374 -234.539663 
L 59.549845 -240.373177 
L 61.533316 -243.475252 
L 63.516787 -245.280096 
L 65.500258 -246.459154 
L 67.483729 -247.153428 
L 69.4672 -247.681184 
L 71.450671 -248.050478 
L 73.434143 -248.302942 
L 75.417614 -248.489603 
L 77.401085 -248.65075 
L 79.384556 -248.755495 
L 81.368027 -248.836069 
L 83.351498 -248.9341 
L 85.334969 -248.991844 
L 87.31844 -249.032131 
L 89.301911 -249.063017 
L 91.285382 -249.096589 
L 93.268853 -249.127476 
L 95.252324 -249.152991 
L 97.235795 -249.16642 
L 99.219267 -249.174477 
L 101.202738 -249.181192 
L 103.186209 -249.189249 
L 105.16968 -249.197306 
L 107.153151 -249.204021 
L 109.136622 -249.209392 
L 111.120093 -249.212078 
L 113.103564 -249.21745 
L 115.087035 -249.21745 
L 117.070506 -249.220135 
L 119.053977 -249.222821 
L 121.037448 -249.224164 
L 123.020919 -249.22685 
L 125.00439 -249.228193 
L 126.987862 -249.228193 
L 128.971333 -249.228193 
L 130.954804 -249.229536 
L 132.938275 -249.229536 
L 134.921746 -249.229536 
L 136.905217 -249.230878 
L 138.888688 -249.232221 
L 140.872159 -249.233564 
L 142.85563 -249.233564 
L 144.839101 -249.233564 
L 146.822572 -249.233564 
L 148.806043 -249.233564 
L 150.789514 -249.233564 
L 152.772986 -249.233564 
L 154.756457 -249.233564 
L 156.739928 -249.233564 
L 158.723399 -249.233564 
L 160.70687 -249.233564 
L 162.690341 -249.233564 
L 164.673812 -249.23625 
L 166.657283 -249.23625 
L 168.640754 -249.23625 
L 170.624225 -249.23625 
L 172.607696 -249.23625 
L 174.591167 -249.23625 
L 176.574638 -249.23625 
L 178.55811 -249.23625 
L 180.541581 -249.23625 
L 182.525052 -249.23625 
L 184.508523 -249.23625 
L 186.491994 -249.23625 
L 188.475465 -249.23625 
L 190.458936 -249.23625 
L 192.442407 -249.23625 
L 194.425878 -249.23625 
L 196.409349 -249.23625 
L 198.39282 -249.23625 
L 200.376291 -249.23625 
L 202.359762 -249.23625 
L 204.343233 -249.23625 
L 206.326705 -249.23625 
L 208.310176 -249.23625 
L 210.293647 -249.23625 
L 212.277118 -249.23625 
L 214.260589 -249.23625 
L 216.24406 -249.23625 
L 218.227531 -249.23625 
L 220.211002 -249.23625 
L 222.194473 -249.23625 
L 224.177944 -249.23625 
L 226.161415 -249.23625 
L 228.144886 -249.23625 
L 230.128357 -249.23625 
L 232.111829 -249.23625 
L 234.0953 -249.23625 
L 236.078771 -249.23625 
L 238.062242 -249.23625 
L 240.045713 -249.23625 
L 242.029184 -249.23625 
L 244.012655 -249.23625 
L 245.996126 -249.23625 
L 247.979597 -249.23625 
L 249.963068 -249.23625 
L 249.963068 -249.23625 
L 249.963068 -249.23625 
L 247.979597 -249.23625 
L 245.996126 -249.23625 
L 244.012655 -249.23625 
L 242.029184 -249.23625 
L 240.045713 -249.23625 
L 238.062242 -249.23625 
L 236.078771 -249.23625 
L 234.0953 -249.23625 
L 232.111829 -249.23625 
L 230.128357 -249.23625 
L 228.144886 -249.23625 
L 226.161415 -249.23625 
L 224.177944 -249.23625 
L 222.194473 -249.23625 
L 220.211002 -249.23625 
L 218.227531 -249.23625 
L 216.24406 -249.23625 
L 214.260589 -249.23625 
L 212.277118 -249.23625 
L 210.293647 -249.23625 
L 208.310176 -249.23625 
L 206.326705 -249.23625 
L 204.343233 -249.23625 
L 202.359762 -249.23625 
L 200.376291 -249.23625 
L 198.39282 -249.23625 
L 196.409349 -249.23625 
L 194.425878 -249.23625 
L 192.442407 -249.23625 
L 190.458936 -249.23625 
L 188.475465 -249.23625 
L 186.491994 -249.23625 
L 184.508523 -249.23625 
L 182.525052 -249.23625 
L 180.541581 -249.23625 
L 178.55811 -249.23625 
L 176.574638 -249.23625 
L 174.591167 -249.23625 
L 172.607696 -249.23625 
L 170.624225 -249.23625 
L 168.640754 -249.23625 
L 166.657283 -249.23625 
L 164.673812 -249.23625 
L 162.690341 -249.233564 
L 160.70687 -249.233564 
L 158.723399 -249.233564 
L 156.739928 -249.233564 
L 154.756457 -249.233564 
L 152.772986 -249.233564 
L 150.789514 -249.233564 
L 148.806043 -249.233564 
L 146.822572 -249.233564 
L 144.839101 -249.233564 
L 142.85563 -249.233564 
L 140.872159 -249.233564 
L 138.888688 -249.232221 
L 136.905217 -249.230878 
L 134.921746 -249.229536 
L 132.938275 -249.229536 
L 130.954804 -249.229536 
L 128.971333 -249.228193 
L 126.987862 -249.228193 
L 125.00439 -249.228193 
L 123.020919 -249.22685 
L 121.037448 -249.224164 
L 119.053977 -249.222821 
L 117.070506 -249.220135 
L 115.087035 -249.21745 
L 113.103564 -249.21745 
L 111.120093 -249.212078 
L 109.136622 -249.209392 
L 107.153151 -249.204021 
L 105.16968 -249.197306 
L 103.186209 -249.189249 
L 101.202738 -249.181192 
L 99.219267 -249.174477 
L 97.235795 -249.16642 
L 95.252324 -249.152991 
L 93.268853 -249.127476 
L 91.285382 -249.096589 
L 89.301911 -249.063017 
L 87.31844 -249.032131 
L 85.334969 -248.991844 
L 83.351498 -248.9341 
L 81.368027 -248.836069 
L 79.384556 -248.755495 
L 77.401085 -248.65075 
L 75.417614 -248.489603 
L 73.434143 -248.302942 
L 71.450671 -248.050478 
L 69.4672 -247.681184 
L 67.483729 -247.153428 
L 65.500258 -246.459154 
L 63.516787 -245.280096 
L 61.533316 -243.475252 
L 59.549845 -240.373177 
L 57.566374 -234.539663 
L 55.582903 -221.151051 
L 53.599432 -47.63625 
z
" style="stroke: #808080; stroke-opacity: 0.5"/>
    </defs>
    <g clip-path="url(#pc4998aaf71)">
     <use xlink:href="#me5d7cc7f10" x="0" y="295.31625" style="fill: #808080; fill-opacity: 0.5; stroke: #808080; stroke-opacity: 0.5"/>
    </g>
   </g>
   <g id="matplotlib.axis_1">
    <g id="xtick_1">
     <g id="line2d_1">
      <path d="M 53.599432 257.76 
L 53.599432 36 
" clip-path="url(#pc4998aaf71)" style="fill: none; stroke-dasharray: 0.8,1.32; stroke-dashoffset: 0; stroke: #b0b0b0; stroke-opacity: 0.3; stroke-width: 0.8"/>
     </g>
     <g id="line2d_2">
      <defs>
       <path id="m3066510f45" d="M 0 0 
L 0 3.5 
" style="stroke: #000000; stroke-width: 0.8"/>
      </defs>
      <g>
       <use xlink:href="#m3066510f45" x="53.599432" y="257.76" style="stroke: #000000; stroke-width: 0.8"/>
      </g>
     </g>
     <g id="text_1">
      <!-- 0.0 -->
      <g transform="translate(45.647869 272.358437) scale(0.1 -0.1)">
       <defs>
        <path id="DejaVuSans-30" d="M 2034 4250 
Q 1547 4250 1301 3770 
Q 1056 3291 1056 2328 
Q 1056 1369 1301 889 
Q 1547 409 2034 409 
Q 2525 409 2770 889 
Q 3016 1369 3016 2328 
Q 3016 3291 2770 3770 
Q 2525 4250 2034 4250 
z
M 2034 4750 
Q 2819 4750 3233 4129 
Q 3647 3509 3647 2328 
Q 3647 1150 3233 529 
Q 2819 -91 2034 -91 
Q 1250 -91 836 529 
Q 422 1150 422 2328 
Q 422 3509 836 4129 
Q 1250 4750 2034 4750 
z
" transform="scale(0.015625)"/>
        <path id="DejaVuSans-2e" d="M 684 794 
L 1344 794 
L 1344 0 
L 684 0 
L 684 794 
z
" transform="scale(0.015625)"/>
       </defs>
       <use xlink:href="#DejaVuSans-30"/>
       <use xlink:href="#DejaVuSans-2e" x="63.623047"/>
       <use xlink:href="#DejaVuSans-30" x="95.410156"/>
      </g>
     </g>
    </g>
    <g id="xtick_2">
     <g id="line2d_3">
      <path d="M 92.872159 257.76 
L 92.872159 36 
" clip-path="url(#pc4998aaf71)" style="fill: none; stroke-dasharray: 0.8,1.32; stroke-dashoffset: 0; stroke: #b0b0b0; stroke-opacity: 0.3; stroke-width: 0.8"/>
     </g>
     <g id="line2d_4">
      <g>
       <use xlink:href="#m3066510f45" x="92.872159" y="257.76" style="stroke: #000000; stroke-width: 0.8"/>
      </g>
     </g>
     <g id="text_2">
      <!-- 0.2 -->
      <g transform="translate(84.920597 272.358437) scale(0.1 -0.1)">
       <defs>
        <path id="DejaVuSans-32" d="M 1228 531 
L 3431 531 
L 3431 0 
L 469 0 
L 469 531 
Q 828 903 1448 1529 
Q 2069 2156 2228 2338 
Q 2531 2678 2651 2914 
Q 2772 3150 2772 3378 
Q 2772 3750 2511 3984 
Q 2250 4219 1831 4219 
Q 1534 4219 1204 4116 
Q 875 4013 500 3803 
L 500 4441 
Q 881 4594 1212 4672 
Q 1544 4750 1819 4750 
Q 2544 4750 2975 4387 
Q 3406 4025 3406 3419 
Q 3406 3131 3298 2873 
Q 3191 2616 2906 2266 
Q 2828 2175 2409 1742 
Q 1991 1309 1228 531 
z
" transform="scale(0.015625)"/>
       </defs>
       <use xlink:href="#DejaVuSans-30"/>
       <use xlink:href="#DejaVuSans-2e" x="63.623047"/>
       <use xlink:href="#DejaVuSans-32" x="95.410156"/>
      </g>
     </g>
    </g>
    <g id="xtick_3">
     <g id="line2d_5">
      <path d="M 132.144886 257.76 
L 132.144886 36 
" clip-path="url(#pc4998aaf71)" style="fill: none; stroke-dasharray: 0.8,1.32; stroke-dashoffset: 0; stroke: #b0b0b0; stroke-opacity: 0.3; stroke-width: 0.8"/>
     </g>
     <g id="line2d_6">
      <g>
       <use xlink:href="#m3066510f45" x="132.144886" y="257.76" style="stroke: #000000; stroke-width: 0.8"/>
      </g>
     </g>
     <g id="text_3">
      <!-- 0.4 -->
      <g transform="translate(124.193324 272.358437) scale(0.1 -0.1)">
       <defs>
        <path id="DejaVuSans-34" d="M 2419 4116 
L 825 1625 
L 2419 1625 
L 2419 4116 
z
M 2253 4666 
L 3047 4666 
L 3047 1625 
L 3713 1625 
L 3713 1100 
L 3047 1100 
L 3047 0 
L 2419 0 
L 2419 1100 
L 313 1100 
L 313 1709 
L 2253 4666 
z
" transform="scale(0.015625)"/>
       </defs>
       <use xlink:href="#DejaVuSans-30"/>
       <use xlink:href="#DejaVuSans-2e" x="63.623047"/>
       <use xlink:href="#DejaVuSans-34" x="95.410156"/>
      </g>
     </g>
    </g>
    <g id="xtick_4">
     <g id="line2d_7">
      <path d="M 171.417614 257.76 
L 171.417614 36 
" clip-path="url(#pc4998aaf71)" style="fill: none; stroke-dasharray: 0.8,1.32; stroke-dashoffset: 0; stroke: #b0b0b0; stroke-opacity: 0.3; stroke-width: 0.8"/>
     </g>
     <g id="line2d_8">
      <g>
       <use xlink:href="#m3066510f45" x="171.417614" y="257.76" style="stroke: #000000; stroke-width: 0.8"/>
      </g>
     </g>
     <g id="text_4">
      <!-- 0.6 -->
      <g transform="translate(163.466051 272.358437) scale(0.1 -0.1)">
       <defs>
        <path id="DejaVuSans-36" d="M 2113 2584 
Q 1688 2584 1439 2293 
Q 1191 2003 1191 1497 
Q 1191 994 1439 701 
Q 1688 409 2113 409 
Q 2538 409 2786 701 
Q 3034 994 3034 1497 
Q 3034 2003 2786 2293 
Q 2538 2584 2113 2584 
z
M 3366 4563 
L 3366 3988 
Q 3128 4100 2886 4159 
Q 2644 4219 2406 4219 
Q 1781 4219 1451 3797 
Q 1122 3375 1075 2522 
Q 1259 2794 1537 2939 
Q 1816 3084 2150 3084 
Q 2853 3084 3261 2657 
Q 3669 2231 3669 1497 
Q 3669 778 3244 343 
Q 2819 -91 2113 -91 
Q 1303 -91 875 529 
Q 447 1150 447 2328 
Q 447 3434 972 4092 
Q 1497 4750 2381 4750 
Q 2619 4750 2861 4703 
Q 3103 4656 3366 4563 
z
" transform="scale(0.015625)"/>
       </defs>
       <use xlink:href="#DejaVuSans-30"/>
       <use xlink:href="#DejaVuSans-2e" x="63.623047"/>
       <use xlink:href="#DejaVuSans-36" x="95.410156"/>
      </g>
     </g>
    </g>
    <g id="xtick_5">
     <g id="line2d_9">
      <path d="M 210.690341 257.76 
L 210.690341 36 
" clip-path="url(#pc4998aaf71)" style="fill: none; stroke-dasharray: 0.8,1.32; stroke-dashoffset: 0; stroke: #b0b0b0; stroke-opacity: 0.3; stroke-width: 0.8"/>
     </g>
     <g id="line2d_10">
      <g>
       <use xlink:href="#m3066510f45" x="210.690341" y="257.76" style="stroke: #000000; stroke-width: 0.8"/>
      </g>
     </g>
     <g id="text_5">
      <!-- 0.8 -->
      <g transform="translate(202.738778 272.358437) scale(0.1 -0.1)">
       <defs>
        <path id="DejaVuSans-38" d="M 2034 2216 
Q 1584 2216 1326 1975 
Q 1069 1734 1069 1313 
Q 1069 891 1326 650 
Q 1584 409 2034 409 
Q 2484 409 2743 651 
Q 3003 894 3003 1313 
Q 3003 1734 2745 1975 
Q 2488 2216 2034 2216 
z
M 1403 2484 
Q 997 2584 770 2862 
Q 544 3141 544 3541 
Q 544 4100 942 4425 
Q 1341 4750 2034 4750 
Q 2731 4750 3128 4425 
Q 3525 4100 3525 3541 
Q 3525 3141 3298 2862 
Q 3072 2584 2669 2484 
Q 3125 2378 3379 2068 
Q 3634 1759 3634 1313 
Q 3634 634 3220 271 
Q 2806 -91 2034 -91 
Q 1263 -91 848 271 
Q 434 634 434 1313 
Q 434 1759 690 2068 
Q 947 2378 1403 2484 
z
M 1172 3481 
Q 1172 3119 1398 2916 
Q 1625 2713 2034 2713 
Q 2441 2713 2670 2916 
Q 2900 3119 2900 3481 
Q 2900 3844 2670 4047 
Q 2441 4250 2034 4250 
Q 1625 4250 1398 4047 
Q 1172 3844 1172 3481 
z
" transform="scale(0.015625)"/>
       </defs>
       <use xlink:href="#DejaVuSans-30"/>
       <use xlink:href="#DejaVuSans-2e" x="63.623047"/>
       <use xlink:href="#DejaVuSans-38" x="95.410156"/>
      </g>
     </g>
    </g>
    <g id="xtick_6">
     <g id="line2d_11">
      <path d="M 249.963068 257.76 
L 249.963068 36 
" clip-path="url(#pc4998aaf71)" style="fill: none; stroke-dasharray: 0.8,1.32; stroke-dashoffset: 0; stroke: #b0b0b0; stroke-opacity: 0.3; stroke-width: 0.8"/>
     </g>
     <g id="line2d_12">
      <g>
       <use xlink:href="#m3066510f45" x="249.963068" y="257.76" style="stroke: #000000; stroke-width: 0.8"/>
      </g>
     </g>
     <g id="text_6">
      <!-- 1.0 -->
      <g transform="translate(242.011506 272.358437) scale(0.1 -0.1)">
       <defs>
        <path id="DejaVuSans-31" d="M 794 531 
L 1825 531 
L 1825 4091 
L 703 3866 
L 703 4441 
L 1819 4666 
L 2450 4666 
L 2450 531 
L 3481 531 
L 3481 0 
L 794 0 
L 794 531 
z
" transform="scale(0.015625)"/>
       </defs>
       <use xlink:href="#DejaVuSans-31"/>
       <use xlink:href="#DejaVuSans-2e" x="63.623047"/>
       <use xlink:href="#DejaVuSans-30" x="95.410156"/>
      </g>
     </g>
    </g>
    <g id="text_7">
     <!-- False Positive rate -->
     <g transform="translate(106.621094 286.036562) scale(0.1 -0.1)">
      <defs>
       <path id="DejaVuSans-46" d="M 628 4666 
L 3309 4666 
L 3309 4134 
L 1259 4134 
L 1259 2759 
L 3109 2759 
L 3109 2228 
L 1259 2228 
L 1259 0 
L 628 0 
L 628 4666 
z
" transform="scale(0.015625)"/>
       <path id="DejaVuSans-61" d="M 2194 1759 
Q 1497 1759 1228 1600 
Q 959 1441 959 1056 
Q 959 750 1161 570 
Q 1363 391 1709 391 
Q 2188 391 2477 730 
Q 2766 1069 2766 1631 
L 2766 1759 
L 2194 1759 
z
M 3341 1997 
L 3341 0 
L 2766 0 
L 2766 531 
Q 2569 213 2275 61 
Q 1981 -91 1556 -91 
Q 1019 -91 701 211 
Q 384 513 384 1019 
Q 384 1609 779 1909 
Q 1175 2209 1959 2209 
L 2766 2209 
L 2766 2266 
Q 2766 2663 2505 2880 
Q 2244 3097 1772 3097 
Q 1472 3097 1187 3025 
Q 903 2953 641 2809 
L 641 3341 
Q 956 3463 1253 3523 
Q 1550 3584 1831 3584 
Q 2591 3584 2966 3190 
Q 3341 2797 3341 1997 
z
" transform="scale(0.015625)"/>
       <path id="DejaVuSans-6c" d="M 603 4863 
L 1178 4863 
L 1178 0 
L 603 0 
L 603 4863 
z
" transform="scale(0.015625)"/>
       <path id="DejaVuSans-73" d="M 2834 3397 
L 2834 2853 
Q 2591 2978 2328 3040 
Q 2066 3103 1784 3103 
Q 1356 3103 1142 2972 
Q 928 2841 928 2578 
Q 928 2378 1081 2264 
Q 1234 2150 1697 2047 
L 1894 2003 
Q 2506 1872 2764 1633 
Q 3022 1394 3022 966 
Q 3022 478 2636 193 
Q 2250 -91 1575 -91 
Q 1294 -91 989 -36 
Q 684 19 347 128 
L 347 722 
Q 666 556 975 473 
Q 1284 391 1588 391 
Q 1994 391 2212 530 
Q 2431 669 2431 922 
Q 2431 1156 2273 1281 
Q 2116 1406 1581 1522 
L 1381 1569 
Q 847 1681 609 1914 
Q 372 2147 372 2553 
Q 372 3047 722 3315 
Q 1072 3584 1716 3584 
Q 2034 3584 2315 3537 
Q 2597 3491 2834 3397 
z
" transform="scale(0.015625)"/>
       <path id="DejaVuSans-65" d="M 3597 1894 
L 3597 1613 
L 953 1613 
Q 991 1019 1311 708 
Q 1631 397 2203 397 
Q 2534 397 2845 478 
Q 3156 559 3463 722 
L 3463 178 
Q 3153 47 2828 -22 
Q 2503 -91 2169 -91 
Q 1331 -91 842 396 
Q 353 884 353 1716 
Q 353 2575 817 3079 
Q 1281 3584 2069 3584 
Q 2775 3584 3186 3129 
Q 3597 2675 3597 1894 
z
M 3022 2063 
Q 3016 2534 2758 2815 
Q 2500 3097 2075 3097 
Q 1594 3097 1305 2825 
Q 1016 2553 972 2059 
L 3022 2063 
z
" transform="scale(0.015625)"/>
       <path id="DejaVuSans-20" transform="scale(0.015625)"/>
       <path id="DejaVuSans-50" d="M 1259 4147 
L 1259 2394 
L 2053 2394 
Q 2494 2394 2734 2622 
Q 2975 2850 2975 3272 
Q 2975 3691 2734 3919 
Q 2494 4147 2053 4147 
L 1259 4147 
z
M 628 4666 
L 2053 4666 
Q 2838 4666 3239 4311 
Q 3641 3956 3641 3272 
Q 3641 2581 3239 2228 
Q 2838 1875 2053 1875 
L 1259 1875 
L 1259 0 
L 628 0 
L 628 4666 
z
" transform="scale(0.015625)"/>
       <path id="DejaVuSans-6f" d="M 1959 3097 
Q 1497 3097 1228 2736 
Q 959 2375 959 1747 
Q 959 1119 1226 758 
Q 1494 397 1959 397 
Q 2419 397 2687 759 
Q 2956 1122 2956 1747 
Q 2956 2369 2687 2733 
Q 2419 3097 1959 3097 
z
M 1959 3584 
Q 2709 3584 3137 3096 
Q 3566 2609 3566 1747 
Q 3566 888 3137 398 
Q 2709 -91 1959 -91 
Q 1206 -91 779 398 
Q 353 888 353 1747 
Q 353 2609 779 3096 
Q 1206 3584 1959 3584 
z
" transform="scale(0.015625)"/>
       <path id="DejaVuSans-69" d="M 603 3500 
L 1178 3500 
L 1178 0 
L 603 0 
L 603 3500 
z
M 603 4863 
L 1178 4863 
L 1178 4134 
L 603 4134 
L 603 4863 
z
" transform="scale(0.015625)"/>
       <path id="DejaVuSans-74" d="M 1172 4494 
L 1172 3500 
L 2356 3500 
L 2356 3053 
L 1172 3053 
L 1172 1153 
Q 1172 725 1289 603 
Q 1406 481 1766 481 
L 2356 481 
L 2356 0 
L 1766 0 
Q 1100 0 847 248 
Q 594 497 594 1153 
L 594 3053 
L 172 3053 
L 172 3500 
L 594 3500 
L 594 4494 
L 1172 4494 
z
" transform="scale(0.015625)"/>
       <path id="DejaVuSans-76" d="M 191 3500 
L 800 3500 
L 1894 563 
L 2988 3500 
L 3597 3500 
L 2284 0 
L 1503 0 
L 191 3500 
z
" transform="scale(0.015625)"/>
       <path id="DejaVuSans-72" d="M 2631 2963 
Q 2534 3019 2420 3045 
Q 2306 3072 2169 3072 
Q 1681 3072 1420 2755 
Q 1159 2438 1159 1844 
L 1159 0 
L 581 0 
L 581 3500 
L 1159 3500 
L 1159 2956 
Q 1341 3275 1631 3429 
Q 1922 3584 2338 3584 
Q 2397 3584 2469 3576 
Q 2541 3569 2628 3553 
L 2631 2963 
z
" transform="scale(0.015625)"/>
      </defs>
      <use xlink:href="#DejaVuSans-46"/>
      <use xlink:href="#DejaVuSans-61" x="48.394531"/>
      <use xlink:href="#DejaVuSans-6c" x="109.673828"/>
      <use xlink:href="#DejaVuSans-73" x="137.457031"/>
      <use xlink:href="#DejaVuSans-65" x="189.556641"/>
      <use xlink:href="#DejaVuSans-20" x="251.080078"/>
      <use xlink:href="#DejaVuSans-50" x="282.867188"/>
      <use xlink:href="#DejaVuSans-6f" x="339.544922"/>
      <use xlink:href="#DejaVuSans-73" x="400.726562"/>
      <use xlink:href="#DejaVuSans-69" x="452.826172"/>
      <use xlink:href="#DejaVuSans-74" x="480.609375"/>
      <use xlink:href="#DejaVuSans-69" x="519.818359"/>
      <use xlink:href="#DejaVuSans-76" x="547.601562"/>
      <use xlink:href="#DejaVuSans-65" x="606.78125"/>
      <use xlink:href="#DejaVuSans-20" x="668.304688"/>
      <use xlink:href="#DejaVuSans-72" x="700.091797"/>
      <use xlink:href="#DejaVuSans-61" x="741.205078"/>
      <use xlink:href="#DejaVuSans-74" x="802.484375"/>
      <use xlink:href="#DejaVuSans-65" x="841.693359"/>
     </g>
    </g>
   </g>
   <g id="matplotlib.axis_2">
    <g id="ytick_1">
     <g id="line2d_13">
      <path d="M 43.78125 247.68 
L 259.78125 247.68 
" clip-path="url(#pc4998aaf71)" style="fill: none; stroke-dasharray: 0.8,1.32; stroke-dashoffset: 0; stroke: #b0b0b0; stroke-opacity: 0.3; stroke-width: 0.8"/>
     </g>
     <g id="line2d_14">
      <defs>
       <path id="me3caa4ee12" d="M 0 0 
L -3.5 0 
" style="stroke: #000000; stroke-width: 0.8"/>
      </defs>
      <g>
       <use xlink:href="#me3caa4ee12" x="43.78125" y="247.68" style="stroke: #000000; stroke-width: 0.8"/>
      </g>
     </g>
     <g id="text_8">
      <!-- 0.0 -->
      <g transform="translate(20.878125 251.479219) scale(0.1 -0.1)">
       <use xlink:href="#DejaVuSans-30"/>
       <use xlink:href="#DejaVuSans-2e" x="63.623047"/>
       <use xlink:href="#DejaVuSans-30" x="95.410156"/>
      </g>
     </g>
    </g>
    <g id="ytick_2">
     <g id="line2d_15">
      <path d="M 43.78125 207.36 
L 259.78125 207.36 
" clip-path="url(#pc4998aaf71)" style="fill: none; stroke-dasharray: 0.8,1.32; stroke-dashoffset: 0; stroke: #b0b0b0; stroke-opacity: 0.3; stroke-width: 0.8"/>
     </g>
     <g id="line2d_16">
      <g>
       <use xlink:href="#me3caa4ee12" x="43.78125" y="207.36" style="stroke: #000000; stroke-width: 0.8"/>
      </g>
     </g>
     <g id="text_9">
      <!-- 0.2 -->
      <g transform="translate(20.878125 211.159219) scale(0.1 -0.1)">
       <use xlink:href="#DejaVuSans-30"/>
       <use xlink:href="#DejaVuSans-2e" x="63.623047"/>
       <use xlink:href="#DejaVuSans-32" x="95.410156"/>
      </g>
     </g>
    </g>
    <g id="ytick_3">
     <g id="line2d_17">
      <path d="M 43.78125 167.04 
L 259.78125 167.04 
" clip-path="url(#pc4998aaf71)" style="fill: none; stroke-dasharray: 0.8,1.32; stroke-dashoffset: 0; stroke: #b0b0b0; stroke-opacity: 0.3; stroke-width: 0.8"/>
     </g>
     <g id="line2d_18">
      <g>
       <use xlink:href="#me3caa4ee12" x="43.78125" y="167.04" style="stroke: #000000; stroke-width: 0.8"/>
      </g>
     </g>
     <g id="text_10">
      <!-- 0.4 -->
      <g transform="translate(20.878125 170.839219) scale(0.1 -0.1)">
       <use xlink:href="#DejaVuSans-30"/>
       <use xlink:href="#DejaVuSans-2e" x="63.623047"/>
       <use xlink:href="#DejaVuSans-34" x="95.410156"/>
      </g>
     </g>
    </g>
    <g id="ytick_4">
     <g id="line2d_19">
      <path d="M 43.78125 126.72 
L 259.78125 126.72 
" clip-path="url(#pc4998aaf71)" style="fill: none; stroke-dasharray: 0.8,1.32; stroke-dashoffset: 0; stroke: #b0b0b0; stroke-opacity: 0.3; stroke-width: 0.8"/>
     </g>
     <g id="line2d_20">
      <g>
       <use xlink:href="#me3caa4ee12" x="43.78125" y="126.72" style="stroke: #000000; stroke-width: 0.8"/>
      </g>
     </g>
     <g id="text_11">
      <!-- 0.6 -->
      <g transform="translate(20.878125 130.519219) scale(0.1 -0.1)">
       <use xlink:href="#DejaVuSans-30"/>
       <use xlink:href="#DejaVuSans-2e" x="63.623047"/>
       <use xlink:href="#DejaVuSans-36" x="95.410156"/>
      </g>
     </g>
    </g>
    <g id="ytick_5">
     <g id="line2d_21">
      <path d="M 43.78125 86.4 
L 259.78125 86.4 
" clip-path="url(#pc4998aaf71)" style="fill: none; stroke-dasharray: 0.8,1.32; stroke-dashoffset: 0; stroke: #b0b0b0; stroke-opacity: 0.3; stroke-width: 0.8"/>
     </g>
     <g id="line2d_22">
      <g>
       <use xlink:href="#me3caa4ee12" x="43.78125" y="86.4" style="stroke: #000000; stroke-width: 0.8"/>
      </g>
     </g>
     <g id="text_12">
      <!-- 0.8 -->
      <g transform="translate(20.878125 90.199219) scale(0.1 -0.1)">
       <use xlink:href="#DejaVuSans-30"/>
       <use xlink:href="#DejaVuSans-2e" x="63.623047"/>
       <use xlink:href="#DejaVuSans-38" x="95.410156"/>
      </g>
     </g>
    </g>
    <g id="ytick_6">
     <g id="line2d_23">
      <path d="M 43.78125 46.08 
L 259.78125 46.08 
" clip-path="url(#pc4998aaf71)" style="fill: none; stroke-dasharray: 0.8,1.32; stroke-dashoffset: 0; stroke: #b0b0b0; stroke-opacity: 0.3; stroke-width: 0.8"/>
     </g>
     <g id="line2d_24">
      <g>
       <use xlink:href="#me3caa4ee12" x="43.78125" y="46.08" style="stroke: #000000; stroke-width: 0.8"/>
      </g>
     </g>
     <g id="text_13">
      <!-- 1.0 -->
      <g transform="translate(20.878125 49.879219) scale(0.1 -0.1)">
       <use xlink:href="#DejaVuSans-31"/>
       <use xlink:href="#DejaVuSans-2e" x="63.623047"/>
       <use xlink:href="#DejaVuSans-30" x="95.410156"/>
      </g>
     </g>
    </g>
    <g id="text_14">
     <!-- True Positive rate -->
     <g transform="translate(14.798438 190.103437) rotate(-90) scale(0.1 -0.1)">
      <defs>
       <path id="DejaVuSans-54" d="M -19 4666 
L 3928 4666 
L 3928 4134 
L 2272 4134 
L 2272 0 
L 1638 0 
L 1638 4134 
L -19 4134 
L -19 4666 
z
" transform="scale(0.015625)"/>
       <path id="DejaVuSans-75" d="M 544 1381 
L 544 3500 
L 1119 3500 
L 1119 1403 
Q 1119 906 1312 657 
Q 1506 409 1894 409 
Q 2359 409 2629 706 
Q 2900 1003 2900 1516 
L 2900 3500 
L 3475 3500 
L 3475 0 
L 2900 0 
L 2900 538 
Q 2691 219 2414 64 
Q 2138 -91 1772 -91 
Q 1169 -91 856 284 
Q 544 659 544 1381 
z
M 1991 3584 
L 1991 3584 
z
" transform="scale(0.015625)"/>
      </defs>
      <use xlink:href="#DejaVuSans-54"/>
      <use xlink:href="#DejaVuSans-72" x="46.333984"/>
      <use xlink:href="#DejaVuSans-75" x="87.447266"/>
      <use xlink:href="#DejaVuSans-65" x="150.826172"/>
      <use xlink:href="#DejaVuSans-20" x="212.349609"/>
      <use xlink:href="#DejaVuSans-50" x="244.136719"/>
      <use xlink:href="#DejaVuSans-6f" x="300.814453"/>
      <use xlink:href="#DejaVuSans-73" x="361.996094"/>
      <use xlink:href="#DejaVuSans-69" x="414.095703"/>
      <use xlink:href="#DejaVuSans-74" x="441.878906"/>
      <use xlink:href="#DejaVuSans-69" x="481.087891"/>
      <use xlink:href="#DejaVuSans-76" x="508.871094"/>
      <use xlink:href="#DejaVuSans-65" x="568.050781"/>
      <use xlink:href="#DejaVuSans-20" x="629.574219"/>
      <use xlink:href="#DejaVuSans-72" x="661.361328"/>
      <use xlink:href="#DejaVuSans-61" x="702.474609"/>
      <use xlink:href="#DejaVuSans-74" x="763.753906"/>
      <use xlink:href="#DejaVuSans-65" x="802.962891"/>
     </g>
    </g>
   </g>
   <g id="line2d_25">
    <path d="M 53.599432 247.68 
L 249.963068 46.08 
" clip-path="url(#pc4998aaf71)" style="fill: none; stroke-dasharray: 5.55,2.4; stroke-dashoffset: 0; stroke: #ff0000; stroke-width: 1.5"/>
   </g>
   <g id="line2d_26">
    <path d="M 53.599432 247.68 
L 53.710436 152.751115 
L 53.71293 152.489251 
L 53.823934 137.984697 
L 53.826429 137.850408 
L 53.937433 123.461343 
L 53.93868 123.461343 
L 53.93868 123.375398 
L 54.049684 114.621099 
L 54.052179 114.567384 
L 54.052179 114.531126 
L 54.163183 106.495273 
L 54.166924 106.454986 
L 54.166924 106.390527 
L 54.277928 101.729357 
L 54.282917 101.650126 
L 54.393921 97.558341 
L 54.401405 97.468367 
L 54.401405 97.449566 
L 54.512409 94.195744 
L 54.513656 94.195744 
L 54.513656 94.08697 
L 54.623413 91.323303 
L 54.630896 91.215872 
L 54.7419 87.982193 
L 54.748136 87.882819 
L 54.85914 85.209125 
L 54.865377 85.108409 
L 54.976381 82.587804 
L 54.98137 82.499173 
L 55.092374 80.917249 
L 55.09861 80.829961 
L 55.209614 78.855913 
L 55.214603 78.782054 
L 55.214603 78.757882 
L 55.32436 77.18133 
L 55.341821 77.071213 
L 55.452825 75.654464 
L 55.465297 75.584634 
L 55.576301 74.269944 
L 55.583785 74.165199 
L 55.694789 72.812909 
L 55.711003 72.732335 
L 55.82076 71.594908 
L 55.839468 71.486134 
L 55.949225 70.450766 
L 55.969181 70.344677 
L 56.080185 69.344224 
L 56.095152 69.255594 
L 56.206156 68.413602 
L 56.223617 68.30617 
L 56.334621 67.465521 
L 56.345846 67.394348 
L 56.345846 67.36749 
L 56.45685 66.580557 
L 56.476806 66.474469 
L 56.58781 65.598904 
L 56.604024 65.494159 
L 56.715028 64.805256 
L 56.736231 64.712597 
L 56.847235 64.046524 
L 56.875922 63.952521 
L 56.986926 63.408651 
L 57.010623 63.298534 
L 57.121627 62.676776 
L 57.145325 62.568002 
L 57.256329 62.048304 
L 57.290004 61.938187 
L 57.401008 61.478918 
L 57.425953 61.371487 
L 57.536957 60.892075 
L 57.565643 60.781958 
L 57.676647 60.293146 
L 57.700345 60.188401 
L 57.811349 59.702275 
L 57.84253 59.59753 
L 57.953534 59.255093 
L 57.972242 59.147661 
L 58.083246 58.797167 
L 58.116922 58.68705 
L 58.227926 58.28284 
L 58.269085 58.172723 
L 58.380089 57.823572 
L 58.423742 57.717484 
L 58.534746 57.362961 
L 58.559691 57.256872 
L 58.670695 56.949351 
L 58.706864 56.848634 
L 58.815374 56.557227 
L 58.876489 56.448453 
L 58.986245 56.197332 
L 59.042371 56.088558 
L 59.153375 55.779694 
L 59.189545 55.673605 
L 59.299302 55.434571 
L 59.340461 55.324454 
L 59.451465 55.093477 
L 59.526299 54.984703 
L 59.636056 54.756411 
L 59.702159 54.646295 
L 59.813163 54.454261 
L 59.879267 54.345487 
L 59.990271 54.099738 
L 60.031429 53.989621 
L 60.142433 53.808331 
L 60.223504 53.698214 
L 60.334508 53.515581 
L 60.404353 53.405464 
L 60.515357 53.22686 
L 60.583955 53.116743 
L 60.693712 52.938139 
L 60.767299 52.828022 
L 60.878303 52.640017 
L 60.954384 52.5299 
L 61.065388 52.380839 
L 61.143964 52.270722 
L 61.252474 52.168663 
L 61.334791 52.063917 
L 61.442054 51.9256 
L 61.581744 51.815483 
L 61.690254 51.652993 
L 61.773819 51.542876 
L 61.884823 51.442159 
L 61.974624 51.333385 
L 62.085628 51.232668 
L 62.196632 51.123894 
L 62.307636 50.997663 
L 62.421134 50.887546 
L 62.530891 50.774743 
L 62.694279 50.665969 
L 62.799047 50.571967 
L 62.946221 50.463193 
L 63.057225 50.36919 
L 63.18569 50.259073 
L 63.296694 50.190586 
L 63.450104 50.080469 
L 63.559861 50.001238 
L 63.730732 49.901865 
L 63.837995 49.833377 
L 64.007619 49.72326 
L 64.118623 49.63463 
L 64.349362 49.524513 
L 64.459118 49.458711 
L 64.65244 49.35128 
L 64.758455 49.284135 
L 64.906876 49.175361 
L 65.01788 49.098816 
L 65.227416 48.988699 
L 65.337173 48.930955 
L 65.592856 48.820838 
L 65.701366 48.78458 
L 65.984488 48.677149 
L 66.094245 48.635519 
L 66.34494 48.525402 
L 66.455944 48.477058 
L 66.808912 48.368284 
L 66.909938 48.329341 
L 67.274131 48.219224 
L 67.381393 48.186994 
L 67.825409 48.076877 
L 67.936413 48.036591 
L 68.306842 47.926474 
L 68.414105 47.866044 
L 68.909257 47.755927 
L 69.014025 47.729069 
L 69.53537 47.620295 
L 69.637643 47.592094 
L 70.129055 47.481977 
L 70.23507 47.455119 
L 70.899847 47.345002 
L 70.993389 47.326202 
L 71.729259 47.216085 
L 71.840263 47.197284 
L 72.674664 47.087167 
L 72.780679 47.071053 
L 73.884483 46.962279 
L 73.976779 46.951536 
L 75.204059 46.841419 
L 75.297602 46.832018 
L 76.770588 46.721901 
L 76.870367 46.709815 
L 78.974454 46.599698 
L 79.075481 46.590298 
L 81.37289 46.480181 
L 81.47641 46.469438 
L 84.286434 46.359321 
L 84.396191 46.355292 
L 89.787993 46.245175 
L 89.89775 46.235775 
L 103.49512 46.125658 
L 103.49512 46.124315 
L 249.963068 46.08 
L 249.963068 46.08 
" clip-path="url(#pc4998aaf71)" style="fill: none; stroke-dasharray: 5.55,2.4; stroke-dashoffset: 0; stroke: #0000ff; stroke-opacity: 0.1; stroke-width: 1.5"/>
   </g>
   <g id="line2d_27">
    <path d="M 53.599432 247.68 
L 55.582903 74.165199 
L 57.566374 60.776587 
L 59.549845 54.943073 
L 61.533316 51.840998 
L 63.516787 50.036154 
L 65.500258 48.857096 
L 67.483729 48.162822 
L 69.4672 47.635066 
L 71.450671 47.265772 
L 73.434143 47.013308 
L 75.417614 46.826647 
L 77.401085 46.6655 
L 79.384556 46.560755 
L 81.368027 46.480181 
L 83.351498 46.38215 
L 85.334969 46.324406 
L 87.31844 46.284119 
L 89.301911 46.253233 
L 91.285382 46.219661 
L 93.268853 46.188774 
L 95.252324 46.163259 
L 97.235795 46.14983 
L 99.219267 46.141773 
L 101.202738 46.135058 
L 103.186209 46.127001 
L 105.16968 46.118944 
L 107.153151 46.112229 
L 109.136622 46.106858 
L 111.120093 46.104172 
L 113.103564 46.0988 
L 115.087035 46.0988 
L 117.070506 46.096115 
L 119.053977 46.093429 
L 121.037448 46.092086 
L 123.020919 46.0894 
L 125.00439 46.088057 
L 126.987862 46.088057 
L 128.971333 46.088057 
L 130.954804 46.086714 
L 132.938275 46.086714 
L 134.921746 46.086714 
L 136.905217 46.085372 
L 138.888688 46.084029 
L 140.872159 46.082686 
L 142.85563 46.082686 
L 144.839101 46.082686 
L 146.822572 46.082686 
L 148.806043 46.082686 
L 150.789514 46.082686 
L 152.772986 46.082686 
L 154.756457 46.082686 
L 156.739928 46.082686 
L 158.723399 46.082686 
L 160.70687 46.082686 
L 162.690341 46.082686 
L 164.673812 46.08 
L 166.657283 46.08 
L 168.640754 46.08 
L 170.624225 46.08 
L 172.607696 46.08 
L 174.591167 46.08 
L 176.574638 46.08 
L 178.55811 46.08 
L 180.541581 46.08 
L 182.525052 46.08 
L 184.508523 46.08 
L 186.491994 46.08 
L 188.475465 46.08 
L 190.458936 46.08 
L 192.442407 46.08 
L 194.425878 46.08 
L 196.409349 46.08 
L 198.39282 46.08 
L 200.376291 46.08 
L 202.359762 46.08 
L 204.343233 46.08 
L 206.326705 46.08 
L 208.310176 46.08 
L 210.293647 46.08 
L 212.277118 46.08 
L 214.260589 46.08 
L 216.24406 46.08 
L 218.227531 46.08 
L 220.211002 46.08 
L 222.194473 46.08 
L 224.177944 46.08 
L 226.161415 46.08 
L 228.144886 46.08 
L 230.128357 46.08 
L 232.111829 46.08 
L 234.0953 46.08 
L 236.078771 46.08 
L 238.062242 46.08 
L 240.045713 46.08 
L 242.029184 46.08 
L 244.012655 46.08 
L 245.996126 46.08 
L 247.979597 46.08 
L 249.963068 46.08 
" clip-path="url(#pc4998aaf71)" style="fill: none; stroke: #0000ff; stroke-width: 1.5; stroke-linecap: square"/>
   </g>
   <g id="patch_3">
    <path d="M 43.78125 257.76 
L 43.78125 36 
" style="fill: none; stroke: #000000; stroke-width: 0.8; stroke-linejoin: miter; stroke-linecap: square"/>
   </g>
   <g id="patch_4">
    <path d="M 259.78125 257.76 
L 259.78125 36 
" style="fill: none; stroke: #000000; stroke-width: 0.8; stroke-linejoin: miter; stroke-linecap: square"/>
   </g>
   <g id="patch_5">
    <path d="M 43.78125 257.76 
L 259.78125 257.76 
" style="fill: none; stroke: #000000; stroke-width: 0.8; stroke-linejoin: miter; stroke-linecap: square"/>
   </g>
   <g id="patch_6">
    <path d="M 43.78125 36 
L 259.78125 36 
" style="fill: none; stroke: #000000; stroke-width: 0.8; stroke-linejoin: miter; stroke-linecap: square"/>
   </g>
   <g id="text_15">
    <!-- AUC: 0.994$\pm$0.000 -->
    <g transform="translate(161.599432 251.712) scale(0.1 -0.1)">
     <defs>
      <path id="DejaVuSans-41" d="M 2188 4044 
L 1331 1722 
L 3047 1722 
L 2188 4044 
z
M 1831 4666 
L 2547 4666 
L 4325 0 
L 3669 0 
L 3244 1197 
L 1141 1197 
L 716 0 
L 50 0 
L 1831 4666 
z
" transform="scale(0.015625)"/>
      <path id="DejaVuSans-55" d="M 556 4666 
L 1191 4666 
L 1191 1831 
Q 1191 1081 1462 751 
Q 1734 422 2344 422 
Q 2950 422 3222 751 
Q 3494 1081 3494 1831 
L 3494 4666 
L 4128 4666 
L 4128 1753 
Q 4128 841 3676 375 
Q 3225 -91 2344 -91 
Q 1459 -91 1007 375 
Q 556 841 556 1753 
L 556 4666 
z
" transform="scale(0.015625)"/>
      <path id="DejaVuSans-43" d="M 4122 4306 
L 4122 3641 
Q 3803 3938 3442 4084 
Q 3081 4231 2675 4231 
Q 1875 4231 1450 3742 
Q 1025 3253 1025 2328 
Q 1025 1406 1450 917 
Q 1875 428 2675 428 
Q 3081 428 3442 575 
Q 3803 722 4122 1019 
L 4122 359 
Q 3791 134 3420 21 
Q 3050 -91 2638 -91 
Q 1578 -91 968 557 
Q 359 1206 359 2328 
Q 359 3453 968 4101 
Q 1578 4750 2638 4750 
Q 3056 4750 3426 4639 
Q 3797 4528 4122 4306 
z
" transform="scale(0.015625)"/>
      <path id="DejaVuSans-3a" d="M 750 794 
L 1409 794 
L 1409 0 
L 750 0 
L 750 794 
z
M 750 3309 
L 1409 3309 
L 1409 2516 
L 750 2516 
L 750 3309 
z
" transform="scale(0.015625)"/>
      <path id="DejaVuSans-39" d="M 703 97 
L 703 672 
Q 941 559 1184 500 
Q 1428 441 1663 441 
Q 2288 441 2617 861 
Q 2947 1281 2994 2138 
Q 2813 1869 2534 1725 
Q 2256 1581 1919 1581 
Q 1219 1581 811 2004 
Q 403 2428 403 3163 
Q 403 3881 828 4315 
Q 1253 4750 1959 4750 
Q 2769 4750 3195 4129 
Q 3622 3509 3622 2328 
Q 3622 1225 3098 567 
Q 2575 -91 1691 -91 
Q 1453 -91 1209 -44 
Q 966 3 703 97 
z
M 1959 2075 
Q 2384 2075 2632 2365 
Q 2881 2656 2881 3163 
Q 2881 3666 2632 3958 
Q 2384 4250 1959 4250 
Q 1534 4250 1286 3958 
Q 1038 3666 1038 3163 
Q 1038 2656 1286 2365 
Q 1534 2075 1959 2075 
z
" transform="scale(0.015625)"/>
      <path id="DejaVuSans-b1" d="M 2944 4013 
L 2944 2803 
L 4684 2803 
L 4684 2272 
L 2944 2272 
L 2944 1063 
L 2419 1063 
L 2419 2272 
L 678 2272 
L 678 2803 
L 2419 2803 
L 2419 4013 
L 2944 4013 
z
M 678 531 
L 4684 531 
L 4684 0 
L 678 0 
L 678 531 
z
" transform="scale(0.015625)"/>
     </defs>
     <use xlink:href="#DejaVuSans-41" transform="translate(0 0.78125)"/>
     <use xlink:href="#DejaVuSans-55" transform="translate(68.408203 0.78125)"/>
     <use xlink:href="#DejaVuSans-43" transform="translate(141.601562 0.78125)"/>
     <use xlink:href="#DejaVuSans-3a" transform="translate(211.425781 0.78125)"/>
     <use xlink:href="#DejaVuSans-20" transform="translate(245.117188 0.78125)"/>
     <use xlink:href="#DejaVuSans-30" transform="translate(276.904297 0.78125)"/>
     <use xlink:href="#DejaVuSans-2e" transform="translate(340.527344 0.78125)"/>
     <use xlink:href="#DejaVuSans-39" transform="translate(372.314453 0.78125)"/>
     <use xlink:href="#DejaVuSans-39" transform="translate(435.9375 0.78125)"/>
     <use xlink:href="#DejaVuSans-34" transform="translate(499.560547 0.78125)"/>
     <use xlink:href="#DejaVuSans-b1" transform="translate(563.183594 0.78125)"/>
     <use xlink:href="#DejaVuSans-30" transform="translate(646.972656 0.78125)"/>
     <use xlink:href="#DejaVuSans-2e" transform="translate(710.595703 0.78125)"/>
     <use xlink:href="#DejaVuSans-30" transform="translate(742.382812 0.78125)"/>
     <use xlink:href="#DejaVuSans-30" transform="translate(806.005859 0.78125)"/>
     <use xlink:href="#DejaVuSans-30" transform="translate(869.628906 0.78125)"/>
    </g>
   </g>
   <g id="text_16">
    <!-- Train data -->
    <g transform="translate(121.966875 30) scale(0.12 -0.12)">
     <defs>
      <path id="DejaVuSans-6e" d="M 3513 2113 
L 3513 0 
L 2938 0 
L 2938 2094 
Q 2938 2591 2744 2837 
Q 2550 3084 2163 3084 
Q 1697 3084 1428 2787 
Q 1159 2491 1159 1978 
L 1159 0 
L 581 0 
L 581 3500 
L 1159 3500 
L 1159 2956 
Q 1366 3272 1645 3428 
Q 1925 3584 2291 3584 
Q 2894 3584 3203 3211 
Q 3513 2838 3513 2113 
z
" transform="scale(0.015625)"/>
      <path id="DejaVuSans-64" d="M 2906 2969 
L 2906 4863 
L 3481 4863 
L 3481 0 
L 2906 0 
L 2906 525 
Q 2725 213 2448 61 
Q 2172 -91 1784 -91 
Q 1150 -91 751 415 
Q 353 922 353 1747 
Q 353 2572 751 3078 
Q 1150 3584 1784 3584 
Q 2172 3584 2448 3432 
Q 2725 3281 2906 2969 
z
M 947 1747 
Q 947 1113 1208 752 
Q 1469 391 1925 391 
Q 2381 391 2643 752 
Q 2906 1113 2906 1747 
Q 2906 2381 2643 2742 
Q 2381 3103 1925 3103 
Q 1469 3103 1208 2742 
Q 947 2381 947 1747 
z
" transform="scale(0.015625)"/>
     </defs>
     <use xlink:href="#DejaVuSans-54"/>
     <use xlink:href="#DejaVuSans-72" x="46.333984"/>
     <use xlink:href="#DejaVuSans-61" x="87.447266"/>
     <use xlink:href="#DejaVuSans-69" x="148.726562"/>
     <use xlink:href="#DejaVuSans-6e" x="176.509766"/>
     <use xlink:href="#DejaVuSans-20" x="239.888672"/>
     <use xlink:href="#DejaVuSans-64" x="271.675781"/>
     <use xlink:href="#DejaVuSans-61" x="335.152344"/>
     <use xlink:href="#DejaVuSans-74" x="396.431641"/>
     <use xlink:href="#DejaVuSans-61" x="435.640625"/>
    </g>
   </g>
  </g>
  <g id="axes_2">
   <g id="patch_7">
    <path d="M 270.58125 257.76 
L 486.58125 257.76 
L 486.58125 36 
L 270.58125 36 
L 270.58125 257.76 
z
" style="fill: none"/>
   </g>
   <g id="PolyCollection_2">
    <defs>
     <path id="m87fcacf5df" d="M 280.399432 -47.63625 
L 280.399432 -47.63625 
L 282.382903 -215.423731 
L 284.366374 -230.674854 
L 286.349845 -237.653436 
L 288.333316 -241.415966 
L 290.316787 -243.645847 
L 292.300258 -244.96493 
L 294.283729 -246.07673 
L 296.2672 -246.77396 
L 298.250671 -247.351844 
L 300.234143 -247.653349 
L 302.217614 -247.910885 
L 304.201085 -248.118169 
L 306.184556 -248.350579 
L 308.168027 -248.49505 
L 310.151498 -248.595552 
L 312.134969 -248.67721 
L 314.11844 -248.752586 
L 316.101911 -248.840525 
L 318.085382 -248.903338 
L 320.068853 -248.941026 
L 322.052324 -248.978715 
L 324.035795 -248.997559 
L 326.019267 -249.047809 
L 328.002738 -249.066653 
L 329.986209 -249.09806 
L 331.96968 -249.110623 
L 333.953151 -249.129467 
L 335.936622 -249.129467 
L 337.920093 -249.129467 
L 339.903564 -249.129467 
L 341.887035 -249.135748 
L 343.870506 -249.14203 
L 345.853977 -249.148311 
L 347.837448 -249.148311 
L 349.820919 -249.154592 
L 351.80439 -249.167155 
L 353.787862 -249.173436 
L 355.771333 -249.179718 
L 357.754804 -249.192281 
L 359.738275 -249.198562 
L 361.721746 -249.198562 
L 363.705217 -249.204843 
L 365.688688 -249.211125 
L 367.672159 -249.211125 
L 369.65563 -249.217406 
L 371.639101 -249.223687 
L 373.622572 -249.223687 
L 375.606043 -249.223687 
L 377.589514 -249.223687 
L 379.572986 -249.223687 
L 381.556457 -249.229969 
L 383.539928 -249.229969 
L 385.523399 -249.229969 
L 387.50687 -249.229969 
L 389.490341 -249.229969 
L 391.473812 -249.229969 
L 393.457283 -249.229969 
L 395.440754 -249.229969 
L 397.424225 -249.229969 
L 399.407696 -249.229969 
L 401.391167 -249.229969 
L 403.374638 -249.229969 
L 405.35811 -249.229969 
L 407.341581 -249.229969 
L 409.325052 -249.229969 
L 411.308523 -249.229969 
L 413.291994 -249.23625 
L 415.275465 -249.23625 
L 417.258936 -249.23625 
L 419.242407 -249.23625 
L 421.225878 -249.23625 
L 423.209349 -249.23625 
L 425.19282 -249.23625 
L 427.176291 -249.23625 
L 429.159762 -249.23625 
L 431.143233 -249.23625 
L 433.126705 -249.23625 
L 435.110176 -249.23625 
L 437.093647 -249.23625 
L 439.077118 -249.23625 
L 441.060589 -249.23625 
L 443.04406 -249.23625 
L 445.027531 -249.23625 
L 447.011002 -249.23625 
L 448.994473 -249.23625 
L 450.977944 -249.23625 
L 452.961415 -249.23625 
L 454.944886 -249.23625 
L 456.928357 -249.23625 
L 458.911829 -249.23625 
L 460.8953 -249.23625 
L 462.878771 -249.23625 
L 464.862242 -249.23625 
L 466.845713 -249.23625 
L 468.829184 -249.23625 
L 470.812655 -249.23625 
L 472.796126 -249.23625 
L 474.779597 -249.23625 
L 476.763068 -249.23625 
L 476.763068 -249.23625 
L 476.763068 -249.23625 
L 474.779597 -249.23625 
L 472.796126 -249.23625 
L 470.812655 -249.23625 
L 468.829184 -249.23625 
L 466.845713 -249.23625 
L 464.862242 -249.23625 
L 462.878771 -249.23625 
L 460.8953 -249.23625 
L 458.911829 -249.23625 
L 456.928357 -249.23625 
L 454.944886 -249.23625 
L 452.961415 -249.23625 
L 450.977944 -249.23625 
L 448.994473 -249.23625 
L 447.011002 -249.23625 
L 445.027531 -249.23625 
L 443.04406 -249.23625 
L 441.060589 -249.23625 
L 439.077118 -249.23625 
L 437.093647 -249.23625 
L 435.110176 -249.23625 
L 433.126705 -249.23625 
L 431.143233 -249.23625 
L 429.159762 -249.23625 
L 427.176291 -249.23625 
L 425.19282 -249.23625 
L 423.209349 -249.23625 
L 421.225878 -249.23625 
L 419.242407 -249.23625 
L 417.258936 -249.23625 
L 415.275465 -249.23625 
L 413.291994 -249.23625 
L 411.308523 -249.229969 
L 409.325052 -249.229969 
L 407.341581 -249.229969 
L 405.35811 -249.229969 
L 403.374638 -249.229969 
L 401.391167 -249.229969 
L 399.407696 -249.229969 
L 397.424225 -249.229969 
L 395.440754 -249.229969 
L 393.457283 -249.229969 
L 391.473812 -249.229969 
L 389.490341 -249.229969 
L 387.50687 -249.229969 
L 385.523399 -249.229969 
L 383.539928 -249.229969 
L 381.556457 -249.229969 
L 379.572986 -249.223687 
L 377.589514 -249.223687 
L 375.606043 -249.223687 
L 373.622572 -249.223687 
L 371.639101 -249.223687 
L 369.65563 -249.217406 
L 367.672159 -249.211125 
L 365.688688 -249.211125 
L 363.705217 -249.204843 
L 361.721746 -249.198562 
L 359.738275 -249.198562 
L 357.754804 -249.192281 
L 355.771333 -249.179718 
L 353.787862 -249.173436 
L 351.80439 -249.167155 
L 349.820919 -249.154592 
L 347.837448 -249.148311 
L 345.853977 -249.148311 
L 343.870506 -249.14203 
L 341.887035 -249.135748 
L 339.903564 -249.129467 
L 337.920093 -249.129467 
L 335.936622 -249.129467 
L 333.953151 -249.129467 
L 331.96968 -249.110623 
L 329.986209 -249.09806 
L 328.002738 -249.066653 
L 326.019267 -249.047809 
L 324.035795 -248.997559 
L 322.052324 -248.978715 
L 320.068853 -248.941026 
L 318.085382 -248.903338 
L 316.101911 -248.840525 
L 314.11844 -248.752586 
L 312.134969 -248.67721 
L 310.151498 -248.595552 
L 308.168027 -248.49505 
L 306.184556 -248.350579 
L 304.201085 -248.118169 
L 302.217614 -247.910885 
L 300.234143 -247.653349 
L 298.250671 -247.351844 
L 296.2672 -246.77396 
L 294.283729 -246.07673 
L 292.300258 -244.96493 
L 290.316787 -243.645847 
L 288.333316 -241.415966 
L 286.349845 -237.653436 
L 284.366374 -230.674854 
L 282.382903 -215.423731 
L 280.399432 -47.63625 
z
" style="stroke: #808080; stroke-opacity: 0.5"/>
    </defs>
    <g clip-path="url(#pdbb386114e)">
     <use xlink:href="#m87fcacf5df" x="0" y="295.31625" style="fill: #808080; fill-opacity: 0.5; stroke: #808080; stroke-opacity: 0.5"/>
    </g>
   </g>
   <g id="matplotlib.axis_3">
    <g id="xtick_7">
     <g id="line2d_28">
      <path d="M 280.399432 257.76 
L 280.399432 36 
" clip-path="url(#pdbb386114e)" style="fill: none; stroke-dasharray: 0.8,1.32; stroke-dashoffset: 0; stroke: #b0b0b0; stroke-opacity: 0.3; stroke-width: 0.8"/>
     </g>
     <g id="line2d_29">
      <g>
       <use xlink:href="#m3066510f45" x="280.399432" y="257.76" style="stroke: #000000; stroke-width: 0.8"/>
      </g>
     </g>
     <g id="text_17">
      <!-- 0.0 -->
      <g transform="translate(272.447869 272.358437) scale(0.1 -0.1)">
       <use xlink:href="#DejaVuSans-30"/>
       <use xlink:href="#DejaVuSans-2e" x="63.623047"/>
       <use xlink:href="#DejaVuSans-30" x="95.410156"/>
      </g>
     </g>
    </g>
    <g id="xtick_8">
     <g id="line2d_30">
      <path d="M 319.672159 257.76 
L 319.672159 36 
" clip-path="url(#pdbb386114e)" style="fill: none; stroke-dasharray: 0.8,1.32; stroke-dashoffset: 0; stroke: #b0b0b0; stroke-opacity: 0.3; stroke-width: 0.8"/>
     </g>
     <g id="line2d_31">
      <g>
       <use xlink:href="#m3066510f45" x="319.672159" y="257.76" style="stroke: #000000; stroke-width: 0.8"/>
      </g>
     </g>
     <g id="text_18">
      <!-- 0.2 -->
      <g transform="translate(311.720597 272.358437) scale(0.1 -0.1)">
       <use xlink:href="#DejaVuSans-30"/>
       <use xlink:href="#DejaVuSans-2e" x="63.623047"/>
       <use xlink:href="#DejaVuSans-32" x="95.410156"/>
      </g>
     </g>
    </g>
    <g id="xtick_9">
     <g id="line2d_32">
      <path d="M 358.944886 257.76 
L 358.944886 36 
" clip-path="url(#pdbb386114e)" style="fill: none; stroke-dasharray: 0.8,1.32; stroke-dashoffset: 0; stroke: #b0b0b0; stroke-opacity: 0.3; stroke-width: 0.8"/>
     </g>
     <g id="line2d_33">
      <g>
       <use xlink:href="#m3066510f45" x="358.944886" y="257.76" style="stroke: #000000; stroke-width: 0.8"/>
      </g>
     </g>
     <g id="text_19">
      <!-- 0.4 -->
      <g transform="translate(350.993324 272.358437) scale(0.1 -0.1)">
       <use xlink:href="#DejaVuSans-30"/>
       <use xlink:href="#DejaVuSans-2e" x="63.623047"/>
       <use xlink:href="#DejaVuSans-34" x="95.410156"/>
      </g>
     </g>
    </g>
    <g id="xtick_10">
     <g id="line2d_34">
      <path d="M 398.217614 257.76 
L 398.217614 36 
" clip-path="url(#pdbb386114e)" style="fill: none; stroke-dasharray: 0.8,1.32; stroke-dashoffset: 0; stroke: #b0b0b0; stroke-opacity: 0.3; stroke-width: 0.8"/>
     </g>
     <g id="line2d_35">
      <g>
       <use xlink:href="#m3066510f45" x="398.217614" y="257.76" style="stroke: #000000; stroke-width: 0.8"/>
      </g>
     </g>
     <g id="text_20">
      <!-- 0.6 -->
      <g transform="translate(390.266051 272.358437) scale(0.1 -0.1)">
       <use xlink:href="#DejaVuSans-30"/>
       <use xlink:href="#DejaVuSans-2e" x="63.623047"/>
       <use xlink:href="#DejaVuSans-36" x="95.410156"/>
      </g>
     </g>
    </g>
    <g id="xtick_11">
     <g id="line2d_36">
      <path d="M 437.490341 257.76 
L 437.490341 36 
" clip-path="url(#pdbb386114e)" style="fill: none; stroke-dasharray: 0.8,1.32; stroke-dashoffset: 0; stroke: #b0b0b0; stroke-opacity: 0.3; stroke-width: 0.8"/>
     </g>
     <g id="line2d_37">
      <g>
       <use xlink:href="#m3066510f45" x="437.490341" y="257.76" style="stroke: #000000; stroke-width: 0.8"/>
      </g>
     </g>
     <g id="text_21">
      <!-- 0.8 -->
      <g transform="translate(429.538778 272.358437) scale(0.1 -0.1)">
       <use xlink:href="#DejaVuSans-30"/>
       <use xlink:href="#DejaVuSans-2e" x="63.623047"/>
       <use xlink:href="#DejaVuSans-38" x="95.410156"/>
      </g>
     </g>
    </g>
    <g id="xtick_12">
     <g id="line2d_38">
      <path d="M 476.763068 257.76 
L 476.763068 36 
" clip-path="url(#pdbb386114e)" style="fill: none; stroke-dasharray: 0.8,1.32; stroke-dashoffset: 0; stroke: #b0b0b0; stroke-opacity: 0.3; stroke-width: 0.8"/>
     </g>
     <g id="line2d_39">
      <g>
       <use xlink:href="#m3066510f45" x="476.763068" y="257.76" style="stroke: #000000; stroke-width: 0.8"/>
      </g>
     </g>
     <g id="text_22">
      <!-- 1.0 -->
      <g transform="translate(468.811506 272.358437) scale(0.1 -0.1)">
       <use xlink:href="#DejaVuSans-31"/>
       <use xlink:href="#DejaVuSans-2e" x="63.623047"/>
       <use xlink:href="#DejaVuSans-30" x="95.410156"/>
      </g>
     </g>
    </g>
    <g id="text_23">
     <!-- False Positive rate -->
     <g transform="translate(333.421094 286.036562) scale(0.1 -0.1)">
      <use xlink:href="#DejaVuSans-46"/>
      <use xlink:href="#DejaVuSans-61" x="48.394531"/>
      <use xlink:href="#DejaVuSans-6c" x="109.673828"/>
      <use xlink:href="#DejaVuSans-73" x="137.457031"/>
      <use xlink:href="#DejaVuSans-65" x="189.556641"/>
      <use xlink:href="#DejaVuSans-20" x="251.080078"/>
      <use xlink:href="#DejaVuSans-50" x="282.867188"/>
      <use xlink:href="#DejaVuSans-6f" x="339.544922"/>
      <use xlink:href="#DejaVuSans-73" x="400.726562"/>
      <use xlink:href="#DejaVuSans-69" x="452.826172"/>
      <use xlink:href="#DejaVuSans-74" x="480.609375"/>
      <use xlink:href="#DejaVuSans-69" x="519.818359"/>
      <use xlink:href="#DejaVuSans-76" x="547.601562"/>
      <use xlink:href="#DejaVuSans-65" x="606.78125"/>
      <use xlink:href="#DejaVuSans-20" x="668.304688"/>
      <use xlink:href="#DejaVuSans-72" x="700.091797"/>
      <use xlink:href="#DejaVuSans-61" x="741.205078"/>
      <use xlink:href="#DejaVuSans-74" x="802.484375"/>
      <use xlink:href="#DejaVuSans-65" x="841.693359"/>
     </g>
    </g>
   </g>
   <g id="matplotlib.axis_4">
    <g id="ytick_7">
     <g id="line2d_40">
      <path d="M 270.58125 247.68 
L 486.58125 247.68 
" clip-path="url(#pdbb386114e)" style="fill: none; stroke-dasharray: 0.8,1.32; stroke-dashoffset: 0; stroke: #b0b0b0; stroke-opacity: 0.3; stroke-width: 0.8"/>
     </g>
     <g id="line2d_41">
      <g>
       <use xlink:href="#me3caa4ee12" x="270.58125" y="247.68" style="stroke: #000000; stroke-width: 0.8"/>
      </g>
     </g>
    </g>
    <g id="ytick_8">
     <g id="line2d_42">
      <path d="M 270.58125 207.36 
L 486.58125 207.36 
" clip-path="url(#pdbb386114e)" style="fill: none; stroke-dasharray: 0.8,1.32; stroke-dashoffset: 0; stroke: #b0b0b0; stroke-opacity: 0.3; stroke-width: 0.8"/>
     </g>
     <g id="line2d_43">
      <g>
       <use xlink:href="#me3caa4ee12" x="270.58125" y="207.36" style="stroke: #000000; stroke-width: 0.8"/>
      </g>
     </g>
    </g>
    <g id="ytick_9">
     <g id="line2d_44">
      <path d="M 270.58125 167.04 
L 486.58125 167.04 
" clip-path="url(#pdbb386114e)" style="fill: none; stroke-dasharray: 0.8,1.32; stroke-dashoffset: 0; stroke: #b0b0b0; stroke-opacity: 0.3; stroke-width: 0.8"/>
     </g>
     <g id="line2d_45">
      <g>
       <use xlink:href="#me3caa4ee12" x="270.58125" y="167.04" style="stroke: #000000; stroke-width: 0.8"/>
      </g>
     </g>
    </g>
    <g id="ytick_10">
     <g id="line2d_46">
      <path d="M 270.58125 126.72 
L 486.58125 126.72 
" clip-path="url(#pdbb386114e)" style="fill: none; stroke-dasharray: 0.8,1.32; stroke-dashoffset: 0; stroke: #b0b0b0; stroke-opacity: 0.3; stroke-width: 0.8"/>
     </g>
     <g id="line2d_47">
      <g>
       <use xlink:href="#me3caa4ee12" x="270.58125" y="126.72" style="stroke: #000000; stroke-width: 0.8"/>
      </g>
     </g>
    </g>
    <g id="ytick_11">
     <g id="line2d_48">
      <path d="M 270.58125 86.4 
L 486.58125 86.4 
" clip-path="url(#pdbb386114e)" style="fill: none; stroke-dasharray: 0.8,1.32; stroke-dashoffset: 0; stroke: #b0b0b0; stroke-opacity: 0.3; stroke-width: 0.8"/>
     </g>
     <g id="line2d_49">
      <g>
       <use xlink:href="#me3caa4ee12" x="270.58125" y="86.4" style="stroke: #000000; stroke-width: 0.8"/>
      </g>
     </g>
    </g>
    <g id="ytick_12">
     <g id="line2d_50">
      <path d="M 270.58125 46.08 
L 486.58125 46.08 
" clip-path="url(#pdbb386114e)" style="fill: none; stroke-dasharray: 0.8,1.32; stroke-dashoffset: 0; stroke: #b0b0b0; stroke-opacity: 0.3; stroke-width: 0.8"/>
     </g>
     <g id="line2d_51">
      <g>
       <use xlink:href="#me3caa4ee12" x="270.58125" y="46.08" style="stroke: #000000; stroke-width: 0.8"/>
      </g>
     </g>
    </g>
   </g>
   <g id="line2d_52">
    <path d="M 280.399432 247.68 
L 476.763068 46.08 
" clip-path="url(#pdbb386114e)" style="fill: none; stroke-dasharray: 5.55,2.4; stroke-dashoffset: 0; stroke: #ff0000; stroke-width: 1.5"/>
   </g>
   <g id="line2d_53">
    <path d="M 280.399432 247.68 
L 280.509778 158.227263 
L 280.521393 158.227263 
L 280.521393 158.202137 
L 280.631739 138.6106 
L 280.637547 138.585474 
L 280.747893 130.771472 
L 280.753701 130.771472 
L 280.864047 125.199913 
L 280.869854 125.199913 
L 280.869854 125.105692 
L 280.9802 116.437426 
L 280.991816 116.380894 
L 281.102162 109.201309 
L 281.107969 109.201309 
L 281.218315 104.967677 
L 281.229931 104.948833 
L 281.340277 100.627263 
L 281.3577 100.595856 
L 281.468046 96.224035 
L 281.485469 96.117252 
L 281.595815 93.171298 
L 281.613238 93.139891 
L 281.723584 90.482879 
L 281.729392 90.482879 
L 281.839738 87.957775 
L 281.851353 87.957775 
L 281.961699 85.960305 
L 281.979122 85.89121 
L 282.08366 84.214089 
L 282.101084 84.107306 
L 282.21143 82.77566 
L 282.223045 82.712846 
L 282.333391 80.533217 
L 282.350814 80.438997 
L 282.46116 79.000567 
L 282.484391 78.893784 
L 282.594737 77.348571 
L 282.61216 77.273195 
L 282.722506 75.501854 
L 282.734121 75.395071 
L 282.844467 74.490556 
L 282.867698 74.408899 
L 282.978044 73.642574 
L 282.983852 73.642574 
L 283.094198 72.5559 
L 283.105813 72.493086 
L 283.216159 71.400131 
L 283.245197 71.368724 
L 283.355543 70.589836 
L 283.396197 70.495616 
L 283.506543 69.427786 
L 283.541389 69.346129 
L 283.645928 68.504427 
L 283.680774 68.403926 
L 283.785312 67.72554 
L 283.814351 67.669008 
L 283.924697 66.7959 
L 283.971158 66.701679 
L 284.081504 66.130076 
L 284.093119 66.042137 
L 284.203465 65.583599 
L 284.238312 65.476816 
L 284.348658 64.75446 
L 284.366081 64.647677 
L 284.476427 64.170294 
L 284.49385 64.088637 
L 284.604196 63.529597 
L 284.633234 63.441658 
L 284.737772 62.863773 
L 284.772619 62.769553 
L 284.882965 62.179106 
L 284.917811 62.084885 
L 285.028157 61.463032 
L 285.051387 61.450469 
L 285.161733 61.054744 
L 285.173349 61.029618 
L 285.283695 60.533391 
L 285.335964 60.426609 
L 285.44631 60.024602 
L 285.475348 59.930382 
L 285.585694 59.603751 
L 285.626348 59.547219 
L 285.736694 59.233152 
L 285.783156 59.126369 
L 285.893502 58.824864 
L 285.916733 58.718081 
L 286.027079 58.441701 
L 286.079348 58.334918 
L 286.183886 58.002007 
L 286.189694 58.002007 
L 286.346501 57.675376 
L 286.456847 57.267088 
L 286.543963 57.160305 
L 286.636885 56.940458 
L 286.718193 56.846238 
L 286.811116 56.638953 
L 286.857577 56.551014 
L 286.962116 56.280916 
L 287.008577 56.186696 
L 287.118923 55.872628 
L 287.188616 55.772126 
L 287.298962 55.627655 
L 287.4035 55.527154 
L 287.513846 55.319869 
L 287.57773 55.225649 
L 287.682269 55.068615 
L 287.734538 54.961832 
L 287.844884 54.76711 
L 287.908768 54.67289 
L 288.019114 54.465605 
L 288.112037 54.358822 
L 288.222383 54.082443 
L 288.286268 53.97566 
L 288.396614 53.780938 
L 288.472114 53.705562 
L 288.559229 53.579935 
L 288.675383 53.473152 
L 288.785729 53.259586 
L 288.925113 53.159084 
L 289.018036 53.008332 
L 289.070305 52.90783 
L 289.180651 52.838735 
L 289.331651 52.750796 
L 289.430382 52.562356 
L 289.546536 52.455573 
L 289.651074 52.260851 
L 289.796266 52.179193 
L 289.906612 52.091254 
L 290.08665 51.984471 
L 290.196996 51.796031 
L 290.307342 51.695529 
L 290.406073 51.563621 
L 290.53965 51.456838 
L 290.649996 51.356336 
L 290.882303 51.255834 
L 290.992649 51.167895 
L 291.132034 51.061112 
L 291.201726 51.00458 
L 291.399187 50.91036 
L 291.509533 50.834984 
L 291.683764 50.728201 
L 291.788302 50.621418 
L 291.927686 50.527197 
L 292.026417 50.451821 
L 292.305186 50.35132 
L 292.415532 50.288506 
L 292.578147 50.181723 
L 292.682686 50.131472 
L 292.856916 50.024689 
L 292.926608 49.955594 
L 293.077608 49.861374 
L 293.187954 49.804842 
L 293.350569 49.710622 
L 293.460915 49.647808 
L 293.716453 49.559869 
L 293.820992 49.465649 
L 294.053299 49.358866 
L 294.15203 49.314896 
L 294.500491 49.214395 
L 294.523722 49.164144 
L 295.168375 49.057361 
L 295.278721 49.038517 
L 295.447144 48.931734 
L 295.55749 48.875202 
L 295.743335 48.768419 
L 295.842066 48.686761 
L 296.18472 48.579978 
L 296.271835 48.529727 
L 296.556411 48.422944 
L 296.637719 48.385256 
L 297.067488 48.278473 
L 297.172026 48.221941 
L 297.601795 48.115158 
L 297.636641 48.096314 
L 298.118679 47.989531 
L 298.229025 47.970687 
L 298.873678 47.863904 
L 298.949178 47.851341 
L 299.611254 47.744558 
L 299.611254 47.738277 
L 300.441753 47.631494 
L 300.52306 47.600087 
L 301.684597 47.493304 
L 301.783328 47.47446 
L 302.573173 47.367677 
L 302.671904 47.33627 
L 303.996056 47.229487 
L 304.088979 47.210643 
L 305.070478 47.10386 
L 305.093708 47.091298 
L 306.051976 46.984515 
L 306.09263 46.965671 
L 307.736205 46.858888 
L 307.805897 46.846325 
L 309.60628 46.739542 
L 309.623703 46.726979 
L 312.928275 46.620196 
L 312.928275 46.613915 
L 314.984196 46.507132 
L 315.007427 46.494569 
L 319.647767 46.387786 
L 319.647767 46.381505 
L 325.757451 46.274722 
L 325.757451 46.268441 
L 349.958075 46.161658 
L 349.958075 46.155376 
L 476.763068 46.08 
L 476.763068 46.08 
" clip-path="url(#pdbb386114e)" style="fill: none; stroke-dasharray: 5.55,2.4; stroke-dashoffset: 0; stroke: #0000ff; stroke-opacity: 0.1; stroke-width: 1.5"/>
   </g>
   <g id="line2d_54">
    <path d="M 280.399432 247.68 
L 282.382903 79.892519 
L 284.366374 64.641396 
L 286.349845 57.662814 
L 288.333316 53.900284 
L 290.316787 51.670403 
L 292.300258 50.35132 
L 294.283729 49.23952 
L 296.2672 48.54229 
L 298.250671 47.964406 
L 300.234143 47.662901 
L 302.217614 47.405365 
L 304.201085 47.198081 
L 306.184556 46.965671 
L 308.168027 46.8212 
L 310.151498 46.720698 
L 312.134969 46.63904 
L 314.11844 46.563664 
L 316.101911 46.475725 
L 318.085382 46.412912 
L 320.068853 46.375224 
L 322.052324 46.337535 
L 324.035795 46.318691 
L 326.019267 46.268441 
L 328.002738 46.249597 
L 329.986209 46.21819 
L 331.96968 46.205627 
L 333.953151 46.186783 
L 335.936622 46.186783 
L 337.920093 46.186783 
L 339.903564 46.186783 
L 341.887035 46.180502 
L 343.870506 46.17422 
L 345.853977 46.167939 
L 347.837448 46.167939 
L 349.820919 46.161658 
L 351.80439 46.149095 
L 353.787862 46.142814 
L 355.771333 46.136532 
L 357.754804 46.123969 
L 359.738275 46.117688 
L 361.721746 46.117688 
L 363.705217 46.111407 
L 365.688688 46.105125 
L 367.672159 46.105125 
L 369.65563 46.098844 
L 371.639101 46.092563 
L 373.622572 46.092563 
L 375.606043 46.092563 
L 377.589514 46.092563 
L 379.572986 46.092563 
L 381.556457 46.086281 
L 383.539928 46.086281 
L 385.523399 46.086281 
L 387.50687 46.086281 
L 389.490341 46.086281 
L 391.473812 46.086281 
L 393.457283 46.086281 
L 395.440754 46.086281 
L 397.424225 46.086281 
L 399.407696 46.086281 
L 401.391167 46.086281 
L 403.374638 46.086281 
L 405.35811 46.086281 
L 407.341581 46.086281 
L 409.325052 46.086281 
L 411.308523 46.086281 
L 413.291994 46.08 
L 415.275465 46.08 
L 417.258936 46.08 
L 419.242407 46.08 
L 421.225878 46.08 
L 423.209349 46.08 
L 425.19282 46.08 
L 427.176291 46.08 
L 429.159762 46.08 
L 431.143233 46.08 
L 433.126705 46.08 
L 435.110176 46.08 
L 437.093647 46.08 
L 439.077118 46.08 
L 441.060589 46.08 
L 443.04406 46.08 
L 445.027531 46.08 
L 447.011002 46.08 
L 448.994473 46.08 
L 450.977944 46.08 
L 452.961415 46.08 
L 454.944886 46.08 
L 456.928357 46.08 
L 458.911829 46.08 
L 460.8953 46.08 
L 462.878771 46.08 
L 464.862242 46.08 
L 466.845713 46.08 
L 468.829184 46.08 
L 470.812655 46.08 
L 472.796126 46.08 
L 474.779597 46.08 
L 476.763068 46.08 
" clip-path="url(#pdbb386114e)" style="fill: none; stroke: #0000ff; stroke-width: 1.5; stroke-linecap: square"/>
   </g>
   <g id="patch_8">
    <path d="M 270.58125 257.76 
L 270.58125 36 
" style="fill: none; stroke: #000000; stroke-width: 0.8; stroke-linejoin: miter; stroke-linecap: square"/>
   </g>
   <g id="patch_9">
    <path d="M 486.58125 257.76 
L 486.58125 36 
" style="fill: none; stroke: #000000; stroke-width: 0.8; stroke-linejoin: miter; stroke-linecap: square"/>
   </g>
   <g id="patch_10">
    <path d="M 270.58125 257.76 
L 486.58125 257.76 
" style="fill: none; stroke: #000000; stroke-width: 0.8; stroke-linejoin: miter; stroke-linecap: square"/>
   </g>
   <g id="patch_11">
    <path d="M 270.58125 36 
L 486.58125 36 
" style="fill: none; stroke: #000000; stroke-width: 0.8; stroke-linejoin: miter; stroke-linecap: square"/>
   </g>
   <g id="text_24">
    <!-- AUC: 0.993$\pm$0.000 -->
    <g transform="translate(388.399432 251.712) scale(0.1 -0.1)">
     <defs>
      <path id="DejaVuSans-33" d="M 2597 2516 
Q 3050 2419 3304 2112 
Q 3559 1806 3559 1356 
Q 3559 666 3084 287 
Q 2609 -91 1734 -91 
Q 1441 -91 1130 -33 
Q 819 25 488 141 
L 488 750 
Q 750 597 1062 519 
Q 1375 441 1716 441 
Q 2309 441 2620 675 
Q 2931 909 2931 1356 
Q 2931 1769 2642 2001 
Q 2353 2234 1838 2234 
L 1294 2234 
L 1294 2753 
L 1863 2753 
Q 2328 2753 2575 2939 
Q 2822 3125 2822 3475 
Q 2822 3834 2567 4026 
Q 2313 4219 1838 4219 
Q 1578 4219 1281 4162 
Q 984 4106 628 3988 
L 628 4550 
Q 988 4650 1302 4700 
Q 1616 4750 1894 4750 
Q 2613 4750 3031 4423 
Q 3450 4097 3450 3541 
Q 3450 3153 3228 2886 
Q 3006 2619 2597 2516 
z
" transform="scale(0.015625)"/>
     </defs>
     <use xlink:href="#DejaVuSans-41" transform="translate(0 0.78125)"/>
     <use xlink:href="#DejaVuSans-55" transform="translate(68.408203 0.78125)"/>
     <use xlink:href="#DejaVuSans-43" transform="translate(141.601562 0.78125)"/>
     <use xlink:href="#DejaVuSans-3a" transform="translate(211.425781 0.78125)"/>
     <use xlink:href="#DejaVuSans-20" transform="translate(245.117188 0.78125)"/>
     <use xlink:href="#DejaVuSans-30" transform="translate(276.904297 0.78125)"/>
     <use xlink:href="#DejaVuSans-2e" transform="translate(340.527344 0.78125)"/>
     <use xlink:href="#DejaVuSans-39" transform="translate(372.314453 0.78125)"/>
     <use xlink:href="#DejaVuSans-39" transform="translate(435.9375 0.78125)"/>
     <use xlink:href="#DejaVuSans-33" transform="translate(499.560547 0.78125)"/>
     <use xlink:href="#DejaVuSans-b1" transform="translate(563.183594 0.78125)"/>
     <use xlink:href="#DejaVuSans-30" transform="translate(646.972656 0.78125)"/>
     <use xlink:href="#DejaVuSans-2e" transform="translate(710.595703 0.78125)"/>
     <use xlink:href="#DejaVuSans-30" transform="translate(742.382812 0.78125)"/>
     <use xlink:href="#DejaVuSans-30" transform="translate(806.005859 0.78125)"/>
     <use xlink:href="#DejaVuSans-30" transform="translate(869.628906 0.78125)"/>
    </g>
   </g>
   <g id="text_25">
    <!-- Validation data -->
    <g transform="translate(333.530625 30) scale(0.12 -0.12)">
     <defs>
      <path id="DejaVuSans-56" d="M 1831 0 
L 50 4666 
L 709 4666 
L 2188 738 
L 3669 4666 
L 4325 4666 
L 2547 0 
L 1831 0 
z
" transform="scale(0.015625)"/>
     </defs>
     <use xlink:href="#DejaVuSans-56"/>
     <use xlink:href="#DejaVuSans-61" x="60.658203"/>
     <use xlink:href="#DejaVuSans-6c" x="121.9375"/>
     <use xlink:href="#DejaVuSans-69" x="149.720703"/>
     <use xlink:href="#DejaVuSans-64" x="177.503906"/>
     <use xlink:href="#DejaVuSans-61" x="240.980469"/>
     <use xlink:href="#DejaVuSans-74" x="302.259766"/>
     <use xlink:href="#DejaVuSans-69" x="341.46875"/>
     <use xlink:href="#DejaVuSans-6f" x="369.251953"/>
     <use xlink:href="#DejaVuSans-6e" x="430.433594"/>
     <use xlink:href="#DejaVuSans-20" x="493.8125"/>
     <use xlink:href="#DejaVuSans-64" x="525.599609"/>
     <use xlink:href="#DejaVuSans-61" x="589.076172"/>
     <use xlink:href="#DejaVuSans-74" x="650.355469"/>
     <use xlink:href="#DejaVuSans-61" x="689.564453"/>
    </g>
   </g>
  </g>
  <g id="axes_3">
   <g id="patch_12">
    <path d="M 497.38125 257.76 
L 713.38125 257.76 
L 713.38125 36 
L 497.38125 36 
L 497.38125 257.76 
z
" style="fill: none"/>
   </g>
   <g id="PolyCollection_3">
    <defs>
     <path id="m25589db82f" d="M 507.199432 -47.63625 
L 507.199432 -47.63625 
L 509.182903 -216.376919 
L 511.166374 -232.163207 
L 513.149845 -238.239202 
L 515.133316 -241.747963 
L 517.116787 -243.913478 
L 519.100258 -245.200233 
L 521.083729 -246.160591 
L 523.0672 -246.920091 
L 525.050671 -247.485008 
L 527.034143 -247.79885 
L 529.017614 -248.012263 
L 531.001085 -248.188015 
L 532.984556 -248.413982 
L 534.968027 -248.533242 
L 536.951498 -248.608565 
L 538.934969 -248.708994 
L 540.91844 -248.765486 
L 542.901911 -248.821978 
L 544.885382 -248.872192 
L 546.868853 -248.909854 
L 548.852324 -248.985176 
L 550.835795 -249.004006 
L 552.819267 -249.041668 
L 554.802738 -249.047944 
L 556.786209 -249.073052 
L 558.76968 -249.104436 
L 560.753151 -249.110713 
L 562.736622 -249.11699 
L 564.720093 -249.142097 
L 566.703564 -249.167205 
L 568.687035 -249.192312 
L 570.670506 -249.198589 
L 572.653977 -249.198589 
L 574.637448 -249.198589 
L 576.620919 -249.211143 
L 578.60439 -249.217419 
L 580.587862 -249.217419 
L 582.571333 -249.223696 
L 584.554804 -249.223696 
L 586.538275 -249.223696 
L 588.521746 -249.229973 
L 590.505217 -249.229973 
L 592.488688 -249.229973 
L 594.472159 -249.229973 
L 596.45563 -249.229973 
L 598.439101 -249.23625 
L 600.422572 -249.23625 
L 602.406043 -249.23625 
L 604.389514 -249.23625 
L 606.372986 -249.23625 
L 608.356457 -249.23625 
L 610.339928 -249.23625 
L 612.323399 -249.23625 
L 614.30687 -249.23625 
L 616.290341 -249.23625 
L 618.273812 -249.23625 
L 620.257283 -249.23625 
L 622.240754 -249.23625 
L 624.224225 -249.23625 
L 626.207696 -249.23625 
L 628.191167 -249.23625 
L 630.174638 -249.23625 
L 632.15811 -249.23625 
L 634.141581 -249.23625 
L 636.125052 -249.23625 
L 638.108523 -249.23625 
L 640.091994 -249.23625 
L 642.075465 -249.23625 
L 644.058936 -249.23625 
L 646.042407 -249.23625 
L 648.025878 -249.23625 
L 650.009349 -249.23625 
L 651.99282 -249.23625 
L 653.976291 -249.23625 
L 655.959762 -249.23625 
L 657.943233 -249.23625 
L 659.926705 -249.23625 
L 661.910176 -249.23625 
L 663.893647 -249.23625 
L 665.877118 -249.23625 
L 667.860589 -249.23625 
L 669.84406 -249.23625 
L 671.827531 -249.23625 
L 673.811002 -249.23625 
L 675.794473 -249.23625 
L 677.777944 -249.23625 
L 679.761415 -249.23625 
L 681.744886 -249.23625 
L 683.728357 -249.23625 
L 685.711829 -249.23625 
L 687.6953 -249.23625 
L 689.678771 -249.23625 
L 691.662242 -249.23625 
L 693.645713 -249.23625 
L 695.629184 -249.23625 
L 697.612655 -249.23625 
L 699.596126 -249.23625 
L 701.579597 -249.23625 
L 703.563068 -249.23625 
L 703.563068 -249.23625 
L 703.563068 -249.23625 
L 701.579597 -249.23625 
L 699.596126 -249.23625 
L 697.612655 -249.23625 
L 695.629184 -249.23625 
L 693.645713 -249.23625 
L 691.662242 -249.23625 
L 689.678771 -249.23625 
L 687.6953 -249.23625 
L 685.711829 -249.23625 
L 683.728357 -249.23625 
L 681.744886 -249.23625 
L 679.761415 -249.23625 
L 677.777944 -249.23625 
L 675.794473 -249.23625 
L 673.811002 -249.23625 
L 671.827531 -249.23625 
L 669.84406 -249.23625 
L 667.860589 -249.23625 
L 665.877118 -249.23625 
L 663.893647 -249.23625 
L 661.910176 -249.23625 
L 659.926705 -249.23625 
L 657.943233 -249.23625 
L 655.959762 -249.23625 
L 653.976291 -249.23625 
L 651.99282 -249.23625 
L 650.009349 -249.23625 
L 648.025878 -249.23625 
L 646.042407 -249.23625 
L 644.058936 -249.23625 
L 642.075465 -249.23625 
L 640.091994 -249.23625 
L 638.108523 -249.23625 
L 636.125052 -249.23625 
L 634.141581 -249.23625 
L 632.15811 -249.23625 
L 630.174638 -249.23625 
L 628.191167 -249.23625 
L 626.207696 -249.23625 
L 624.224225 -249.23625 
L 622.240754 -249.23625 
L 620.257283 -249.23625 
L 618.273812 -249.23625 
L 616.290341 -249.23625 
L 614.30687 -249.23625 
L 612.323399 -249.23625 
L 610.339928 -249.23625 
L 608.356457 -249.23625 
L 606.372986 -249.23625 
L 604.389514 -249.23625 
L 602.406043 -249.23625 
L 600.422572 -249.23625 
L 598.439101 -249.23625 
L 596.45563 -249.229973 
L 594.472159 -249.229973 
L 592.488688 -249.229973 
L 590.505217 -249.229973 
L 588.521746 -249.229973 
L 586.538275 -249.223696 
L 584.554804 -249.223696 
L 582.571333 -249.223696 
L 580.587862 -249.217419 
L 578.60439 -249.217419 
L 576.620919 -249.211143 
L 574.637448 -249.198589 
L 572.653977 -249.198589 
L 570.670506 -249.198589 
L 568.687035 -249.192312 
L 566.703564 -249.167205 
L 564.720093 -249.142097 
L 562.736622 -249.11699 
L 560.753151 -249.110713 
L 558.76968 -249.104436 
L 556.786209 -249.073052 
L 554.802738 -249.047944 
L 552.819267 -249.041668 
L 550.835795 -249.004006 
L 548.852324 -248.985176 
L 546.868853 -248.909854 
L 544.885382 -248.872192 
L 542.901911 -248.821978 
L 540.91844 -248.765486 
L 538.934969 -248.708994 
L 536.951498 -248.608565 
L 534.968027 -248.533242 
L 532.984556 -248.413982 
L 531.001085 -248.188015 
L 529.017614 -248.012263 
L 527.034143 -247.79885 
L 525.050671 -247.485008 
L 523.0672 -246.920091 
L 521.083729 -246.160591 
L 519.100258 -245.200233 
L 517.116787 -243.913478 
L 515.133316 -241.747963 
L 513.149845 -238.239202 
L 511.166374 -232.163207 
L 509.182903 -216.376919 
L 507.199432 -47.63625 
z
" style="stroke: #808080; stroke-opacity: 0.5"/>
    </defs>
    <g clip-path="url(#pbf4558be7b)">
     <use xlink:href="#m25589db82f" x="0" y="295.31625" style="fill: #808080; fill-opacity: 0.5; stroke: #808080; stroke-opacity: 0.5"/>
    </g>
   </g>
   <g id="matplotlib.axis_5">
    <g id="xtick_13">
     <g id="line2d_55">
      <path d="M 507.199432 257.76 
L 507.199432 36 
" clip-path="url(#pbf4558be7b)" style="fill: none; stroke-dasharray: 0.8,1.32; stroke-dashoffset: 0; stroke: #b0b0b0; stroke-opacity: 0.3; stroke-width: 0.8"/>
     </g>
     <g id="line2d_56">
      <g>
       <use xlink:href="#m3066510f45" x="507.199432" y="257.76" style="stroke: #000000; stroke-width: 0.8"/>
      </g>
     </g>
     <g id="text_26">
      <!-- 0.0 -->
      <g transform="translate(499.247869 272.358437) scale(0.1 -0.1)">
       <use xlink:href="#DejaVuSans-30"/>
       <use xlink:href="#DejaVuSans-2e" x="63.623047"/>
       <use xlink:href="#DejaVuSans-30" x="95.410156"/>
      </g>
     </g>
    </g>
    <g id="xtick_14">
     <g id="line2d_57">
      <path d="M 546.472159 257.76 
L 546.472159 36 
" clip-path="url(#pbf4558be7b)" style="fill: none; stroke-dasharray: 0.8,1.32; stroke-dashoffset: 0; stroke: #b0b0b0; stroke-opacity: 0.3; stroke-width: 0.8"/>
     </g>
     <g id="line2d_58">
      <g>
       <use xlink:href="#m3066510f45" x="546.472159" y="257.76" style="stroke: #000000; stroke-width: 0.8"/>
      </g>
     </g>
     <g id="text_27">
      <!-- 0.2 -->
      <g transform="translate(538.520597 272.358437) scale(0.1 -0.1)">
       <use xlink:href="#DejaVuSans-30"/>
       <use xlink:href="#DejaVuSans-2e" x="63.623047"/>
       <use xlink:href="#DejaVuSans-32" x="95.410156"/>
      </g>
     </g>
    </g>
    <g id="xtick_15">
     <g id="line2d_59">
      <path d="M 585.744886 257.76 
L 585.744886 36 
" clip-path="url(#pbf4558be7b)" style="fill: none; stroke-dasharray: 0.8,1.32; stroke-dashoffset: 0; stroke: #b0b0b0; stroke-opacity: 0.3; stroke-width: 0.8"/>
     </g>
     <g id="line2d_60">
      <g>
       <use xlink:href="#m3066510f45" x="585.744886" y="257.76" style="stroke: #000000; stroke-width: 0.8"/>
      </g>
     </g>
     <g id="text_28">
      <!-- 0.4 -->
      <g transform="translate(577.793324 272.358437) scale(0.1 -0.1)">
       <use xlink:href="#DejaVuSans-30"/>
       <use xlink:href="#DejaVuSans-2e" x="63.623047"/>
       <use xlink:href="#DejaVuSans-34" x="95.410156"/>
      </g>
     </g>
    </g>
    <g id="xtick_16">
     <g id="line2d_61">
      <path d="M 625.017614 257.76 
L 625.017614 36 
" clip-path="url(#pbf4558be7b)" style="fill: none; stroke-dasharray: 0.8,1.32; stroke-dashoffset: 0; stroke: #b0b0b0; stroke-opacity: 0.3; stroke-width: 0.8"/>
     </g>
     <g id="line2d_62">
      <g>
       <use xlink:href="#m3066510f45" x="625.017614" y="257.76" style="stroke: #000000; stroke-width: 0.8"/>
      </g>
     </g>
     <g id="text_29">
      <!-- 0.6 -->
      <g transform="translate(617.066051 272.358437) scale(0.1 -0.1)">
       <use xlink:href="#DejaVuSans-30"/>
       <use xlink:href="#DejaVuSans-2e" x="63.623047"/>
       <use xlink:href="#DejaVuSans-36" x="95.410156"/>
      </g>
     </g>
    </g>
    <g id="xtick_17">
     <g id="line2d_63">
      <path d="M 664.290341 257.76 
L 664.290341 36 
" clip-path="url(#pbf4558be7b)" style="fill: none; stroke-dasharray: 0.8,1.32; stroke-dashoffset: 0; stroke: #b0b0b0; stroke-opacity: 0.3; stroke-width: 0.8"/>
     </g>
     <g id="line2d_64">
      <g>
       <use xlink:href="#m3066510f45" x="664.290341" y="257.76" style="stroke: #000000; stroke-width: 0.8"/>
      </g>
     </g>
     <g id="text_30">
      <!-- 0.8 -->
      <g transform="translate(656.338778 272.358437) scale(0.1 -0.1)">
       <use xlink:href="#DejaVuSans-30"/>
       <use xlink:href="#DejaVuSans-2e" x="63.623047"/>
       <use xlink:href="#DejaVuSans-38" x="95.410156"/>
      </g>
     </g>
    </g>
    <g id="xtick_18">
     <g id="line2d_65">
      <path d="M 703.563068 257.76 
L 703.563068 36 
" clip-path="url(#pbf4558be7b)" style="fill: none; stroke-dasharray: 0.8,1.32; stroke-dashoffset: 0; stroke: #b0b0b0; stroke-opacity: 0.3; stroke-width: 0.8"/>
     </g>
     <g id="line2d_66">
      <g>
       <use xlink:href="#m3066510f45" x="703.563068" y="257.76" style="stroke: #000000; stroke-width: 0.8"/>
      </g>
     </g>
     <g id="text_31">
      <!-- 1.0 -->
      <g transform="translate(695.611506 272.358437) scale(0.1 -0.1)">
       <use xlink:href="#DejaVuSans-31"/>
       <use xlink:href="#DejaVuSans-2e" x="63.623047"/>
       <use xlink:href="#DejaVuSans-30" x="95.410156"/>
      </g>
     </g>
    </g>
    <g id="text_32">
     <!-- False Positive rate -->
     <g transform="translate(560.221094 286.036562) scale(0.1 -0.1)">
      <use xlink:href="#DejaVuSans-46"/>
      <use xlink:href="#DejaVuSans-61" x="48.394531"/>
      <use xlink:href="#DejaVuSans-6c" x="109.673828"/>
      <use xlink:href="#DejaVuSans-73" x="137.457031"/>
      <use xlink:href="#DejaVuSans-65" x="189.556641"/>
      <use xlink:href="#DejaVuSans-20" x="251.080078"/>
      <use xlink:href="#DejaVuSans-50" x="282.867188"/>
      <use xlink:href="#DejaVuSans-6f" x="339.544922"/>
      <use xlink:href="#DejaVuSans-73" x="400.726562"/>
      <use xlink:href="#DejaVuSans-69" x="452.826172"/>
      <use xlink:href="#DejaVuSans-74" x="480.609375"/>
      <use xlink:href="#DejaVuSans-69" x="519.818359"/>
      <use xlink:href="#DejaVuSans-76" x="547.601562"/>
      <use xlink:href="#DejaVuSans-65" x="606.78125"/>
      <use xlink:href="#DejaVuSans-20" x="668.304688"/>
      <use xlink:href="#DejaVuSans-72" x="700.091797"/>
      <use xlink:href="#DejaVuSans-61" x="741.205078"/>
      <use xlink:href="#DejaVuSans-74" x="802.484375"/>
      <use xlink:href="#DejaVuSans-65" x="841.693359"/>
     </g>
    </g>
   </g>
   <g id="matplotlib.axis_6">
    <g id="ytick_13">
     <g id="line2d_67">
      <path d="M 497.38125 247.68 
L 713.38125 247.68 
" clip-path="url(#pbf4558be7b)" style="fill: none; stroke-dasharray: 0.8,1.32; stroke-dashoffset: 0; stroke: #b0b0b0; stroke-opacity: 0.3; stroke-width: 0.8"/>
     </g>
     <g id="line2d_68">
      <g>
       <use xlink:href="#me3caa4ee12" x="497.38125" y="247.68" style="stroke: #000000; stroke-width: 0.8"/>
      </g>
     </g>
    </g>
    <g id="ytick_14">
     <g id="line2d_69">
      <path d="M 497.38125 207.36 
L 713.38125 207.36 
" clip-path="url(#pbf4558be7b)" style="fill: none; stroke-dasharray: 0.8,1.32; stroke-dashoffset: 0; stroke: #b0b0b0; stroke-opacity: 0.3; stroke-width: 0.8"/>
     </g>
     <g id="line2d_70">
      <g>
       <use xlink:href="#me3caa4ee12" x="497.38125" y="207.36" style="stroke: #000000; stroke-width: 0.8"/>
      </g>
     </g>
    </g>
    <g id="ytick_15">
     <g id="line2d_71">
      <path d="M 497.38125 167.04 
L 713.38125 167.04 
" clip-path="url(#pbf4558be7b)" style="fill: none; stroke-dasharray: 0.8,1.32; stroke-dashoffset: 0; stroke: #b0b0b0; stroke-opacity: 0.3; stroke-width: 0.8"/>
     </g>
     <g id="line2d_72">
      <g>
       <use xlink:href="#me3caa4ee12" x="497.38125" y="167.04" style="stroke: #000000; stroke-width: 0.8"/>
      </g>
     </g>
    </g>
    <g id="ytick_16">
     <g id="line2d_73">
      <path d="M 497.38125 126.72 
L 713.38125 126.72 
" clip-path="url(#pbf4558be7b)" style="fill: none; stroke-dasharray: 0.8,1.32; stroke-dashoffset: 0; stroke: #b0b0b0; stroke-opacity: 0.3; stroke-width: 0.8"/>
     </g>
     <g id="line2d_74">
      <g>
       <use xlink:href="#me3caa4ee12" x="497.38125" y="126.72" style="stroke: #000000; stroke-width: 0.8"/>
      </g>
     </g>
    </g>
    <g id="ytick_17">
     <g id="line2d_75">
      <path d="M 497.38125 86.4 
L 713.38125 86.4 
" clip-path="url(#pbf4558be7b)" style="fill: none; stroke-dasharray: 0.8,1.32; stroke-dashoffset: 0; stroke: #b0b0b0; stroke-opacity: 0.3; stroke-width: 0.8"/>
     </g>
     <g id="line2d_76">
      <g>
       <use xlink:href="#me3caa4ee12" x="497.38125" y="86.4" style="stroke: #000000; stroke-width: 0.8"/>
      </g>
     </g>
    </g>
    <g id="ytick_18">
     <g id="line2d_77">
      <path d="M 497.38125 46.08 
L 713.38125 46.08 
" clip-path="url(#pbf4558be7b)" style="fill: none; stroke-dasharray: 0.8,1.32; stroke-dashoffset: 0; stroke: #b0b0b0; stroke-opacity: 0.3; stroke-width: 0.8"/>
     </g>
     <g id="line2d_78">
      <g>
       <use xlink:href="#me3caa4ee12" x="497.38125" y="46.08" style="stroke: #000000; stroke-width: 0.8"/>
      </g>
     </g>
    </g>
   </g>
   <g id="line2d_79">
    <path d="M 507.199432 247.68 
L 703.563068 46.08 
" clip-path="url(#pbf4558be7b)" style="fill: none; stroke-dasharray: 5.55,2.4; stroke-dashoffset: 0; stroke: #ff0000; stroke-width: 1.5"/>
   </g>
   <g id="line2d_80">
    <path d="M 507.199432 247.68 
L 507.30985 157.211702 
L 507.321473 157.199148 
L 507.43189 143.62859 
L 507.437702 143.62859 
L 507.54812 132.951661 
L 507.553931 132.951661 
L 507.664349 122.475591 
L 507.675972 122.387715 
L 507.78639 116.606733 
L 507.792201 116.606733 
L 507.902619 107.467633 
L 507.908431 107.467633 
L 508.018849 103.701521 
L 508.036283 103.594814 
L 508.146701 101.987939 
L 508.158324 101.956555 
L 508.268742 98.705145 
L 508.274553 98.705145 
L 508.384971 95.623209 
L 508.390782 95.623209 
L 508.5012 93.012038 
L 508.518635 92.94927 
L 508.629053 89.961487 
L 508.646487 89.85478 
L 508.756905 86.477833 
L 508.762716 86.477833 
L 508.873134 84.193058 
L 508.884757 84.14912 
L 508.995175 82.422985 
L 509.012609 82.341386 
L 509.123027 80.860049 
L 509.128839 80.860049 
L 509.239257 78.073125 
L 509.262502 77.966419 
L 509.37292 76.378375 
L 509.384543 76.340714 
L 509.494961 74.997467 
L 509.512395 74.897037 
L 509.622813 73.43453 
L 509.646059 73.334101 
L 509.756477 72.022238 
L 509.785534 71.915531 
L 509.895952 70.892404 
L 509.919198 70.804528 
L 510.029616 70.114074 
L 510.041239 70.051306 
L 510.151657 69.279253 
L 510.169091 69.178823 
L 510.279509 68.664121 
L 510.302755 68.576245 
L 510.413173 67.917175 
L 510.430607 67.835576 
L 510.541025 67.276936 
L 510.552648 67.176507 
L 510.663066 66.247532 
L 510.674689 66.191041 
L 510.785107 65.180467 
L 510.808352 65.130252 
L 510.91877 64.358199 
L 510.942016 64.295431 
L 511.052434 63.517101 
L 511.081491 63.448055 
L 511.191909 62.93963 
L 511.203532 62.927076 
L 511.31395 62.368436 
L 511.331384 62.268007 
L 511.441802 61.58383 
L 511.482483 61.495954 
L 511.5929 61.050297 
L 511.621958 60.981252 
L 511.732376 60.636025 
L 511.74981 60.58581 
L 511.854416 60.315905 
L 511.900908 60.215475 
L 512.011326 59.958124 
L 512.034572 59.851418 
L 512.14499 59.606621 
L 512.191481 59.531298 
L 512.296088 59.198625 
L 512.348391 59.123303 
L 512.458809 58.639985 
L 512.516924 58.539555 
L 512.62153 58.282204 
L 512.668022 58.213159 
L 512.772628 57.980915 
L 512.813308 57.874209 
L 512.923726 57.45366 
L 512.958595 57.359507 
L 513.069013 57.146094 
L 513.185242 57.039387 
L 513.29566 56.719268 
L 513.330529 56.631392 
L 513.435135 56.33638 
L 513.504873 56.23595 
L 513.603668 56.035091 
L 513.655971 55.928384 
L 513.760577 55.708694 
L 513.801258 55.627095 
L 513.911675 55.407405 
L 513.987225 55.325806 
L 514.091831 55.081009 
L 514.149946 54.980579 
L 514.260363 54.685567 
L 514.347535 54.585137 
L 514.44633 54.453323 
L 514.614863 54.346617 
L 514.719469 54.133204 
L 514.829887 54.039051 
L 514.922871 53.825638 
L 515.0391 53.750316 
L 515.143706 53.524349 
L 515.259936 53.430196 
L 515.364542 53.260721 
L 515.411034 53.166568 
L 515.521452 52.946878 
L 515.614435 52.846449 
L 515.724853 52.695804 
L 515.881763 52.589098 
L 515.99218 52.451007 
L 516.102598 52.350577 
L 516.201393 52.287809 
L 516.306 52.181102 
L 516.398983 52.074396 
L 516.486155 51.967689 
L 516.590761 51.88609 
L 516.718614 51.791937 
L 516.829032 51.710338 
L 516.939449 51.628739 
L 517.044056 51.421603 
L 517.253269 51.314896 
L 517.363686 51.195636 
L 517.468293 51.08893 
L 517.567088 51.013607 
L 517.741432 50.919455 
L 517.846038 50.781364 
L 518.066874 50.674657 
L 518.159857 50.605612 
L 518.456242 50.498905 
L 518.560849 50.442414 
L 518.787496 50.335707 
L 518.892102 50.272939 
L 519.054823 50.172509 
L 519.136184 50.072079 
L 519.357019 49.965373 
L 519.467437 49.89005 
L 519.734765 49.783344 
L 519.839371 49.733129 
L 520.124133 49.626423 
L 520.234551 49.544823 
L 520.496067 49.438117 
L 520.54837 49.394179 
L 520.891247 49.287472 
L 520.995853 49.199596 
L 521.199254 49.105444 
L 521.280615 49.055229 
L 521.524696 48.948522 
L 521.635114 48.929692 
L 521.838516 48.829262 
L 521.943122 48.779047 
L 522.216261 48.672341 
L 522.256941 48.65351 
L 522.588195 48.546804 
L 522.698613 48.521696 
L 523.041489 48.41499 
L 523.117038 48.364775 
L 523.44248 48.258068 
L 523.535464 48.232961 
L 523.826037 48.126254 
L 523.930643 48.107424 
L 524.320012 48.000717 
L 524.43043 47.963056 
L 525.029011 47.85635 
L 525.139428 47.824965 
L 526.034394 47.718259 
L 526.139001 47.686875 
L 526.743393 47.580168 
L 526.836377 47.548784 
L 527.655793 47.442077 
L 527.731342 47.423247 
L 528.87039 47.31654 
L 528.928504 47.303987 
L 530.358125 47.19728 
L 530.433674 47.159619 
L 531.584345 47.052912 
L 531.654082 47.027805 
L 532.787318 46.921098 
L 532.804753 46.908545 
L 534.472643 46.801838 
L 534.472643 46.795561 
L 537.326073 46.688855 
L 537.331885 46.670024 
L 540.725781 46.563318 
L 540.743216 46.550764 
L 545.136684 46.444058 
L 545.136684 46.437781 
L 550.169414 46.331074 
L 550.169414 46.324797 
L 558.084631 46.218091 
L 558.084631 46.211814 
L 578.05283 46.105107 
L 578.05283 46.098831 
L 703.563068 46.08 
L 703.563068 46.08 
" clip-path="url(#pbf4558be7b)" style="fill: none; stroke-dasharray: 5.55,2.4; stroke-dashoffset: 0; stroke: #0000ff; stroke-opacity: 0.1; stroke-width: 1.5"/>
   </g>
   <g id="line2d_81">
    <path d="M 507.199432 247.68 
L 509.182903 78.939331 
L 511.166374 63.153043 
L 513.149845 57.077048 
L 515.133316 53.568287 
L 517.116787 51.402772 
L 519.100258 50.116017 
L 521.083729 49.155659 
L 523.0672 48.396159 
L 525.050671 47.831242 
L 527.034143 47.5174 
L 529.017614 47.303987 
L 531.001085 47.128235 
L 532.984556 46.902268 
L 534.968027 46.783008 
L 536.951498 46.707685 
L 538.934969 46.607256 
L 540.91844 46.550764 
L 542.901911 46.494272 
L 544.885382 46.444058 
L 546.868853 46.406396 
L 548.852324 46.331074 
L 550.835795 46.312244 
L 552.819267 46.274582 
L 554.802738 46.268306 
L 556.786209 46.243198 
L 558.76968 46.211814 
L 560.753151 46.205537 
L 562.736622 46.19926 
L 564.720093 46.174153 
L 566.703564 46.149045 
L 568.687035 46.123938 
L 570.670506 46.117661 
L 572.653977 46.117661 
L 574.637448 46.117661 
L 576.620919 46.105107 
L 578.60439 46.098831 
L 580.587862 46.098831 
L 582.571333 46.092554 
L 584.554804 46.092554 
L 586.538275 46.092554 
L 588.521746 46.086277 
L 590.505217 46.086277 
L 592.488688 46.086277 
L 594.472159 46.086277 
L 596.45563 46.086277 
L 598.439101 46.08 
L 600.422572 46.08 
L 602.406043 46.08 
L 604.389514 46.08 
L 606.372986 46.08 
L 608.356457 46.08 
L 610.339928 46.08 
L 612.323399 46.08 
L 614.30687 46.08 
L 616.290341 46.08 
L 618.273812 46.08 
L 620.257283 46.08 
L 622.240754 46.08 
L 624.224225 46.08 
L 626.207696 46.08 
L 628.191167 46.08 
L 630.174638 46.08 
L 632.15811 46.08 
L 634.141581 46.08 
L 636.125052 46.08 
L 638.108523 46.08 
L 640.091994 46.08 
L 642.075465 46.08 
L 644.058936 46.08 
L 646.042407 46.08 
L 648.025878 46.08 
L 650.009349 46.08 
L 651.99282 46.08 
L 653.976291 46.08 
L 655.959762 46.08 
L 657.943233 46.08 
L 659.926705 46.08 
L 661.910176 46.08 
L 663.893647 46.08 
L 665.877118 46.08 
L 667.860589 46.08 
L 669.84406 46.08 
L 671.827531 46.08 
L 673.811002 46.08 
L 675.794473 46.08 
L 677.777944 46.08 
L 679.761415 46.08 
L 681.744886 46.08 
L 683.728357 46.08 
L 685.711829 46.08 
L 687.6953 46.08 
L 689.678771 46.08 
L 691.662242 46.08 
L 693.645713 46.08 
L 695.629184 46.08 
L 697.612655 46.08 
L 699.596126 46.08 
L 701.579597 46.08 
L 703.563068 46.08 
" clip-path="url(#pbf4558be7b)" style="fill: none; stroke: #0000ff; stroke-width: 1.5; stroke-linecap: square"/>
   </g>
   <g id="line2d_82">
    <path d="M 507.199432 247.68 
L 703.563068 46.08 
" clip-path="url(#pbf4558be7b)" style="fill: none; stroke-dasharray: 5.55,2.4; stroke-dashoffset: 0; stroke: #ff0000; stroke-width: 1.5"/>
   </g>
   <g id="patch_13">
    <path d="M 497.38125 257.76 
L 497.38125 36 
" style="fill: none; stroke: #000000; stroke-width: 0.8; stroke-linejoin: miter; stroke-linecap: square"/>
   </g>
   <g id="patch_14">
    <path d="M 713.38125 257.76 
L 713.38125 36 
" style="fill: none; stroke: #000000; stroke-width: 0.8; stroke-linejoin: miter; stroke-linecap: square"/>
   </g>
   <g id="patch_15">
    <path d="M 497.38125 257.76 
L 713.38125 257.76 
" style="fill: none; stroke: #000000; stroke-width: 0.8; stroke-linejoin: miter; stroke-linecap: square"/>
   </g>
   <g id="patch_16">
    <path d="M 497.38125 36 
L 713.38125 36 
" style="fill: none; stroke: #000000; stroke-width: 0.8; stroke-linejoin: miter; stroke-linecap: square"/>
   </g>
   <g id="text_33">
    <!-- AUC: 0.993$\pm$0.000 -->
    <g transform="translate(522.908523 251.712) scale(0.1 -0.1)">
     <use xlink:href="#DejaVuSans-41" transform="translate(0 0.78125)"/>
     <use xlink:href="#DejaVuSans-55" transform="translate(68.408203 0.78125)"/>
     <use xlink:href="#DejaVuSans-43" transform="translate(141.601562 0.78125)"/>
     <use xlink:href="#DejaVuSans-3a" transform="translate(211.425781 0.78125)"/>
     <use xlink:href="#DejaVuSans-20" transform="translate(245.117188 0.78125)"/>
     <use xlink:href="#DejaVuSans-30" transform="translate(276.904297 0.78125)"/>
     <use xlink:href="#DejaVuSans-2e" transform="translate(340.527344 0.78125)"/>
     <use xlink:href="#DejaVuSans-39" transform="translate(372.314453 0.78125)"/>
     <use xlink:href="#DejaVuSans-39" transform="translate(435.9375 0.78125)"/>
     <use xlink:href="#DejaVuSans-33" transform="translate(499.560547 0.78125)"/>
     <use xlink:href="#DejaVuSans-b1" transform="translate(563.183594 0.78125)"/>
     <use xlink:href="#DejaVuSans-30" transform="translate(646.972656 0.78125)"/>
     <use xlink:href="#DejaVuSans-2e" transform="translate(710.595703 0.78125)"/>
     <use xlink:href="#DejaVuSans-30" transform="translate(742.382812 0.78125)"/>
     <use xlink:href="#DejaVuSans-30" transform="translate(806.005859 0.78125)"/>
     <use xlink:href="#DejaVuSans-30" transform="translate(869.628906 0.78125)"/>
    </g>
   </g>
   <g id="text_34">
    <!-- Test data -->
    <g transform="translate(578.145 30) scale(0.12 -0.12)">
     <use xlink:href="#DejaVuSans-54"/>
     <use xlink:href="#DejaVuSans-65" x="44.083984"/>
     <use xlink:href="#DejaVuSans-73" x="105.607422"/>
     <use xlink:href="#DejaVuSans-74" x="157.707031"/>
     <use xlink:href="#DejaVuSans-20" x="196.916016"/>
     <use xlink:href="#DejaVuSans-64" x="228.703125"/>
     <use xlink:href="#DejaVuSans-61" x="292.179688"/>
     <use xlink:href="#DejaVuSans-74" x="353.458984"/>
     <use xlink:href="#DejaVuSans-61" x="392.667969"/>
    </g>
   </g>
   <g id="legend_1">
    <g id="patch_17">
     <path d="M 622.153125 252.76 
L 706.38125 252.76 
Q 708.38125 252.76 708.38125 250.76 
L 708.38125 196.527812 
Q 708.38125 194.527812 706.38125 194.527812 
L 622.153125 194.527812 
Q 620.153125 194.527812 620.153125 196.527812 
L 620.153125 250.76 
Q 620.153125 252.76 622.153125 252.76 
z
" style="fill: #ffffff; opacity: 0.8; stroke: #cccccc; stroke-linejoin: miter"/>
    </g>
    <g id="line2d_83">
     <path d="M 624.153125 202.62625 
L 634.153125 202.62625 
L 644.153125 202.62625 
" style="fill: none; stroke: #0000ff; stroke-width: 1.5; stroke-linecap: square"/>
    </g>
    <g id="text_35">
     <!-- Mean ROC -->
     <g transform="translate(652.153125 206.12625) scale(0.1 -0.1)">
      <defs>
       <path id="DejaVuSans-4d" d="M 628 4666 
L 1569 4666 
L 2759 1491 
L 3956 4666 
L 4897 4666 
L 4897 0 
L 4281 0 
L 4281 4097 
L 3078 897 
L 2444 897 
L 1241 4097 
L 1241 0 
L 628 0 
L 628 4666 
z
" transform="scale(0.015625)"/>
       <path id="DejaVuSans-52" d="M 2841 2188 
Q 3044 2119 3236 1894 
Q 3428 1669 3622 1275 
L 4263 0 
L 3584 0 
L 2988 1197 
Q 2756 1666 2539 1819 
Q 2322 1972 1947 1972 
L 1259 1972 
L 1259 0 
L 628 0 
L 628 4666 
L 2053 4666 
Q 2853 4666 3247 4331 
Q 3641 3997 3641 3322 
Q 3641 2881 3436 2590 
Q 3231 2300 2841 2188 
z
M 1259 4147 
L 1259 2491 
L 2053 2491 
Q 2509 2491 2742 2702 
Q 2975 2913 2975 3322 
Q 2975 3731 2742 3939 
Q 2509 4147 2053 4147 
L 1259 4147 
z
" transform="scale(0.015625)"/>
       <path id="DejaVuSans-4f" d="M 2522 4238 
Q 1834 4238 1429 3725 
Q 1025 3213 1025 2328 
Q 1025 1447 1429 934 
Q 1834 422 2522 422 
Q 3209 422 3611 934 
Q 4013 1447 4013 2328 
Q 4013 3213 3611 3725 
Q 3209 4238 2522 4238 
z
M 2522 4750 
Q 3503 4750 4090 4092 
Q 4678 3434 4678 2328 
Q 4678 1225 4090 567 
Q 3503 -91 2522 -91 
Q 1538 -91 948 565 
Q 359 1222 359 2328 
Q 359 3434 948 4092 
Q 1538 4750 2522 4750 
z
" transform="scale(0.015625)"/>
      </defs>
      <use xlink:href="#DejaVuSans-4d"/>
      <use xlink:href="#DejaVuSans-65" x="86.279297"/>
      <use xlink:href="#DejaVuSans-61" x="147.802734"/>
      <use xlink:href="#DejaVuSans-6e" x="209.082031"/>
      <use xlink:href="#DejaVuSans-20" x="272.460938"/>
      <use xlink:href="#DejaVuSans-52" x="304.248047"/>
      <use xlink:href="#DejaVuSans-4f" x="373.730469"/>
      <use xlink:href="#DejaVuSans-43" x="452.441406"/>
     </g>
    </g>
    <g id="patch_18">
     <path d="M 624.153125 220.804375 
L 644.153125 220.804375 
L 644.153125 213.804375 
L 624.153125 213.804375 
z
" style="fill: #808080; fill-opacity: 0.5; stroke: #808080; stroke-opacity: 0.5; stroke-linejoin: miter"/>
    </g>
    <g id="text_36">
     <!-- $\pm 1 \sigma$ -->
     <g transform="translate(652.153125 220.804375) scale(0.1 -0.1)">
      <defs>
       <path id="DejaVuSans-Oblique-3c3" d="M 2219 3044 
Q 1744 3044 1422 2700 
Q 1081 2341 969 1747 
Q 844 1119 1044 756 
Q 1241 397 1706 397 
Q 2166 397 2503 759 
Q 2844 1122 2966 1747 
Q 3075 2319 2881 2700 
Q 2700 3044 2219 3044 
z
M 2309 3503 
L 4219 3500 
L 4106 2925 
L 3463 2925 
Q 3706 2438 3575 1747 
Q 3406 888 2884 400 
Q 2359 -91 1609 -91 
Q 856 -91 525 400 
Q 194 888 363 1747 
Q 528 2609 1050 3097 
Q 1484 3503 2309 3503 
z
" transform="scale(0.015625)"/>
      </defs>
      <use xlink:href="#DejaVuSans-b1" transform="translate(0 0.09375)"/>
      <use xlink:href="#DejaVuSans-31" transform="translate(83.789062 0.09375)"/>
      <use xlink:href="#DejaVuSans-Oblique-3c3" transform="translate(147.412109 0.09375)"/>
     </g>
    </g>
    <g id="line2d_84">
     <path d="M 624.153125 238.62125 
L 634.153125 238.62125 
L 644.153125 238.62125 
" style="fill: none; stroke-dasharray: 5.55,2.4; stroke-dashoffset: 0; stroke: #ff0000; stroke-width: 1.5"/>
    </g>
    <g id="text_37">
     <!-- Random -->
     <g transform="translate(652.153125 235.4825) scale(0.1 -0.1)">
      <defs>
       <path id="DejaVuSans-6d" d="M 3328 2828 
Q 3544 3216 3844 3400 
Q 4144 3584 4550 3584 
Q 5097 3584 5394 3201 
Q 5691 2819 5691 2113 
L 5691 0 
L 5113 0 
L 5113 2094 
Q 5113 2597 4934 2840 
Q 4756 3084 4391 3084 
Q 3944 3084 3684 2787 
Q 3425 2491 3425 1978 
L 3425 0 
L 2847 0 
L 2847 2094 
Q 2847 2600 2669 2842 
Q 2491 3084 2119 3084 
Q 1678 3084 1418 2786 
Q 1159 2488 1159 1978 
L 1159 0 
L 581 0 
L 581 3500 
L 1159 3500 
L 1159 2956 
Q 1356 3278 1631 3431 
Q 1906 3584 2284 3584 
Q 2666 3584 2933 3390 
Q 3200 3197 3328 2828 
z
" transform="scale(0.015625)"/>
      </defs>
      <use xlink:href="#DejaVuSans-52"/>
      <use xlink:href="#DejaVuSans-61" x="67.232422"/>
      <use xlink:href="#DejaVuSans-6e" x="128.511719"/>
      <use xlink:href="#DejaVuSans-64" x="191.890625"/>
      <use xlink:href="#DejaVuSans-6f" x="255.367188"/>
      <use xlink:href="#DejaVuSans-6d" x="316.548828"/>
     </g>
     <!-- classifier -->
     <g transform="translate(652.153125 246.680312) scale(0.1 -0.1)">
      <defs>
       <path id="DejaVuSans-63" d="M 3122 3366 
L 3122 2828 
Q 2878 2963 2633 3030 
Q 2388 3097 2138 3097 
Q 1578 3097 1268 2742 
Q 959 2388 959 1747 
Q 959 1106 1268 751 
Q 1578 397 2138 397 
Q 2388 397 2633 464 
Q 2878 531 3122 666 
L 3122 134 
Q 2881 22 2623 -34 
Q 2366 -91 2075 -91 
Q 1284 -91 818 406 
Q 353 903 353 1747 
Q 353 2603 823 3093 
Q 1294 3584 2113 3584 
Q 2378 3584 2631 3529 
Q 2884 3475 3122 3366 
z
" transform="scale(0.015625)"/>
       <path id="DejaVuSans-66" d="M 2375 4863 
L 2375 4384 
L 1825 4384 
Q 1516 4384 1395 4259 
Q 1275 4134 1275 3809 
L 1275 3500 
L 2222 3500 
L 2222 3053 
L 1275 3053 
L 1275 0 
L 697 0 
L 697 3053 
L 147 3053 
L 147 3500 
L 697 3500 
L 697 3744 
Q 697 4328 969 4595 
Q 1241 4863 1831 4863 
L 2375 4863 
z
" transform="scale(0.015625)"/>
      </defs>
      <use xlink:href="#DejaVuSans-63"/>
      <use xlink:href="#DejaVuSans-6c" x="54.980469"/>
      <use xlink:href="#DejaVuSans-61" x="82.763672"/>
      <use xlink:href="#DejaVuSans-73" x="144.042969"/>
      <use xlink:href="#DejaVuSans-73" x="196.142578"/>
      <use xlink:href="#DejaVuSans-69" x="248.242188"/>
      <use xlink:href="#DejaVuSans-66" x="276.025391"/>
      <use xlink:href="#DejaVuSans-69" x="311.230469"/>
      <use xlink:href="#DejaVuSans-65" x="339.013672"/>
      <use xlink:href="#DejaVuSans-72" x="400.537109"/>
     </g>
    </g>
   </g>
  </g>
  <g id="text_38">
   <!-- ROC Curve -->
   <g transform="translate(335.090625 16.318125) scale(0.12 -0.12)">
    <use xlink:href="#DejaVuSans-52"/>
    <use xlink:href="#DejaVuSans-4f" x="69.482422"/>
    <use xlink:href="#DejaVuSans-43" x="148.193359"/>
    <use xlink:href="#DejaVuSans-20" x="218.017578"/>
    <use xlink:href="#DejaVuSans-43" x="249.804688"/>
    <use xlink:href="#DejaVuSans-75" x="319.628906"/>
    <use xlink:href="#DejaVuSans-72" x="383.007812"/>
    <use xlink:href="#DejaVuSans-76" x="424.121094"/>
    <use xlink:href="#DejaVuSans-65" x="483.300781"/>
   </g>
  </g>
 </g>
 <defs>
  <clipPath id="pc4998aaf71">
   <rect x="43.78125" y="36" width="216" height="221.76"/>
  </clipPath>
  <clipPath id="pdbb386114e">
   <rect x="270.58125" y="36" width="216" height="221.76"/>
  </clipPath>
  <clipPath id="pbf4558be7b">
   <rect x="497.38125" y="36" width="216" height="221.76"/>
  </clipPath>
 </defs>
</svg>
