<?xml version="1.0" encoding="utf-8" standalone="no"?>
<!DOCTYPE svg PUBLIC "-//W3C//DTD SVG 1.1//EN"
  "http://www.w3.org/Graphics/SVG/1.1/DTD/svg11.dtd">
<svg xmlns:xlink="http://www.w3.org/1999/xlink" width="608.98125pt" height="357.95625pt" viewBox="0 0 608.98125 357.95625" xmlns="http://www.w3.org/2000/svg" version="1.1">
 <metadata>
  <rdf:RDF xmlns:dc="http://purl.org/dc/elements/1.1/" xmlns:cc="http://creativecommons.org/ns#" xmlns:rdf="http://www.w3.org/1999/02/22-rdf-syntax-ns#">
   <cc:Work>
    <dc:type rdf:resource="http://purl.org/dc/dcmitype/StillImage"/>
    <dc:date>2024-07-09T00:36:01.078304</dc:date>
    <dc:format>image/svg+xml</dc:format>
    <dc:creator>
     <cc:Agent>
      <dc:title>Matplotlib v3.9.0, https://matplotlib.org/</dc:title>
     </cc:Agent>
    </dc:creator>
   </cc:Work>
  </rdf:RDF>
 </metadata>
 <defs>
  <style type="text/css">*{stroke-linejoin: round; stroke-linecap: butt}</style>
 </defs>
 <g id="figure_1">
  <g id="patch_1">
   <path d="M 0 357.95625 
L 608.98125 357.95625 
L 608.98125 0 
L 0 0 
L 0 357.95625 
z
" style="fill: none"/>
  </g>
  <g id="axes_1">
   <g id="patch_2">
    <path d="M 43.78125 320.4 
L 315.976372 320.4 
L 315.976372 43.2 
L 43.78125 43.2 
L 43.78125 320.4 
z
" style="fill: none"/>
   </g>
   <g id="PolyCollection_1">
    <path d="M 56.153756 91.794251 
L 56.153756 91.794251 
L 60.020164 72.053543 
L 63.886572 68.516922 
L 67.752979 66.451191 
L 71.619387 64.977591 
L 75.485795 63.642811 
L 79.352203 62.408059 
L 83.218611 61.796994 
L 87.085019 61.239098 
L 90.951427 60.73799 
L 94.817835 60.199922 
L 98.684243 59.606883 
L 102.550651 59.14903 
L 106.417059 58.952546 
L 110.283467 58.476668 
L 114.149875 58.050373 
L 118.016283 57.908875 
L 121.882691 57.419481 
L 125.749099 57.23291 
L 129.615507 57.14098 
L 133.481915 56.87601 
L 137.348323 56.745318 
L 141.214731 56.553344 
L 145.081139 56.265837 
L 148.947547 56.222582 
L 152.813955 56.0315 
L 156.680363 55.901716 
L 160.546771 55.729569 
L 164.413179 55.599786 
L 168.279587 55.520478 
L 172.145995 55.455595 
L 176.012403 55.28705 
L 179.878811 55.2546 
L 183.745219 55.050912 
L 187.611627 55.080652 
L 191.478035 54.877872 
L 195.344443 54.774227 
L 199.210851 54.769717 
L 203.077259 54.59757 
L 206.943667 54.476807 
L 210.810075 54.392973 
L 214.676483 54.318176 
L 218.542891 54.271302 
L 222.409299 54.626418 
L 226.275707 54.028869 
L 230.142115 53.973882 
L 234.008523 53.754877 
L 237.874931 53.789128 
L 241.741339 53.816159 
L 245.607747 53.626895 
L 249.474155 53.625986 
L 253.340563 53.40338 
L 257.206971 53.393466 
L 261.073379 53.273596 
L 264.939787 53.311449 
L 268.806195 53.195181 
L 272.672603 53.322255 
L 276.539011 53.150124 
L 280.405419 53.215008 
L 284.271826 53.095138 
L 288.138234 53.174445 
L 292.004642 53.091536 
L 295.87105 53.010427 
L 299.737458 52.964462 
L 303.603866 52.923899 
L 303.603866 52.923899 
L 303.603866 52.923899 
L 299.737458 52.964462 
L 295.87105 53.010427 
L 292.004642 53.091536 
L 288.138234 53.174445 
L 284.271826 53.095138 
L 280.405419 53.215008 
L 276.539011 53.150124 
L 272.672603 53.322255 
L 268.806195 53.195181 
L 264.939787 53.311449 
L 261.073379 53.273596 
L 257.206971 53.393466 
L 253.340563 53.40338 
L 249.474155 53.625986 
L 245.607747 53.626895 
L 241.741339 53.816159 
L 237.874931 53.789128 
L 234.008523 53.754877 
L 230.142115 53.973882 
L 226.275707 54.028869 
L 222.409299 54.626418 
L 218.542891 54.271302 
L 214.676483 54.318176 
L 210.810075 54.392973 
L 206.943667 54.476807 
L 203.077259 54.59757 
L 199.210851 54.769717 
L 195.344443 54.774227 
L 191.478035 54.877872 
L 187.611627 55.080652 
L 183.745219 55.050912 
L 179.878811 55.2546 
L 176.012403 55.28705 
L 172.145995 55.455595 
L 168.279587 55.520478 
L 164.413179 55.599786 
L 160.546771 55.729569 
L 156.680363 55.901716 
L 152.813955 56.0315 
L 148.947547 56.222582 
L 145.081139 56.265837 
L 141.214731 56.553344 
L 137.348323 56.745318 
L 133.481915 56.87601 
L 129.615507 57.14098 
L 125.749099 57.23291 
L 121.882691 57.419481 
L 118.016283 57.908875 
L 114.149875 58.050373 
L 110.283467 58.476668 
L 106.417059 58.952546 
L 102.550651 59.14903 
L 98.684243 59.606883 
L 94.817835 60.199922 
L 90.951427 60.73799 
L 87.085019 61.239098 
L 83.218611 61.796994 
L 79.352203 62.408059 
L 75.485795 63.642811 
L 71.619387 64.977591 
L 67.752979 66.451191 
L 63.886572 68.516922 
L 60.020164 72.053543 
L 56.153756 91.794251 
z
" clip-path="url(#p8538e89072)" style="fill: #1f77b4; fill-opacity: 0.25"/>
   </g>
   <g id="PolyCollection_2">
    <path d="M 56.153756 214.333339 
L 56.153756 214.333339 
L 60.020164 249.589323 
L 63.886572 257.400143 
L 67.752979 262.150166 
L 71.619387 265.663515 
L 75.485795 268.508806 
L 79.352203 271.05319 
L 83.218611 272.45035 
L 87.085019 274.134611 
L 90.951427 275.270423 
L 94.817835 276.189511 
L 98.684243 277.581103 
L 102.550651 278.696667 
L 106.417059 279.165606 
L 110.283467 280.098354 
L 114.149875 281.153867 
L 118.016283 281.579096 
L 121.882691 282.608657 
L 125.749099 282.976821 
L 129.615507 283.378118 
L 133.481915 284.092377 
L 137.348323 284.379623 
L 141.214731 284.722885 
L 145.081139 285.434434 
L 148.947547 285.763875 
L 152.813955 285.792072 
L 156.680363 286.286867 
L 160.546771 286.527317 
L 164.413179 286.97821 
L 168.279587 287.347211 
L 172.145995 287.524734 
L 176.012403 287.760432 
L 179.878811 288.007417 
L 183.745219 288.257133 
L 187.611627 288.319084 
L 191.478035 288.843988 
L 195.344443 289.054194 
L 199.210851 289.223394 
L 203.077259 289.666936 
L 206.943667 289.835244 
L 210.810075 290.014954 
L 214.676483 290.191403 
L 218.542891 290.495176 
L 222.409299 289.465906 
L 226.275707 291.033806 
L 230.142115 291.103229 
L 234.008523 291.712198 
L 237.874931 291.530914 
L 241.741339 291.722664 
L 245.607747 292.124956 
L 249.474155 292.154915 
L 253.340563 292.427287 
L 257.206971 292.483501 
L 261.073379 292.835259 
L 264.939787 292.732192 
L 268.806195 293.118 
L 272.672603 292.971951 
L 276.539011 293.167311 
L 280.405419 293.191149 
L 284.271826 293.384085 
L 288.138234 293.052268 
L 292.004642 293.742093 
L 295.87105 293.82126 
L 299.737458 293.907695 
L 303.603866 293.897614 
L 303.603866 293.897614 
L 303.603866 293.897614 
L 299.737458 293.907695 
L 295.87105 293.82126 
L 292.004642 293.742093 
L 288.138234 293.052268 
L 284.271826 293.384085 
L 280.405419 293.191149 
L 276.539011 293.167311 
L 272.672603 292.971951 
L 268.806195 293.118 
L 264.939787 292.732192 
L 261.073379 292.835259 
L 257.206971 292.483501 
L 253.340563 292.427287 
L 249.474155 292.154915 
L 245.607747 292.124956 
L 241.741339 291.722664 
L 237.874931 291.530914 
L 234.008523 291.712198 
L 230.142115 291.103229 
L 226.275707 291.033806 
L 222.409299 289.465906 
L 218.542891 290.495176 
L 214.676483 290.191403 
L 210.810075 290.014954 
L 206.943667 289.835244 
L 203.077259 289.666936 
L 199.210851 289.223394 
L 195.344443 289.054194 
L 191.478035 288.843988 
L 187.611627 288.319084 
L 183.745219 288.257133 
L 179.878811 288.007417 
L 176.012403 287.760432 
L 172.145995 287.524734 
L 168.279587 287.347211 
L 164.413179 286.97821 
L 160.546771 286.527317 
L 156.680363 286.286867 
L 152.813955 285.792072 
L 148.947547 285.763875 
L 145.081139 285.434434 
L 141.214731 284.722885 
L 137.348323 284.379623 
L 133.481915 284.092377 
L 129.615507 283.378118 
L 125.749099 282.976821 
L 121.882691 282.608657 
L 118.016283 281.579096 
L 114.149875 281.153867 
L 110.283467 280.098354 
L 106.417059 279.165606 
L 102.550651 278.696667 
L 98.684243 277.581103 
L 94.817835 276.189511 
L 90.951427 275.270423 
L 87.085019 274.134611 
L 83.218611 272.45035 
L 79.352203 271.05319 
L 75.485795 268.508806 
L 71.619387 265.663515 
L 67.752979 262.150166 
L 63.886572 257.400143 
L 60.020164 249.589323 
L 56.153756 214.333339 
z
" clip-path="url(#p8538e89072)" style="fill: #ff7f0e; fill-opacity: 0.25"/>
   </g>
   <g id="matplotlib.axis_1">
    <g id="xtick_1">
     <g id="line2d_1">
      <path d="M 56.153756 320.4 
L 56.153756 43.2 
" clip-path="url(#p8538e89072)" style="fill: none; stroke-dasharray: 0.8,1.32; stroke-dashoffset: 0; stroke: #b0b0b0; stroke-opacity: 0.4; stroke-width: 0.8"/>
     </g>
     <g id="line2d_2">
      <defs>
       <path id="md3187b80e0" d="M 0 0 
L 0 3.5 
" style="stroke: #000000; stroke-width: 0.8"/>
      </defs>
      <g>
       <use xlink:href="#md3187b80e0" x="56.153756" y="320.4" style="stroke: #000000; stroke-width: 0.8"/>
      </g>
     </g>
     <g id="text_1">
      <!-- 0 -->
      <g transform="translate(52.972506 334.998437) scale(0.1 -0.1)">
       <defs>
        <path id="DejaVuSans-30" d="M 2034 4250 
Q 1547 4250 1301 3770 
Q 1056 3291 1056 2328 
Q 1056 1369 1301 889 
Q 1547 409 2034 409 
Q 2525 409 2770 889 
Q 3016 1369 3016 2328 
Q 3016 3291 2770 3770 
Q 2525 4250 2034 4250 
z
M 2034 4750 
Q 2819 4750 3233 4129 
Q 3647 3509 3647 2328 
Q 3647 1150 3233 529 
Q 2819 -91 2034 -91 
Q 1250 -91 836 529 
Q 422 1150 422 2328 
Q 422 3509 836 4129 
Q 1250 4750 2034 4750 
z
" transform="scale(0.015625)"/>
       </defs>
       <use xlink:href="#DejaVuSans-30"/>
      </g>
     </g>
    </g>
    <g id="xtick_2">
     <g id="line2d_3">
      <path d="M 94.817835 320.4 
L 94.817835 43.2 
" clip-path="url(#p8538e89072)" style="fill: none; stroke-dasharray: 0.8,1.32; stroke-dashoffset: 0; stroke: #b0b0b0; stroke-opacity: 0.4; stroke-width: 0.8"/>
     </g>
     <g id="line2d_4">
      <g>
       <use xlink:href="#md3187b80e0" x="94.817835" y="320.4" style="stroke: #000000; stroke-width: 0.8"/>
      </g>
     </g>
     <g id="text_2">
      <!-- 10 -->
      <g transform="translate(88.455335 334.998437) scale(0.1 -0.1)">
       <defs>
        <path id="DejaVuSans-31" d="M 794 531 
L 1825 531 
L 1825 4091 
L 703 3866 
L 703 4441 
L 1819 4666 
L 2450 4666 
L 2450 531 
L 3481 531 
L 3481 0 
L 794 0 
L 794 531 
z
" transform="scale(0.015625)"/>
       </defs>
       <use xlink:href="#DejaVuSans-31"/>
       <use xlink:href="#DejaVuSans-30" x="63.623047"/>
      </g>
     </g>
    </g>
    <g id="xtick_3">
     <g id="line2d_5">
      <path d="M 133.481915 320.4 
L 133.481915 43.2 
" clip-path="url(#p8538e89072)" style="fill: none; stroke-dasharray: 0.8,1.32; stroke-dashoffset: 0; stroke: #b0b0b0; stroke-opacity: 0.4; stroke-width: 0.8"/>
     </g>
     <g id="line2d_6">
      <g>
       <use xlink:href="#md3187b80e0" x="133.481915" y="320.4" style="stroke: #000000; stroke-width: 0.8"/>
      </g>
     </g>
     <g id="text_3">
      <!-- 20 -->
      <g transform="translate(127.119415 334.998437) scale(0.1 -0.1)">
       <defs>
        <path id="DejaVuSans-32" d="M 1228 531 
L 3431 531 
L 3431 0 
L 469 0 
L 469 531 
Q 828 903 1448 1529 
Q 2069 2156 2228 2338 
Q 2531 2678 2651 2914 
Q 2772 3150 2772 3378 
Q 2772 3750 2511 3984 
Q 2250 4219 1831 4219 
Q 1534 4219 1204 4116 
Q 875 4013 500 3803 
L 500 4441 
Q 881 4594 1212 4672 
Q 1544 4750 1819 4750 
Q 2544 4750 2975 4387 
Q 3406 4025 3406 3419 
Q 3406 3131 3298 2873 
Q 3191 2616 2906 2266 
Q 2828 2175 2409 1742 
Q 1991 1309 1228 531 
z
" transform="scale(0.015625)"/>
       </defs>
       <use xlink:href="#DejaVuSans-32"/>
       <use xlink:href="#DejaVuSans-30" x="63.623047"/>
      </g>
     </g>
    </g>
    <g id="xtick_4">
     <g id="line2d_7">
      <path d="M 172.145995 320.4 
L 172.145995 43.2 
" clip-path="url(#p8538e89072)" style="fill: none; stroke-dasharray: 0.8,1.32; stroke-dashoffset: 0; stroke: #b0b0b0; stroke-opacity: 0.4; stroke-width: 0.8"/>
     </g>
     <g id="line2d_8">
      <g>
       <use xlink:href="#md3187b80e0" x="172.145995" y="320.4" style="stroke: #000000; stroke-width: 0.8"/>
      </g>
     </g>
     <g id="text_4">
      <!-- 30 -->
      <g transform="translate(165.783495 334.998437) scale(0.1 -0.1)">
       <defs>
        <path id="DejaVuSans-33" d="M 2597 2516 
Q 3050 2419 3304 2112 
Q 3559 1806 3559 1356 
Q 3559 666 3084 287 
Q 2609 -91 1734 -91 
Q 1441 -91 1130 -33 
Q 819 25 488 141 
L 488 750 
Q 750 597 1062 519 
Q 1375 441 1716 441 
Q 2309 441 2620 675 
Q 2931 909 2931 1356 
Q 2931 1769 2642 2001 
Q 2353 2234 1838 2234 
L 1294 2234 
L 1294 2753 
L 1863 2753 
Q 2328 2753 2575 2939 
Q 2822 3125 2822 3475 
Q 2822 3834 2567 4026 
Q 2313 4219 1838 4219 
Q 1578 4219 1281 4162 
Q 984 4106 628 3988 
L 628 4550 
Q 988 4650 1302 4700 
Q 1616 4750 1894 4750 
Q 2613 4750 3031 4423 
Q 3450 4097 3450 3541 
Q 3450 3153 3228 2886 
Q 3006 2619 2597 2516 
z
" transform="scale(0.015625)"/>
       </defs>
       <use xlink:href="#DejaVuSans-33"/>
       <use xlink:href="#DejaVuSans-30" x="63.623047"/>
      </g>
     </g>
    </g>
    <g id="xtick_5">
     <g id="line2d_9">
      <path d="M 210.810075 320.4 
L 210.810075 43.2 
" clip-path="url(#p8538e89072)" style="fill: none; stroke-dasharray: 0.8,1.32; stroke-dashoffset: 0; stroke: #b0b0b0; stroke-opacity: 0.4; stroke-width: 0.8"/>
     </g>
     <g id="line2d_10">
      <g>
       <use xlink:href="#md3187b80e0" x="210.810075" y="320.4" style="stroke: #000000; stroke-width: 0.8"/>
      </g>
     </g>
     <g id="text_5">
      <!-- 40 -->
      <g transform="translate(204.447575 334.998437) scale(0.1 -0.1)">
       <defs>
        <path id="DejaVuSans-34" d="M 2419 4116 
L 825 1625 
L 2419 1625 
L 2419 4116 
z
M 2253 4666 
L 3047 4666 
L 3047 1625 
L 3713 1625 
L 3713 1100 
L 3047 1100 
L 3047 0 
L 2419 0 
L 2419 1100 
L 313 1100 
L 313 1709 
L 2253 4666 
z
" transform="scale(0.015625)"/>
       </defs>
       <use xlink:href="#DejaVuSans-34"/>
       <use xlink:href="#DejaVuSans-30" x="63.623047"/>
      </g>
     </g>
    </g>
    <g id="xtick_6">
     <g id="line2d_11">
      <path d="M 249.474155 320.4 
L 249.474155 43.2 
" clip-path="url(#p8538e89072)" style="fill: none; stroke-dasharray: 0.8,1.32; stroke-dashoffset: 0; stroke: #b0b0b0; stroke-opacity: 0.4; stroke-width: 0.8"/>
     </g>
     <g id="line2d_12">
      <g>
       <use xlink:href="#md3187b80e0" x="249.474155" y="320.4" style="stroke: #000000; stroke-width: 0.8"/>
      </g>
     </g>
     <g id="text_6">
      <!-- 50 -->
      <g transform="translate(243.111655 334.998437) scale(0.1 -0.1)">
       <defs>
        <path id="DejaVuSans-35" d="M 691 4666 
L 3169 4666 
L 3169 4134 
L 1269 4134 
L 1269 2991 
Q 1406 3038 1543 3061 
Q 1681 3084 1819 3084 
Q 2600 3084 3056 2656 
Q 3513 2228 3513 1497 
Q 3513 744 3044 326 
Q 2575 -91 1722 -91 
Q 1428 -91 1123 -41 
Q 819 9 494 109 
L 494 744 
Q 775 591 1075 516 
Q 1375 441 1709 441 
Q 2250 441 2565 725 
Q 2881 1009 2881 1497 
Q 2881 1984 2565 2268 
Q 2250 2553 1709 2553 
Q 1456 2553 1204 2497 
Q 953 2441 691 2322 
L 691 4666 
z
" transform="scale(0.015625)"/>
       </defs>
       <use xlink:href="#DejaVuSans-35"/>
       <use xlink:href="#DejaVuSans-30" x="63.623047"/>
      </g>
     </g>
    </g>
    <g id="xtick_7">
     <g id="line2d_13">
      <path d="M 288.138234 320.4 
L 288.138234 43.2 
" clip-path="url(#p8538e89072)" style="fill: none; stroke-dasharray: 0.8,1.32; stroke-dashoffset: 0; stroke: #b0b0b0; stroke-opacity: 0.4; stroke-width: 0.8"/>
     </g>
     <g id="line2d_14">
      <g>
       <use xlink:href="#md3187b80e0" x="288.138234" y="320.4" style="stroke: #000000; stroke-width: 0.8"/>
      </g>
     </g>
     <g id="text_7">
      <!-- 60 -->
      <g transform="translate(281.775734 334.998437) scale(0.1 -0.1)">
       <defs>
        <path id="DejaVuSans-36" d="M 2113 2584 
Q 1688 2584 1439 2293 
Q 1191 2003 1191 1497 
Q 1191 994 1439 701 
Q 1688 409 2113 409 
Q 2538 409 2786 701 
Q 3034 994 3034 1497 
Q 3034 2003 2786 2293 
Q 2538 2584 2113 2584 
z
M 3366 4563 
L 3366 3988 
Q 3128 4100 2886 4159 
Q 2644 4219 2406 4219 
Q 1781 4219 1451 3797 
Q 1122 3375 1075 2522 
Q 1259 2794 1537 2939 
Q 1816 3084 2150 3084 
Q 2853 3084 3261 2657 
Q 3669 2231 3669 1497 
Q 3669 778 3244 343 
Q 2819 -91 2113 -91 
Q 1303 -91 875 529 
Q 447 1150 447 2328 
Q 447 3434 972 4092 
Q 1497 4750 2381 4750 
Q 2619 4750 2861 4703 
Q 3103 4656 3366 4563 
z
" transform="scale(0.015625)"/>
       </defs>
       <use xlink:href="#DejaVuSans-36"/>
       <use xlink:href="#DejaVuSans-30" x="63.623047"/>
      </g>
     </g>
    </g>
    <g id="text_8">
     <!-- Epochs -->
     <g transform="translate(161.963186 348.676562) scale(0.1 -0.1)">
      <defs>
       <path id="DejaVuSans-45" d="M 628 4666 
L 3578 4666 
L 3578 4134 
L 1259 4134 
L 1259 2753 
L 3481 2753 
L 3481 2222 
L 1259 2222 
L 1259 531 
L 3634 531 
L 3634 0 
L 628 0 
L 628 4666 
z
" transform="scale(0.015625)"/>
       <path id="DejaVuSans-70" d="M 1159 525 
L 1159 -1331 
L 581 -1331 
L 581 3500 
L 1159 3500 
L 1159 2969 
Q 1341 3281 1617 3432 
Q 1894 3584 2278 3584 
Q 2916 3584 3314 3078 
Q 3713 2572 3713 1747 
Q 3713 922 3314 415 
Q 2916 -91 2278 -91 
Q 1894 -91 1617 61 
Q 1341 213 1159 525 
z
M 3116 1747 
Q 3116 2381 2855 2742 
Q 2594 3103 2138 3103 
Q 1681 3103 1420 2742 
Q 1159 2381 1159 1747 
Q 1159 1113 1420 752 
Q 1681 391 2138 391 
Q 2594 391 2855 752 
Q 3116 1113 3116 1747 
z
" transform="scale(0.015625)"/>
       <path id="DejaVuSans-6f" d="M 1959 3097 
Q 1497 3097 1228 2736 
Q 959 2375 959 1747 
Q 959 1119 1226 758 
Q 1494 397 1959 397 
Q 2419 397 2687 759 
Q 2956 1122 2956 1747 
Q 2956 2369 2687 2733 
Q 2419 3097 1959 3097 
z
M 1959 3584 
Q 2709 3584 3137 3096 
Q 3566 2609 3566 1747 
Q 3566 888 3137 398 
Q 2709 -91 1959 -91 
Q 1206 -91 779 398 
Q 353 888 353 1747 
Q 353 2609 779 3096 
Q 1206 3584 1959 3584 
z
" transform="scale(0.015625)"/>
       <path id="DejaVuSans-63" d="M 3122 3366 
L 3122 2828 
Q 2878 2963 2633 3030 
Q 2388 3097 2138 3097 
Q 1578 3097 1268 2742 
Q 959 2388 959 1747 
Q 959 1106 1268 751 
Q 1578 397 2138 397 
Q 2388 397 2633 464 
Q 2878 531 3122 666 
L 3122 134 
Q 2881 22 2623 -34 
Q 2366 -91 2075 -91 
Q 1284 -91 818 406 
Q 353 903 353 1747 
Q 353 2603 823 3093 
Q 1294 3584 2113 3584 
Q 2378 3584 2631 3529 
Q 2884 3475 3122 3366 
z
" transform="scale(0.015625)"/>
       <path id="DejaVuSans-68" d="M 3513 2113 
L 3513 0 
L 2938 0 
L 2938 2094 
Q 2938 2591 2744 2837 
Q 2550 3084 2163 3084 
Q 1697 3084 1428 2787 
Q 1159 2491 1159 1978 
L 1159 0 
L 581 0 
L 581 4863 
L 1159 4863 
L 1159 2956 
Q 1366 3272 1645 3428 
Q 1925 3584 2291 3584 
Q 2894 3584 3203 3211 
Q 3513 2838 3513 2113 
z
" transform="scale(0.015625)"/>
       <path id="DejaVuSans-73" d="M 2834 3397 
L 2834 2853 
Q 2591 2978 2328 3040 
Q 2066 3103 1784 3103 
Q 1356 3103 1142 2972 
Q 928 2841 928 2578 
Q 928 2378 1081 2264 
Q 1234 2150 1697 2047 
L 1894 2003 
Q 2506 1872 2764 1633 
Q 3022 1394 3022 966 
Q 3022 478 2636 193 
Q 2250 -91 1575 -91 
Q 1294 -91 989 -36 
Q 684 19 347 128 
L 347 722 
Q 666 556 975 473 
Q 1284 391 1588 391 
Q 1994 391 2212 530 
Q 2431 669 2431 922 
Q 2431 1156 2273 1281 
Q 2116 1406 1581 1522 
L 1381 1569 
Q 847 1681 609 1914 
Q 372 2147 372 2553 
Q 372 3047 722 3315 
Q 1072 3584 1716 3584 
Q 2034 3584 2315 3537 
Q 2597 3491 2834 3397 
z
" transform="scale(0.015625)"/>
      </defs>
      <use xlink:href="#DejaVuSans-45"/>
      <use xlink:href="#DejaVuSans-70" x="63.183594"/>
      <use xlink:href="#DejaVuSans-6f" x="126.660156"/>
      <use xlink:href="#DejaVuSans-63" x="187.841797"/>
      <use xlink:href="#DejaVuSans-68" x="242.822266"/>
      <use xlink:href="#DejaVuSans-73" x="306.201172"/>
     </g>
    </g>
   </g>
   <g id="matplotlib.axis_2">
    <g id="ytick_1">
     <g id="line2d_15">
      <path d="M 43.78125 320.4 
L 315.976372 320.4 
" clip-path="url(#p8538e89072)" style="fill: none; stroke-dasharray: 0.8,1.32; stroke-dashoffset: 0; stroke: #b0b0b0; stroke-opacity: 0.4; stroke-width: 0.8"/>
     </g>
     <g id="line2d_16">
      <defs>
       <path id="mc826497398" d="M 0 0 
L -3.5 0 
" style="stroke: #000000; stroke-width: 0.8"/>
      </defs>
      <g>
       <use xlink:href="#mc826497398" x="43.78125" y="320.4" style="stroke: #000000; stroke-width: 0.8"/>
      </g>
     </g>
     <g id="text_9">
      <!-- 0.0 -->
      <g transform="translate(20.878125 324.199219) scale(0.1 -0.1)">
       <defs>
        <path id="DejaVuSans-2e" d="M 684 794 
L 1344 794 
L 1344 0 
L 684 0 
L 684 794 
z
" transform="scale(0.015625)"/>
       </defs>
       <use xlink:href="#DejaVuSans-30"/>
       <use xlink:href="#DejaVuSans-2e" x="63.623047"/>
       <use xlink:href="#DejaVuSans-30" x="95.410156"/>
      </g>
     </g>
    </g>
    <g id="ytick_2">
     <g id="line2d_17">
      <path d="M 43.78125 264.96 
L 315.976372 264.96 
" clip-path="url(#p8538e89072)" style="fill: none; stroke-dasharray: 0.8,1.32; stroke-dashoffset: 0; stroke: #b0b0b0; stroke-opacity: 0.4; stroke-width: 0.8"/>
     </g>
     <g id="line2d_18">
      <g>
       <use xlink:href="#mc826497398" x="43.78125" y="264.96" style="stroke: #000000; stroke-width: 0.8"/>
      </g>
     </g>
     <g id="text_10">
      <!-- 0.2 -->
      <g transform="translate(20.878125 268.759219) scale(0.1 -0.1)">
       <use xlink:href="#DejaVuSans-30"/>
       <use xlink:href="#DejaVuSans-2e" x="63.623047"/>
       <use xlink:href="#DejaVuSans-32" x="95.410156"/>
      </g>
     </g>
    </g>
    <g id="ytick_3">
     <g id="line2d_19">
      <path d="M 43.78125 209.52 
L 315.976372 209.52 
" clip-path="url(#p8538e89072)" style="fill: none; stroke-dasharray: 0.8,1.32; stroke-dashoffset: 0; stroke: #b0b0b0; stroke-opacity: 0.4; stroke-width: 0.8"/>
     </g>
     <g id="line2d_20">
      <g>
       <use xlink:href="#mc826497398" x="43.78125" y="209.52" style="stroke: #000000; stroke-width: 0.8"/>
      </g>
     </g>
     <g id="text_11">
      <!-- 0.4 -->
      <g transform="translate(20.878125 213.319219) scale(0.1 -0.1)">
       <use xlink:href="#DejaVuSans-30"/>
       <use xlink:href="#DejaVuSans-2e" x="63.623047"/>
       <use xlink:href="#DejaVuSans-34" x="95.410156"/>
      </g>
     </g>
    </g>
    <g id="ytick_4">
     <g id="line2d_21">
      <path d="M 43.78125 154.08 
L 315.976372 154.08 
" clip-path="url(#p8538e89072)" style="fill: none; stroke-dasharray: 0.8,1.32; stroke-dashoffset: 0; stroke: #b0b0b0; stroke-opacity: 0.4; stroke-width: 0.8"/>
     </g>
     <g id="line2d_22">
      <g>
       <use xlink:href="#mc826497398" x="43.78125" y="154.08" style="stroke: #000000; stroke-width: 0.8"/>
      </g>
     </g>
     <g id="text_12">
      <!-- 0.6 -->
      <g transform="translate(20.878125 157.879219) scale(0.1 -0.1)">
       <use xlink:href="#DejaVuSans-30"/>
       <use xlink:href="#DejaVuSans-2e" x="63.623047"/>
       <use xlink:href="#DejaVuSans-36" x="95.410156"/>
      </g>
     </g>
    </g>
    <g id="ytick_5">
     <g id="line2d_23">
      <path d="M 43.78125 98.64 
L 315.976372 98.64 
" clip-path="url(#p8538e89072)" style="fill: none; stroke-dasharray: 0.8,1.32; stroke-dashoffset: 0; stroke: #b0b0b0; stroke-opacity: 0.4; stroke-width: 0.8"/>
     </g>
     <g id="line2d_24">
      <g>
       <use xlink:href="#mc826497398" x="43.78125" y="98.64" style="stroke: #000000; stroke-width: 0.8"/>
      </g>
     </g>
     <g id="text_13">
      <!-- 0.8 -->
      <g transform="translate(20.878125 102.439219) scale(0.1 -0.1)">
       <defs>
        <path id="DejaVuSans-38" d="M 2034 2216 
Q 1584 2216 1326 1975 
Q 1069 1734 1069 1313 
Q 1069 891 1326 650 
Q 1584 409 2034 409 
Q 2484 409 2743 651 
Q 3003 894 3003 1313 
Q 3003 1734 2745 1975 
Q 2488 2216 2034 2216 
z
M 1403 2484 
Q 997 2584 770 2862 
Q 544 3141 544 3541 
Q 544 4100 942 4425 
Q 1341 4750 2034 4750 
Q 2731 4750 3128 4425 
Q 3525 4100 3525 3541 
Q 3525 3141 3298 2862 
Q 3072 2584 2669 2484 
Q 3125 2378 3379 2068 
Q 3634 1759 3634 1313 
Q 3634 634 3220 271 
Q 2806 -91 2034 -91 
Q 1263 -91 848 271 
Q 434 634 434 1313 
Q 434 1759 690 2068 
Q 947 2378 1403 2484 
z
M 1172 3481 
Q 1172 3119 1398 2916 
Q 1625 2713 2034 2713 
Q 2441 2713 2670 2916 
Q 2900 3119 2900 3481 
Q 2900 3844 2670 4047 
Q 2441 4250 2034 4250 
Q 1625 4250 1398 4047 
Q 1172 3844 1172 3481 
z
" transform="scale(0.015625)"/>
       </defs>
       <use xlink:href="#DejaVuSans-30"/>
       <use xlink:href="#DejaVuSans-2e" x="63.623047"/>
       <use xlink:href="#DejaVuSans-38" x="95.410156"/>
      </g>
     </g>
    </g>
    <g id="ytick_6">
     <g id="line2d_25">
      <path d="M 43.78125 43.2 
L 315.976372 43.2 
" clip-path="url(#p8538e89072)" style="fill: none; stroke-dasharray: 0.8,1.32; stroke-dashoffset: 0; stroke: #b0b0b0; stroke-opacity: 0.4; stroke-width: 0.8"/>
     </g>
     <g id="line2d_26">
      <g>
       <use xlink:href="#mc826497398" x="43.78125" y="43.2" style="stroke: #000000; stroke-width: 0.8"/>
      </g>
     </g>
     <g id="text_14">
      <!-- 1.0 -->
      <g transform="translate(20.878125 46.999219) scale(0.1 -0.1)">
       <use xlink:href="#DejaVuSans-31"/>
       <use xlink:href="#DejaVuSans-2e" x="63.623047"/>
       <use xlink:href="#DejaVuSans-30" x="95.410156"/>
      </g>
     </g>
    </g>
    <g id="text_15">
     <!-- Accuracy / Loss -->
     <g transform="translate(14.798438 220.457812) rotate(-90) scale(0.1 -0.1)">
      <defs>
       <path id="DejaVuSans-41" d="M 2188 4044 
L 1331 1722 
L 3047 1722 
L 2188 4044 
z
M 1831 4666 
L 2547 4666 
L 4325 0 
L 3669 0 
L 3244 1197 
L 1141 1197 
L 716 0 
L 50 0 
L 1831 4666 
z
" transform="scale(0.015625)"/>
       <path id="DejaVuSans-75" d="M 544 1381 
L 544 3500 
L 1119 3500 
L 1119 1403 
Q 1119 906 1312 657 
Q 1506 409 1894 409 
Q 2359 409 2629 706 
Q 2900 1003 2900 1516 
L 2900 3500 
L 3475 3500 
L 3475 0 
L 2900 0 
L 2900 538 
Q 2691 219 2414 64 
Q 2138 -91 1772 -91 
Q 1169 -91 856 284 
Q 544 659 544 1381 
z
M 1991 3584 
L 1991 3584 
z
" transform="scale(0.015625)"/>
       <path id="DejaVuSans-72" d="M 2631 2963 
Q 2534 3019 2420 3045 
Q 2306 3072 2169 3072 
Q 1681 3072 1420 2755 
Q 1159 2438 1159 1844 
L 1159 0 
L 581 0 
L 581 3500 
L 1159 3500 
L 1159 2956 
Q 1341 3275 1631 3429 
Q 1922 3584 2338 3584 
Q 2397 3584 2469 3576 
Q 2541 3569 2628 3553 
L 2631 2963 
z
" transform="scale(0.015625)"/>
       <path id="DejaVuSans-61" d="M 2194 1759 
Q 1497 1759 1228 1600 
Q 959 1441 959 1056 
Q 959 750 1161 570 
Q 1363 391 1709 391 
Q 2188 391 2477 730 
Q 2766 1069 2766 1631 
L 2766 1759 
L 2194 1759 
z
M 3341 1997 
L 3341 0 
L 2766 0 
L 2766 531 
Q 2569 213 2275 61 
Q 1981 -91 1556 -91 
Q 1019 -91 701 211 
Q 384 513 384 1019 
Q 384 1609 779 1909 
Q 1175 2209 1959 2209 
L 2766 2209 
L 2766 2266 
Q 2766 2663 2505 2880 
Q 2244 3097 1772 3097 
Q 1472 3097 1187 3025 
Q 903 2953 641 2809 
L 641 3341 
Q 956 3463 1253 3523 
Q 1550 3584 1831 3584 
Q 2591 3584 2966 3190 
Q 3341 2797 3341 1997 
z
" transform="scale(0.015625)"/>
       <path id="DejaVuSans-79" d="M 2059 -325 
Q 1816 -950 1584 -1140 
Q 1353 -1331 966 -1331 
L 506 -1331 
L 506 -850 
L 844 -850 
Q 1081 -850 1212 -737 
Q 1344 -625 1503 -206 
L 1606 56 
L 191 3500 
L 800 3500 
L 1894 763 
L 2988 3500 
L 3597 3500 
L 2059 -325 
z
" transform="scale(0.015625)"/>
       <path id="DejaVuSans-20" transform="scale(0.015625)"/>
       <path id="DejaVuSans-2f" d="M 1625 4666 
L 2156 4666 
L 531 -594 
L 0 -594 
L 1625 4666 
z
" transform="scale(0.015625)"/>
       <path id="DejaVuSans-4c" d="M 628 4666 
L 1259 4666 
L 1259 531 
L 3531 531 
L 3531 0 
L 628 0 
L 628 4666 
z
" transform="scale(0.015625)"/>
      </defs>
      <use xlink:href="#DejaVuSans-41"/>
      <use xlink:href="#DejaVuSans-63" x="66.658203"/>
      <use xlink:href="#DejaVuSans-63" x="121.638672"/>
      <use xlink:href="#DejaVuSans-75" x="176.619141"/>
      <use xlink:href="#DejaVuSans-72" x="239.998047"/>
      <use xlink:href="#DejaVuSans-61" x="281.111328"/>
      <use xlink:href="#DejaVuSans-63" x="342.390625"/>
      <use xlink:href="#DejaVuSans-79" x="397.371094"/>
      <use xlink:href="#DejaVuSans-20" x="456.550781"/>
      <use xlink:href="#DejaVuSans-2f" x="488.337891"/>
      <use xlink:href="#DejaVuSans-20" x="522.029297"/>
      <use xlink:href="#DejaVuSans-4c" x="553.816406"/>
      <use xlink:href="#DejaVuSans-6f" x="607.779297"/>
      <use xlink:href="#DejaVuSans-73" x="668.960938"/>
      <use xlink:href="#DejaVuSans-73" x="721.060547"/>
     </g>
    </g>
   </g>
   <g id="line2d_27">
    <path d="M 56.153756 91.794251 
L 60.020164 72.053543 
L 63.886572 68.516922 
L 67.752979 66.451191 
L 71.619387 64.977591 
L 75.485795 63.642811 
L 79.352203 62.408059 
L 83.218611 61.796994 
L 87.085019 61.239098 
L 90.951427 60.73799 
L 94.817835 60.199922 
L 98.684243 59.606883 
L 102.550651 59.14903 
L 106.417059 58.952546 
L 110.283467 58.476668 
L 114.149875 58.050373 
L 118.016283 57.908875 
L 121.882691 57.419481 
L 125.749099 57.23291 
L 129.615507 57.14098 
L 133.481915 56.87601 
L 137.348323 56.745318 
L 141.214731 56.553344 
L 145.081139 56.265837 
L 148.947547 56.222582 
L 152.813955 56.0315 
L 156.680363 55.901716 
L 160.546771 55.729569 
L 164.413179 55.599786 
L 168.279587 55.520478 
L 172.145995 55.455595 
L 176.012403 55.28705 
L 179.878811 55.2546 
L 183.745219 55.050912 
L 187.611627 55.080652 
L 191.478035 54.877872 
L 195.344443 54.774227 
L 199.210851 54.769717 
L 203.077259 54.59757 
L 206.943667 54.476807 
L 210.810075 54.392973 
L 214.676483 54.318176 
L 218.542891 54.271302 
L 222.409299 54.626418 
L 226.275707 54.028869 
L 230.142115 53.973882 
L 234.008523 53.754877 
L 237.874931 53.789128 
L 241.741339 53.816159 
L 245.607747 53.626895 
L 249.474155 53.625986 
L 253.340563 53.40338 
L 257.206971 53.393466 
L 261.073379 53.273596 
L 264.939787 53.311449 
L 268.806195 53.195181 
L 272.672603 53.322255 
L 276.539011 53.150124 
L 280.405419 53.215008 
L 284.271826 53.095138 
L 288.138234 53.174445 
L 292.004642 53.091536 
L 295.87105 53.010427 
L 299.737458 52.964462 
L 303.603866 52.923899 
" clip-path="url(#p8538e89072)" style="fill: none; stroke: #1f77b4; stroke-width: 1.5; stroke-linecap: square"/>
    <defs>
     <path id="mb1463be81d" d="M 0 1.5 
C 0.397805 1.5 0.77937 1.341951 1.06066 1.06066 
C 1.341951 0.77937 1.5 0.397805 1.5 0 
C 1.5 -0.397805 1.341951 -0.77937 1.06066 -1.06066 
C 0.77937 -1.341951 0.397805 -1.5 0 -1.5 
C -0.397805 -1.5 -0.77937 -1.341951 -1.06066 -1.06066 
C -1.341951 -0.77937 -1.5 -0.397805 -1.5 0 
C -1.5 0.397805 -1.341951 0.77937 -1.06066 1.06066 
C -0.77937 1.341951 -0.397805 1.5 0 1.5 
z
" style="stroke: #1f77b4"/>
    </defs>
    <g clip-path="url(#p8538e89072)">
     <use xlink:href="#mb1463be81d" x="56.153756" y="91.794251" style="fill: #1f77b4; stroke: #1f77b4"/>
     <use xlink:href="#mb1463be81d" x="60.020164" y="72.053543" style="fill: #1f77b4; stroke: #1f77b4"/>
     <use xlink:href="#mb1463be81d" x="63.886572" y="68.516922" style="fill: #1f77b4; stroke: #1f77b4"/>
     <use xlink:href="#mb1463be81d" x="67.752979" y="66.451191" style="fill: #1f77b4; stroke: #1f77b4"/>
     <use xlink:href="#mb1463be81d" x="71.619387" y="64.977591" style="fill: #1f77b4; stroke: #1f77b4"/>
     <use xlink:href="#mb1463be81d" x="75.485795" y="63.642811" style="fill: #1f77b4; stroke: #1f77b4"/>
     <use xlink:href="#mb1463be81d" x="79.352203" y="62.408059" style="fill: #1f77b4; stroke: #1f77b4"/>
     <use xlink:href="#mb1463be81d" x="83.218611" y="61.796994" style="fill: #1f77b4; stroke: #1f77b4"/>
     <use xlink:href="#mb1463be81d" x="87.085019" y="61.239098" style="fill: #1f77b4; stroke: #1f77b4"/>
     <use xlink:href="#mb1463be81d" x="90.951427" y="60.73799" style="fill: #1f77b4; stroke: #1f77b4"/>
     <use xlink:href="#mb1463be81d" x="94.817835" y="60.199922" style="fill: #1f77b4; stroke: #1f77b4"/>
     <use xlink:href="#mb1463be81d" x="98.684243" y="59.606883" style="fill: #1f77b4; stroke: #1f77b4"/>
     <use xlink:href="#mb1463be81d" x="102.550651" y="59.14903" style="fill: #1f77b4; stroke: #1f77b4"/>
     <use xlink:href="#mb1463be81d" x="106.417059" y="58.952546" style="fill: #1f77b4; stroke: #1f77b4"/>
     <use xlink:href="#mb1463be81d" x="110.283467" y="58.476668" style="fill: #1f77b4; stroke: #1f77b4"/>
     <use xlink:href="#mb1463be81d" x="114.149875" y="58.050373" style="fill: #1f77b4; stroke: #1f77b4"/>
     <use xlink:href="#mb1463be81d" x="118.016283" y="57.908875" style="fill: #1f77b4; stroke: #1f77b4"/>
     <use xlink:href="#mb1463be81d" x="121.882691" y="57.419481" style="fill: #1f77b4; stroke: #1f77b4"/>
     <use xlink:href="#mb1463be81d" x="125.749099" y="57.23291" style="fill: #1f77b4; stroke: #1f77b4"/>
     <use xlink:href="#mb1463be81d" x="129.615507" y="57.14098" style="fill: #1f77b4; stroke: #1f77b4"/>
     <use xlink:href="#mb1463be81d" x="133.481915" y="56.87601" style="fill: #1f77b4; stroke: #1f77b4"/>
     <use xlink:href="#mb1463be81d" x="137.348323" y="56.745318" style="fill: #1f77b4; stroke: #1f77b4"/>
     <use xlink:href="#mb1463be81d" x="141.214731" y="56.553344" style="fill: #1f77b4; stroke: #1f77b4"/>
     <use xlink:href="#mb1463be81d" x="145.081139" y="56.265837" style="fill: #1f77b4; stroke: #1f77b4"/>
     <use xlink:href="#mb1463be81d" x="148.947547" y="56.222582" style="fill: #1f77b4; stroke: #1f77b4"/>
     <use xlink:href="#mb1463be81d" x="152.813955" y="56.0315" style="fill: #1f77b4; stroke: #1f77b4"/>
     <use xlink:href="#mb1463be81d" x="156.680363" y="55.901716" style="fill: #1f77b4; stroke: #1f77b4"/>
     <use xlink:href="#mb1463be81d" x="160.546771" y="55.729569" style="fill: #1f77b4; stroke: #1f77b4"/>
     <use xlink:href="#mb1463be81d" x="164.413179" y="55.599786" style="fill: #1f77b4; stroke: #1f77b4"/>
     <use xlink:href="#mb1463be81d" x="168.279587" y="55.520478" style="fill: #1f77b4; stroke: #1f77b4"/>
     <use xlink:href="#mb1463be81d" x="172.145995" y="55.455595" style="fill: #1f77b4; stroke: #1f77b4"/>
     <use xlink:href="#mb1463be81d" x="176.012403" y="55.28705" style="fill: #1f77b4; stroke: #1f77b4"/>
     <use xlink:href="#mb1463be81d" x="179.878811" y="55.2546" style="fill: #1f77b4; stroke: #1f77b4"/>
     <use xlink:href="#mb1463be81d" x="183.745219" y="55.050912" style="fill: #1f77b4; stroke: #1f77b4"/>
     <use xlink:href="#mb1463be81d" x="187.611627" y="55.080652" style="fill: #1f77b4; stroke: #1f77b4"/>
     <use xlink:href="#mb1463be81d" x="191.478035" y="54.877872" style="fill: #1f77b4; stroke: #1f77b4"/>
     <use xlink:href="#mb1463be81d" x="195.344443" y="54.774227" style="fill: #1f77b4; stroke: #1f77b4"/>
     <use xlink:href="#mb1463be81d" x="199.210851" y="54.769717" style="fill: #1f77b4; stroke: #1f77b4"/>
     <use xlink:href="#mb1463be81d" x="203.077259" y="54.59757" style="fill: #1f77b4; stroke: #1f77b4"/>
     <use xlink:href="#mb1463be81d" x="206.943667" y="54.476807" style="fill: #1f77b4; stroke: #1f77b4"/>
     <use xlink:href="#mb1463be81d" x="210.810075" y="54.392973" style="fill: #1f77b4; stroke: #1f77b4"/>
     <use xlink:href="#mb1463be81d" x="214.676483" y="54.318176" style="fill: #1f77b4; stroke: #1f77b4"/>
     <use xlink:href="#mb1463be81d" x="218.542891" y="54.271302" style="fill: #1f77b4; stroke: #1f77b4"/>
     <use xlink:href="#mb1463be81d" x="222.409299" y="54.626418" style="fill: #1f77b4; stroke: #1f77b4"/>
     <use xlink:href="#mb1463be81d" x="226.275707" y="54.028869" style="fill: #1f77b4; stroke: #1f77b4"/>
     <use xlink:href="#mb1463be81d" x="230.142115" y="53.973882" style="fill: #1f77b4; stroke: #1f77b4"/>
     <use xlink:href="#mb1463be81d" x="234.008523" y="53.754877" style="fill: #1f77b4; stroke: #1f77b4"/>
     <use xlink:href="#mb1463be81d" x="237.874931" y="53.789128" style="fill: #1f77b4; stroke: #1f77b4"/>
     <use xlink:href="#mb1463be81d" x="241.741339" y="53.816159" style="fill: #1f77b4; stroke: #1f77b4"/>
     <use xlink:href="#mb1463be81d" x="245.607747" y="53.626895" style="fill: #1f77b4; stroke: #1f77b4"/>
     <use xlink:href="#mb1463be81d" x="249.474155" y="53.625986" style="fill: #1f77b4; stroke: #1f77b4"/>
     <use xlink:href="#mb1463be81d" x="253.340563" y="53.40338" style="fill: #1f77b4; stroke: #1f77b4"/>
     <use xlink:href="#mb1463be81d" x="257.206971" y="53.393466" style="fill: #1f77b4; stroke: #1f77b4"/>
     <use xlink:href="#mb1463be81d" x="261.073379" y="53.273596" style="fill: #1f77b4; stroke: #1f77b4"/>
     <use xlink:href="#mb1463be81d" x="264.939787" y="53.311449" style="fill: #1f77b4; stroke: #1f77b4"/>
     <use xlink:href="#mb1463be81d" x="268.806195" y="53.195181" style="fill: #1f77b4; stroke: #1f77b4"/>
     <use xlink:href="#mb1463be81d" x="272.672603" y="53.322255" style="fill: #1f77b4; stroke: #1f77b4"/>
     <use xlink:href="#mb1463be81d" x="276.539011" y="53.150124" style="fill: #1f77b4; stroke: #1f77b4"/>
     <use xlink:href="#mb1463be81d" x="280.405419" y="53.215008" style="fill: #1f77b4; stroke: #1f77b4"/>
     <use xlink:href="#mb1463be81d" x="284.271826" y="53.095138" style="fill: #1f77b4; stroke: #1f77b4"/>
     <use xlink:href="#mb1463be81d" x="288.138234" y="53.174445" style="fill: #1f77b4; stroke: #1f77b4"/>
     <use xlink:href="#mb1463be81d" x="292.004642" y="53.091536" style="fill: #1f77b4; stroke: #1f77b4"/>
     <use xlink:href="#mb1463be81d" x="295.87105" y="53.010427" style="fill: #1f77b4; stroke: #1f77b4"/>
     <use xlink:href="#mb1463be81d" x="299.737458" y="52.964462" style="fill: #1f77b4; stroke: #1f77b4"/>
     <use xlink:href="#mb1463be81d" x="303.603866" y="52.923899" style="fill: #1f77b4; stroke: #1f77b4"/>
    </g>
   </g>
   <g id="line2d_28">
    <path d="M 56.153756 214.333339 
L 60.020164 249.589323 
L 63.886572 257.400143 
L 67.752979 262.150166 
L 71.619387 265.663515 
L 75.485795 268.508806 
L 79.352203 271.05319 
L 83.218611 272.45035 
L 87.085019 274.134611 
L 90.951427 275.270423 
L 94.817835 276.189511 
L 98.684243 277.581103 
L 102.550651 278.696667 
L 106.417059 279.165606 
L 110.283467 280.098354 
L 114.149875 281.153867 
L 118.016283 281.579096 
L 121.882691 282.608657 
L 125.749099 282.976821 
L 129.615507 283.378118 
L 133.481915 284.092377 
L 137.348323 284.379623 
L 141.214731 284.722885 
L 145.081139 285.434434 
L 148.947547 285.763875 
L 152.813955 285.792072 
L 156.680363 286.286867 
L 160.546771 286.527317 
L 164.413179 286.97821 
L 168.279587 287.347211 
L 172.145995 287.524734 
L 176.012403 287.760432 
L 179.878811 288.007417 
L 183.745219 288.257133 
L 187.611627 288.319084 
L 191.478035 288.843988 
L 195.344443 289.054194 
L 199.210851 289.223394 
L 203.077259 289.666936 
L 206.943667 289.835244 
L 210.810075 290.014954 
L 214.676483 290.191403 
L 218.542891 290.495176 
L 222.409299 289.465906 
L 226.275707 291.033806 
L 230.142115 291.103229 
L 234.008523 291.712198 
L 237.874931 291.530914 
L 241.741339 291.722664 
L 245.607747 292.124956 
L 249.474155 292.154915 
L 253.340563 292.427287 
L 257.206971 292.483501 
L 261.073379 292.835259 
L 264.939787 292.732192 
L 268.806195 293.118 
L 272.672603 292.971951 
L 276.539011 293.167311 
L 280.405419 293.191149 
L 284.271826 293.384085 
L 288.138234 293.052268 
L 292.004642 293.742093 
L 295.87105 293.82126 
L 299.737458 293.907695 
L 303.603866 293.897614 
" clip-path="url(#p8538e89072)" style="fill: none; stroke: #ff7f0e; stroke-width: 1.5; stroke-linecap: square"/>
    <defs>
     <path id="me5c51c9389" d="M 0 1.5 
C 0.397805 1.5 0.77937 1.341951 1.06066 1.06066 
C 1.341951 0.77937 1.5 0.397805 1.5 0 
C 1.5 -0.397805 1.341951 -0.77937 1.06066 -1.06066 
C 0.77937 -1.341951 0.397805 -1.5 0 -1.5 
C -0.397805 -1.5 -0.77937 -1.341951 -1.06066 -1.06066 
C -1.341951 -0.77937 -1.5 -0.397805 -1.5 0 
C -1.5 0.397805 -1.341951 0.77937 -1.06066 1.06066 
C -0.77937 1.341951 -0.397805 1.5 0 1.5 
z
" style="stroke: #ff7f0e"/>
    </defs>
    <g clip-path="url(#p8538e89072)">
     <use xlink:href="#me5c51c9389" x="56.153756" y="214.333339" style="fill: #ff7f0e; stroke: #ff7f0e"/>
     <use xlink:href="#me5c51c9389" x="60.020164" y="249.589323" style="fill: #ff7f0e; stroke: #ff7f0e"/>
     <use xlink:href="#me5c51c9389" x="63.886572" y="257.400143" style="fill: #ff7f0e; stroke: #ff7f0e"/>
     <use xlink:href="#me5c51c9389" x="67.752979" y="262.150166" style="fill: #ff7f0e; stroke: #ff7f0e"/>
     <use xlink:href="#me5c51c9389" x="71.619387" y="265.663515" style="fill: #ff7f0e; stroke: #ff7f0e"/>
     <use xlink:href="#me5c51c9389" x="75.485795" y="268.508806" style="fill: #ff7f0e; stroke: #ff7f0e"/>
     <use xlink:href="#me5c51c9389" x="79.352203" y="271.05319" style="fill: #ff7f0e; stroke: #ff7f0e"/>
     <use xlink:href="#me5c51c9389" x="83.218611" y="272.45035" style="fill: #ff7f0e; stroke: #ff7f0e"/>
     <use xlink:href="#me5c51c9389" x="87.085019" y="274.134611" style="fill: #ff7f0e; stroke: #ff7f0e"/>
     <use xlink:href="#me5c51c9389" x="90.951427" y="275.270423" style="fill: #ff7f0e; stroke: #ff7f0e"/>
     <use xlink:href="#me5c51c9389" x="94.817835" y="276.189511" style="fill: #ff7f0e; stroke: #ff7f0e"/>
     <use xlink:href="#me5c51c9389" x="98.684243" y="277.581103" style="fill: #ff7f0e; stroke: #ff7f0e"/>
     <use xlink:href="#me5c51c9389" x="102.550651" y="278.696667" style="fill: #ff7f0e; stroke: #ff7f0e"/>
     <use xlink:href="#me5c51c9389" x="106.417059" y="279.165606" style="fill: #ff7f0e; stroke: #ff7f0e"/>
     <use xlink:href="#me5c51c9389" x="110.283467" y="280.098354" style="fill: #ff7f0e; stroke: #ff7f0e"/>
     <use xlink:href="#me5c51c9389" x="114.149875" y="281.153867" style="fill: #ff7f0e; stroke: #ff7f0e"/>
     <use xlink:href="#me5c51c9389" x="118.016283" y="281.579096" style="fill: #ff7f0e; stroke: #ff7f0e"/>
     <use xlink:href="#me5c51c9389" x="121.882691" y="282.608657" style="fill: #ff7f0e; stroke: #ff7f0e"/>
     <use xlink:href="#me5c51c9389" x="125.749099" y="282.976821" style="fill: #ff7f0e; stroke: #ff7f0e"/>
     <use xlink:href="#me5c51c9389" x="129.615507" y="283.378118" style="fill: #ff7f0e; stroke: #ff7f0e"/>
     <use xlink:href="#me5c51c9389" x="133.481915" y="284.092377" style="fill: #ff7f0e; stroke: #ff7f0e"/>
     <use xlink:href="#me5c51c9389" x="137.348323" y="284.379623" style="fill: #ff7f0e; stroke: #ff7f0e"/>
     <use xlink:href="#me5c51c9389" x="141.214731" y="284.722885" style="fill: #ff7f0e; stroke: #ff7f0e"/>
     <use xlink:href="#me5c51c9389" x="145.081139" y="285.434434" style="fill: #ff7f0e; stroke: #ff7f0e"/>
     <use xlink:href="#me5c51c9389" x="148.947547" y="285.763875" style="fill: #ff7f0e; stroke: #ff7f0e"/>
     <use xlink:href="#me5c51c9389" x="152.813955" y="285.792072" style="fill: #ff7f0e; stroke: #ff7f0e"/>
     <use xlink:href="#me5c51c9389" x="156.680363" y="286.286867" style="fill: #ff7f0e; stroke: #ff7f0e"/>
     <use xlink:href="#me5c51c9389" x="160.546771" y="286.527317" style="fill: #ff7f0e; stroke: #ff7f0e"/>
     <use xlink:href="#me5c51c9389" x="164.413179" y="286.97821" style="fill: #ff7f0e; stroke: #ff7f0e"/>
     <use xlink:href="#me5c51c9389" x="168.279587" y="287.347211" style="fill: #ff7f0e; stroke: #ff7f0e"/>
     <use xlink:href="#me5c51c9389" x="172.145995" y="287.524734" style="fill: #ff7f0e; stroke: #ff7f0e"/>
     <use xlink:href="#me5c51c9389" x="176.012403" y="287.760432" style="fill: #ff7f0e; stroke: #ff7f0e"/>
     <use xlink:href="#me5c51c9389" x="179.878811" y="288.007417" style="fill: #ff7f0e; stroke: #ff7f0e"/>
     <use xlink:href="#me5c51c9389" x="183.745219" y="288.257133" style="fill: #ff7f0e; stroke: #ff7f0e"/>
     <use xlink:href="#me5c51c9389" x="187.611627" y="288.319084" style="fill: #ff7f0e; stroke: #ff7f0e"/>
     <use xlink:href="#me5c51c9389" x="191.478035" y="288.843988" style="fill: #ff7f0e; stroke: #ff7f0e"/>
     <use xlink:href="#me5c51c9389" x="195.344443" y="289.054194" style="fill: #ff7f0e; stroke: #ff7f0e"/>
     <use xlink:href="#me5c51c9389" x="199.210851" y="289.223394" style="fill: #ff7f0e; stroke: #ff7f0e"/>
     <use xlink:href="#me5c51c9389" x="203.077259" y="289.666936" style="fill: #ff7f0e; stroke: #ff7f0e"/>
     <use xlink:href="#me5c51c9389" x="206.943667" y="289.835244" style="fill: #ff7f0e; stroke: #ff7f0e"/>
     <use xlink:href="#me5c51c9389" x="210.810075" y="290.014954" style="fill: #ff7f0e; stroke: #ff7f0e"/>
     <use xlink:href="#me5c51c9389" x="214.676483" y="290.191403" style="fill: #ff7f0e; stroke: #ff7f0e"/>
     <use xlink:href="#me5c51c9389" x="218.542891" y="290.495176" style="fill: #ff7f0e; stroke: #ff7f0e"/>
     <use xlink:href="#me5c51c9389" x="222.409299" y="289.465906" style="fill: #ff7f0e; stroke: #ff7f0e"/>
     <use xlink:href="#me5c51c9389" x="226.275707" y="291.033806" style="fill: #ff7f0e; stroke: #ff7f0e"/>
     <use xlink:href="#me5c51c9389" x="230.142115" y="291.103229" style="fill: #ff7f0e; stroke: #ff7f0e"/>
     <use xlink:href="#me5c51c9389" x="234.008523" y="291.712198" style="fill: #ff7f0e; stroke: #ff7f0e"/>
     <use xlink:href="#me5c51c9389" x="237.874931" y="291.530914" style="fill: #ff7f0e; stroke: #ff7f0e"/>
     <use xlink:href="#me5c51c9389" x="241.741339" y="291.722664" style="fill: #ff7f0e; stroke: #ff7f0e"/>
     <use xlink:href="#me5c51c9389" x="245.607747" y="292.124956" style="fill: #ff7f0e; stroke: #ff7f0e"/>
     <use xlink:href="#me5c51c9389" x="249.474155" y="292.154915" style="fill: #ff7f0e; stroke: #ff7f0e"/>
     <use xlink:href="#me5c51c9389" x="253.340563" y="292.427287" style="fill: #ff7f0e; stroke: #ff7f0e"/>
     <use xlink:href="#me5c51c9389" x="257.206971" y="292.483501" style="fill: #ff7f0e; stroke: #ff7f0e"/>
     <use xlink:href="#me5c51c9389" x="261.073379" y="292.835259" style="fill: #ff7f0e; stroke: #ff7f0e"/>
     <use xlink:href="#me5c51c9389" x="264.939787" y="292.732192" style="fill: #ff7f0e; stroke: #ff7f0e"/>
     <use xlink:href="#me5c51c9389" x="268.806195" y="293.118" style="fill: #ff7f0e; stroke: #ff7f0e"/>
     <use xlink:href="#me5c51c9389" x="272.672603" y="292.971951" style="fill: #ff7f0e; stroke: #ff7f0e"/>
     <use xlink:href="#me5c51c9389" x="276.539011" y="293.167311" style="fill: #ff7f0e; stroke: #ff7f0e"/>
     <use xlink:href="#me5c51c9389" x="280.405419" y="293.191149" style="fill: #ff7f0e; stroke: #ff7f0e"/>
     <use xlink:href="#me5c51c9389" x="284.271826" y="293.384085" style="fill: #ff7f0e; stroke: #ff7f0e"/>
     <use xlink:href="#me5c51c9389" x="288.138234" y="293.052268" style="fill: #ff7f0e; stroke: #ff7f0e"/>
     <use xlink:href="#me5c51c9389" x="292.004642" y="293.742093" style="fill: #ff7f0e; stroke: #ff7f0e"/>
     <use xlink:href="#me5c51c9389" x="295.87105" y="293.82126" style="fill: #ff7f0e; stroke: #ff7f0e"/>
     <use xlink:href="#me5c51c9389" x="299.737458" y="293.907695" style="fill: #ff7f0e; stroke: #ff7f0e"/>
     <use xlink:href="#me5c51c9389" x="303.603866" y="293.897614" style="fill: #ff7f0e; stroke: #ff7f0e"/>
    </g>
   </g>
   <g id="patch_3">
    <path d="M 43.78125 320.4 
L 43.78125 43.2 
" style="fill: none; stroke: #000000; stroke-width: 0.8; stroke-linejoin: miter; stroke-linecap: square"/>
   </g>
   <g id="patch_4">
    <path d="M 315.976372 320.4 
L 315.976372 43.2 
" style="fill: none; stroke: #000000; stroke-width: 0.8; stroke-linejoin: miter; stroke-linecap: square"/>
   </g>
   <g id="patch_5">
    <path d="M 43.78125 320.4 
L 315.976372 320.4 
" style="fill: none; stroke: #000000; stroke-width: 0.8; stroke-linejoin: miter; stroke-linecap: square"/>
   </g>
   <g id="patch_6">
    <path d="M 43.78125 43.2 
L 315.976372 43.2 
" style="fill: none; stroke: #000000; stroke-width: 0.8; stroke-linejoin: miter; stroke-linecap: square"/>
   </g>
   <g id="text_16">
    <!-- Train set -->
    <g transform="translate(154.409748 37.2) scale(0.12 -0.12)">
     <defs>
      <path id="DejaVuSans-54" d="M -19 4666 
L 3928 4666 
L 3928 4134 
L 2272 4134 
L 2272 0 
L 1638 0 
L 1638 4134 
L -19 4134 
L -19 4666 
z
" transform="scale(0.015625)"/>
      <path id="DejaVuSans-69" d="M 603 3500 
L 1178 3500 
L 1178 0 
L 603 0 
L 603 3500 
z
M 603 4863 
L 1178 4863 
L 1178 4134 
L 603 4134 
L 603 4863 
z
" transform="scale(0.015625)"/>
      <path id="DejaVuSans-6e" d="M 3513 2113 
L 3513 0 
L 2938 0 
L 2938 2094 
Q 2938 2591 2744 2837 
Q 2550 3084 2163 3084 
Q 1697 3084 1428 2787 
Q 1159 2491 1159 1978 
L 1159 0 
L 581 0 
L 581 3500 
L 1159 3500 
L 1159 2956 
Q 1366 3272 1645 3428 
Q 1925 3584 2291 3584 
Q 2894 3584 3203 3211 
Q 3513 2838 3513 2113 
z
" transform="scale(0.015625)"/>
      <path id="DejaVuSans-65" d="M 3597 1894 
L 3597 1613 
L 953 1613 
Q 991 1019 1311 708 
Q 1631 397 2203 397 
Q 2534 397 2845 478 
Q 3156 559 3463 722 
L 3463 178 
Q 3153 47 2828 -22 
Q 2503 -91 2169 -91 
Q 1331 -91 842 396 
Q 353 884 353 1716 
Q 353 2575 817 3079 
Q 1281 3584 2069 3584 
Q 2775 3584 3186 3129 
Q 3597 2675 3597 1894 
z
M 3022 2063 
Q 3016 2534 2758 2815 
Q 2500 3097 2075 3097 
Q 1594 3097 1305 2825 
Q 1016 2553 972 2059 
L 3022 2063 
z
" transform="scale(0.015625)"/>
      <path id="DejaVuSans-74" d="M 1172 4494 
L 1172 3500 
L 2356 3500 
L 2356 3053 
L 1172 3053 
L 1172 1153 
Q 1172 725 1289 603 
Q 1406 481 1766 481 
L 2356 481 
L 2356 0 
L 1766 0 
Q 1100 0 847 248 
Q 594 497 594 1153 
L 594 3053 
L 172 3053 
L 172 3500 
L 594 3500 
L 594 4494 
L 1172 4494 
z
" transform="scale(0.015625)"/>
     </defs>
     <use xlink:href="#DejaVuSans-54"/>
     <use xlink:href="#DejaVuSans-72" x="46.333984"/>
     <use xlink:href="#DejaVuSans-61" x="87.447266"/>
     <use xlink:href="#DejaVuSans-69" x="148.726562"/>
     <use xlink:href="#DejaVuSans-6e" x="176.509766"/>
     <use xlink:href="#DejaVuSans-20" x="239.888672"/>
     <use xlink:href="#DejaVuSans-73" x="271.675781"/>
     <use xlink:href="#DejaVuSans-65" x="323.775391"/>
     <use xlink:href="#DejaVuSans-74" x="385.298828"/>
    </g>
   </g>
   <g id="legend_1">
    <g id="patch_7">
     <path d="M 223.229497 223.993125 
L 308.976372 223.993125 
Q 310.976372 223.993125 310.976372 221.993125 
L 310.976372 141.606875 
Q 310.976372 139.606875 308.976372 139.606875 
L 223.229497 139.606875 
Q 221.229497 139.606875 221.229497 141.606875 
L 221.229497 221.993125 
Q 221.229497 223.993125 223.229497 223.993125 
z
" style="fill: #ffffff; opacity: 0.8; stroke: #cccccc; stroke-linejoin: miter"/>
    </g>
    <g id="line2d_29">
     <path d="M 225.229497 154.483125 
L 235.229497 154.483125 
L 245.229497 154.483125 
" style="fill: none; stroke: #1f77b4; stroke-width: 1.5; stroke-linecap: square"/>
     <g>
      <use xlink:href="#mb1463be81d" x="235.229497" y="154.483125" style="fill: #1f77b4; stroke: #1f77b4"/>
     </g>
    </g>
    <g id="text_17">
     <!-- Mean -->
     <g transform="translate(253.229497 151.205312) scale(0.1 -0.1)">
      <defs>
       <path id="DejaVuSans-4d" d="M 628 4666 
L 1569 4666 
L 2759 1491 
L 3956 4666 
L 4897 4666 
L 4897 0 
L 4281 0 
L 4281 4097 
L 3078 897 
L 2444 897 
L 1241 4097 
L 1241 0 
L 628 0 
L 628 4666 
z
" transform="scale(0.015625)"/>
      </defs>
      <use xlink:href="#DejaVuSans-4d"/>
      <use xlink:href="#DejaVuSans-65" x="86.279297"/>
      <use xlink:href="#DejaVuSans-61" x="147.802734"/>
      <use xlink:href="#DejaVuSans-6e" x="209.082031"/>
     </g>
     <!-- binary_acc -->
     <g transform="translate(253.229497 162.403125) scale(0.1 -0.1)">
      <defs>
       <path id="DejaVuSans-62" d="M 3116 1747 
Q 3116 2381 2855 2742 
Q 2594 3103 2138 3103 
Q 1681 3103 1420 2742 
Q 1159 2381 1159 1747 
Q 1159 1113 1420 752 
Q 1681 391 2138 391 
Q 2594 391 2855 752 
Q 3116 1113 3116 1747 
z
M 1159 2969 
Q 1341 3281 1617 3432 
Q 1894 3584 2278 3584 
Q 2916 3584 3314 3078 
Q 3713 2572 3713 1747 
Q 3713 922 3314 415 
Q 2916 -91 2278 -91 
Q 1894 -91 1617 61 
Q 1341 213 1159 525 
L 1159 0 
L 581 0 
L 581 4863 
L 1159 4863 
L 1159 2969 
z
" transform="scale(0.015625)"/>
       <path id="DejaVuSans-5f" d="M 3263 -1063 
L 3263 -1509 
L -63 -1509 
L -63 -1063 
L 3263 -1063 
z
" transform="scale(0.015625)"/>
      </defs>
      <use xlink:href="#DejaVuSans-62"/>
      <use xlink:href="#DejaVuSans-69" x="63.476562"/>
      <use xlink:href="#DejaVuSans-6e" x="91.259766"/>
      <use xlink:href="#DejaVuSans-61" x="154.638672"/>
      <use xlink:href="#DejaVuSans-72" x="215.917969"/>
      <use xlink:href="#DejaVuSans-79" x="257.03125"/>
      <use xlink:href="#DejaVuSans-5f" x="316.210938"/>
      <use xlink:href="#DejaVuSans-61" x="366.210938"/>
      <use xlink:href="#DejaVuSans-63" x="427.490234"/>
      <use xlink:href="#DejaVuSans-63" x="482.470703"/>
     </g>
    </g>
    <g id="patch_8">
     <path d="M 225.229497 177.359375 
L 245.229497 177.359375 
L 245.229497 170.359375 
L 225.229497 170.359375 
z
" style="fill: #1f77b4; fill-opacity: 0.25"/>
    </g>
    <g id="text_18">
     <!-- $\pm 1 \sigma$ -->
     <g transform="translate(253.229497 177.359375) scale(0.1 -0.1)">
      <defs>
       <path id="DejaVuSans-b1" d="M 2944 4013 
L 2944 2803 
L 4684 2803 
L 4684 2272 
L 2944 2272 
L 2944 1063 
L 2419 1063 
L 2419 2272 
L 678 2272 
L 678 2803 
L 2419 2803 
L 2419 4013 
L 2944 4013 
z
M 678 531 
L 4684 531 
L 4684 0 
L 678 0 
L 678 531 
z
" transform="scale(0.015625)"/>
       <path id="DejaVuSans-Oblique-3c3" d="M 2219 3044 
Q 1744 3044 1422 2700 
Q 1081 2341 969 1747 
Q 844 1119 1044 756 
Q 1241 397 1706 397 
Q 2166 397 2503 759 
Q 2844 1122 2966 1747 
Q 3075 2319 2881 2700 
Q 2700 3044 2219 3044 
z
M 2309 3503 
L 4219 3500 
L 4106 2925 
L 3463 2925 
Q 3706 2438 3575 1747 
Q 3406 888 2884 400 
Q 2359 -91 1609 -91 
Q 856 -91 525 400 
Q 194 888 363 1747 
Q 528 2609 1050 3097 
Q 1484 3503 2309 3503 
z
" transform="scale(0.015625)"/>
      </defs>
      <use xlink:href="#DejaVuSans-b1" transform="translate(0 0.09375)"/>
      <use xlink:href="#DejaVuSans-31" transform="translate(83.789062 0.09375)"/>
      <use xlink:href="#DejaVuSans-Oblique-3c3" transform="translate(147.412109 0.09375)"/>
     </g>
    </g>
    <g id="line2d_30">
     <path d="M 225.229497 195.17625 
L 235.229497 195.17625 
L 245.229497 195.17625 
" style="fill: none; stroke: #ff7f0e; stroke-width: 1.5; stroke-linecap: square"/>
     <g>
      <use xlink:href="#me5c51c9389" x="235.229497" y="195.17625" style="fill: #ff7f0e; stroke: #ff7f0e"/>
     </g>
    </g>
    <g id="text_19">
     <!-- Mean -->
     <g transform="translate(253.229497 192.0375) scale(0.1 -0.1)">
      <use xlink:href="#DejaVuSans-4d"/>
      <use xlink:href="#DejaVuSans-65" x="86.279297"/>
      <use xlink:href="#DejaVuSans-61" x="147.802734"/>
      <use xlink:href="#DejaVuSans-6e" x="209.082031"/>
     </g>
     <!-- loss -->
     <g transform="translate(253.229497 203.235312) scale(0.1 -0.1)">
      <defs>
       <path id="DejaVuSans-6c" d="M 603 4863 
L 1178 4863 
L 1178 0 
L 603 0 
L 603 4863 
z
" transform="scale(0.015625)"/>
      </defs>
      <use xlink:href="#DejaVuSans-6c"/>
      <use xlink:href="#DejaVuSans-6f" x="27.783203"/>
      <use xlink:href="#DejaVuSans-73" x="88.964844"/>
      <use xlink:href="#DejaVuSans-73" x="141.064453"/>
     </g>
    </g>
    <g id="patch_9">
     <path d="M 225.229497 217.913437 
L 245.229497 217.913437 
L 245.229497 210.913437 
L 225.229497 210.913437 
z
" style="fill: #ff7f0e; fill-opacity: 0.25"/>
    </g>
    <g id="text_20">
     <!-- $\pm 1 \sigma$ -->
     <g transform="translate(253.229497 217.913437) scale(0.1 -0.1)">
      <use xlink:href="#DejaVuSans-b1" transform="translate(0 0.09375)"/>
      <use xlink:href="#DejaVuSans-31" transform="translate(83.789062 0.09375)"/>
      <use xlink:href="#DejaVuSans-Oblique-3c3" transform="translate(147.412109 0.09375)"/>
     </g>
    </g>
   </g>
  </g>
  <g id="axes_2">
   <g id="patch_10">
    <path d="M 329.586128 320.4 
L 601.78125 320.4 
L 601.78125 43.2 
L 329.586128 43.2 
L 329.586128 320.4 
z
" style="fill: none"/>
   </g>
   <g id="PolyCollection_3">
    <path d="M 341.958634 78.622852 
L 341.958634 78.622852 
L 345.825042 68.860753 
L 349.69145 67.973285 
L 353.557858 66.135266 
L 357.424266 63.695799 
L 361.290674 68.162549 
L 365.157081 61.407726 
L 369.023489 63.485485 
L 372.889897 59.397263 
L 376.756305 60.103877 
L 380.622713 59.422509 
L 384.489121 60.63803 
L 388.355529 62.56859 
L 392.221937 59.144916 
L 396.088345 59.679069 
L 399.954753 59.519248 
L 403.821161 60.85254 
L 407.687569 58.783191 
L 411.553977 57.311094 
L 415.420385 56.970419 
L 419.286793 56.011442 
L 423.153201 57.487752 
L 427.019609 58.589714 
L 430.886017 58.6486 
L 434.752425 56.40261 
L 438.618833 57.567671 
L 442.485241 59.325771 
L 446.351649 55.872654 
L 450.218057 56.364757 
L 454.084465 54.324851 
L 457.950873 56.87368 
L 461.817281 54.101931 
L 465.683689 60.675883 
L 469.550097 55.447846 
L 473.416505 54.791708 
L 477.282913 55.212302 
L 481.149321 55.889473 
L 485.015729 53.614024 
L 488.882137 55.203893 
L 492.748545 54.716002 
L 496.614953 57.689639 
L 500.481361 54.947333 
L 504.347769 54.308015 
L 508.214177 55.128187 
L 512.080585 58.312121 
L 515.946993 56.612907 
L 519.813401 56.957796 
L 523.679809 57.109207 
L 527.546217 53.820124 
L 531.412625 53.496269 
L 535.279033 54.791708 
L 539.145441 56.16287 
L 543.011849 55.283811 
L 546.878257 55.027252 
L 550.744665 55.767505 
L 554.611073 55.37214 
L 558.477481 54.938923 
L 562.343889 56.230165 
L 566.210297 55.826391 
L 570.076705 55.044071 
L 573.943113 58.459336 
L 577.809521 55.531961 
L 581.675928 54.299605 
L 585.542336 55.473076 
L 589.408744 54.589821 
L 589.408744 54.589821 
L 589.408744 54.589821 
L 585.542336 55.473076 
L 581.675928 54.299605 
L 577.809521 55.531961 
L 573.943113 58.459336 
L 570.076705 55.044071 
L 566.210297 55.826391 
L 562.343889 56.230165 
L 558.477481 54.938923 
L 554.611073 55.37214 
L 550.744665 55.767505 
L 546.878257 55.027252 
L 543.011849 55.283811 
L 539.145441 56.16287 
L 535.279033 54.791708 
L 531.412625 53.496269 
L 527.546217 53.820124 
L 523.679809 57.109207 
L 519.813401 56.957796 
L 515.946993 56.612907 
L 512.080585 58.312121 
L 508.214177 55.128187 
L 504.347769 54.308015 
L 500.481361 54.947333 
L 496.614953 57.689639 
L 492.748545 54.716002 
L 488.882137 55.203893 
L 485.015729 53.614024 
L 481.149321 55.889473 
L 477.282913 55.212302 
L 473.416505 54.791708 
L 469.550097 55.447846 
L 465.683689 60.675883 
L 461.817281 54.101931 
L 457.950873 56.87368 
L 454.084465 54.324851 
L 450.218057 56.364757 
L 446.351649 55.872654 
L 442.485241 59.325771 
L 438.618833 57.567671 
L 434.752425 56.40261 
L 430.886017 58.6486 
L 427.019609 58.589714 
L 423.153201 57.487752 
L 419.286793 56.011442 
L 415.420385 56.970419 
L 411.553977 57.311094 
L 407.687569 58.783191 
L 403.821161 60.85254 
L 399.954753 59.519248 
L 396.088345 59.679069 
L 392.221937 59.144916 
L 388.355529 62.56859 
L 384.489121 60.63803 
L 380.622713 59.422509 
L 376.756305 60.103877 
L 372.889897 59.397263 
L 369.023489 63.485485 
L 365.157081 61.407726 
L 361.290674 68.162549 
L 357.424266 63.695799 
L 353.557858 66.135266 
L 349.69145 67.973285 
L 345.825042 68.860753 
L 341.958634 78.622852 
z
" clip-path="url(#p5787f95994)" style="fill: #1f77b4; fill-opacity: 0.25"/>
   </g>
   <g id="PolyCollection_4">
    <path d="M 341.958634 238.343429 
L 341.958634 238.343429 
L 345.825042 257.894518 
L 349.69145 259.708323 
L 353.557858 264.938004 
L 357.424266 268.904889 
L 361.290674 259.64916 
L 365.157081 274.970579 
L 369.023489 270.333098 
L 372.889897 279.043129 
L 376.756305 277.095307 
L 380.622713 279.311073 
L 384.489121 275.604337 
L 388.355529 271.235862 
L 392.221937 280.023652 
L 396.088345 279.019106 
L 399.954753 278.520534 
L 403.821161 275.661691 
L 407.687569 280.563517 
L 411.553977 283.897718 
L 415.420385 284.717866 
L 419.286793 287.084081 
L 423.153201 283.538154 
L 427.019609 280.647538 
L 430.886017 279.200745 
L 434.752425 286.022804 
L 438.618833 283.739041 
L 442.485241 279.693773 
L 446.351649 287.156245 
L 450.218057 285.764984 
L 454.084465 291.308026 
L 457.950873 284.75519 
L 461.817281 291.889628 
L 465.683689 275.085228 
L 469.550097 288.686131 
L 473.416505 290.546676 
L 477.282913 289.32195 
L 481.149321 287.847683 
L 485.015729 292.967618 
L 488.882137 289.380793 
L 492.748545 290.538202 
L 496.614953 283.661341 
L 500.481361 289.791381 
L 504.347769 292.092331 
L 508.214177 290.151861 
L 512.080585 281.604235 
L 515.946993 286.249154 
L 519.813401 285.278244 
L 523.679809 283.350942 
L 527.546217 292.790101 
L 531.412625 293.630189 
L 535.279033 290.15537 
L 539.145441 287.621693 
L 543.011849 288.95397 
L 546.878257 290.098314 
L 550.744665 288.254407 
L 554.611073 288.634079 
L 558.477481 290.603001 
L 562.343889 286.92907 
L 566.210297 287.89401 
L 570.076705 289.320866 
L 573.943113 280.707064 
L 577.809521 288.416531 
L 581.675928 291.031576 
L 585.542336 287.941218 
L 589.408744 290.540943 
L 589.408744 290.540943 
L 589.408744 290.540943 
L 585.542336 287.941218 
L 581.675928 291.031576 
L 577.809521 288.416531 
L 573.943113 280.707064 
L 570.076705 289.320866 
L 566.210297 287.89401 
L 562.343889 286.92907 
L 558.477481 290.603001 
L 554.611073 288.634079 
L 550.744665 288.254407 
L 546.878257 290.098314 
L 543.011849 288.95397 
L 539.145441 287.621693 
L 535.279033 290.15537 
L 531.412625 293.630189 
L 527.546217 292.790101 
L 523.679809 283.350942 
L 519.813401 285.278244 
L 515.946993 286.249154 
L 512.080585 281.604235 
L 508.214177 290.151861 
L 504.347769 292.092331 
L 500.481361 289.791381 
L 496.614953 283.661341 
L 492.748545 290.538202 
L 488.882137 289.380793 
L 485.015729 292.967618 
L 481.149321 287.847683 
L 477.282913 289.32195 
L 473.416505 290.546676 
L 469.550097 288.686131 
L 465.683689 275.085228 
L 461.817281 291.889628 
L 457.950873 284.75519 
L 454.084465 291.308026 
L 450.218057 285.764984 
L 446.351649 287.156245 
L 442.485241 279.693773 
L 438.618833 283.739041 
L 434.752425 286.022804 
L 430.886017 279.200745 
L 427.019609 280.647538 
L 423.153201 283.538154 
L 419.286793 287.084081 
L 415.420385 284.717866 
L 411.553977 283.897718 
L 407.687569 280.563517 
L 403.821161 275.661691 
L 399.954753 278.520534 
L 396.088345 279.019106 
L 392.221937 280.023652 
L 388.355529 271.235862 
L 384.489121 275.604337 
L 380.622713 279.311073 
L 376.756305 277.095307 
L 372.889897 279.043129 
L 369.023489 270.333098 
L 365.157081 274.970579 
L 361.290674 259.64916 
L 357.424266 268.904889 
L 353.557858 264.938004 
L 349.69145 259.708323 
L 345.825042 257.894518 
L 341.958634 238.343429 
z
" clip-path="url(#p5787f95994)" style="fill: #ff7f0e; fill-opacity: 0.25"/>
   </g>
   <g id="matplotlib.axis_3">
    <g id="xtick_8">
     <g id="line2d_31">
      <path d="M 341.958634 320.4 
L 341.958634 43.2 
" clip-path="url(#p5787f95994)" style="fill: none; stroke-dasharray: 0.8,1.32; stroke-dashoffset: 0; stroke: #b0b0b0; stroke-opacity: 0.4; stroke-width: 0.8"/>
     </g>
     <g id="line2d_32">
      <g>
       <use xlink:href="#md3187b80e0" x="341.958634" y="320.4" style="stroke: #000000; stroke-width: 0.8"/>
      </g>
     </g>
     <g id="text_21">
      <!-- 0 -->
      <g transform="translate(338.777384 334.998437) scale(0.1 -0.1)">
       <use xlink:href="#DejaVuSans-30"/>
      </g>
     </g>
    </g>
    <g id="xtick_9">
     <g id="line2d_33">
      <path d="M 380.622713 320.4 
L 380.622713 43.2 
" clip-path="url(#p5787f95994)" style="fill: none; stroke-dasharray: 0.8,1.32; stroke-dashoffset: 0; stroke: #b0b0b0; stroke-opacity: 0.4; stroke-width: 0.8"/>
     </g>
     <g id="line2d_34">
      <g>
       <use xlink:href="#md3187b80e0" x="380.622713" y="320.4" style="stroke: #000000; stroke-width: 0.8"/>
      </g>
     </g>
     <g id="text_22">
      <!-- 10 -->
      <g transform="translate(374.260213 334.998437) scale(0.1 -0.1)">
       <use xlink:href="#DejaVuSans-31"/>
       <use xlink:href="#DejaVuSans-30" x="63.623047"/>
      </g>
     </g>
    </g>
    <g id="xtick_10">
     <g id="line2d_35">
      <path d="M 419.286793 320.4 
L 419.286793 43.2 
" clip-path="url(#p5787f95994)" style="fill: none; stroke-dasharray: 0.8,1.32; stroke-dashoffset: 0; stroke: #b0b0b0; stroke-opacity: 0.4; stroke-width: 0.8"/>
     </g>
     <g id="line2d_36">
      <g>
       <use xlink:href="#md3187b80e0" x="419.286793" y="320.4" style="stroke: #000000; stroke-width: 0.8"/>
      </g>
     </g>
     <g id="text_23">
      <!-- 20 -->
      <g transform="translate(412.924293 334.998437) scale(0.1 -0.1)">
       <use xlink:href="#DejaVuSans-32"/>
       <use xlink:href="#DejaVuSans-30" x="63.623047"/>
      </g>
     </g>
    </g>
    <g id="xtick_11">
     <g id="line2d_37">
      <path d="M 457.950873 320.4 
L 457.950873 43.2 
" clip-path="url(#p5787f95994)" style="fill: none; stroke-dasharray: 0.8,1.32; stroke-dashoffset: 0; stroke: #b0b0b0; stroke-opacity: 0.4; stroke-width: 0.8"/>
     </g>
     <g id="line2d_38">
      <g>
       <use xlink:href="#md3187b80e0" x="457.950873" y="320.4" style="stroke: #000000; stroke-width: 0.8"/>
      </g>
     </g>
     <g id="text_24">
      <!-- 30 -->
      <g transform="translate(451.588373 334.998437) scale(0.1 -0.1)">
       <use xlink:href="#DejaVuSans-33"/>
       <use xlink:href="#DejaVuSans-30" x="63.623047"/>
      </g>
     </g>
    </g>
    <g id="xtick_12">
     <g id="line2d_39">
      <path d="M 496.614953 320.4 
L 496.614953 43.2 
" clip-path="url(#p5787f95994)" style="fill: none; stroke-dasharray: 0.8,1.32; stroke-dashoffset: 0; stroke: #b0b0b0; stroke-opacity: 0.4; stroke-width: 0.8"/>
     </g>
     <g id="line2d_40">
      <g>
       <use xlink:href="#md3187b80e0" x="496.614953" y="320.4" style="stroke: #000000; stroke-width: 0.8"/>
      </g>
     </g>
     <g id="text_25">
      <!-- 40 -->
      <g transform="translate(490.252453 334.998437) scale(0.1 -0.1)">
       <use xlink:href="#DejaVuSans-34"/>
       <use xlink:href="#DejaVuSans-30" x="63.623047"/>
      </g>
     </g>
    </g>
    <g id="xtick_13">
     <g id="line2d_41">
      <path d="M 535.279033 320.4 
L 535.279033 43.2 
" clip-path="url(#p5787f95994)" style="fill: none; stroke-dasharray: 0.8,1.32; stroke-dashoffset: 0; stroke: #b0b0b0; stroke-opacity: 0.4; stroke-width: 0.8"/>
     </g>
     <g id="line2d_42">
      <g>
       <use xlink:href="#md3187b80e0" x="535.279033" y="320.4" style="stroke: #000000; stroke-width: 0.8"/>
      </g>
     </g>
     <g id="text_26">
      <!-- 50 -->
      <g transform="translate(528.916533 334.998437) scale(0.1 -0.1)">
       <use xlink:href="#DejaVuSans-35"/>
       <use xlink:href="#DejaVuSans-30" x="63.623047"/>
      </g>
     </g>
    </g>
    <g id="xtick_14">
     <g id="line2d_43">
      <path d="M 573.943113 320.4 
L 573.943113 43.2 
" clip-path="url(#p5787f95994)" style="fill: none; stroke-dasharray: 0.8,1.32; stroke-dashoffset: 0; stroke: #b0b0b0; stroke-opacity: 0.4; stroke-width: 0.8"/>
     </g>
     <g id="line2d_44">
      <g>
       <use xlink:href="#md3187b80e0" x="573.943113" y="320.4" style="stroke: #000000; stroke-width: 0.8"/>
      </g>
     </g>
     <g id="text_27">
      <!-- 60 -->
      <g transform="translate(567.580613 334.998437) scale(0.1 -0.1)">
       <use xlink:href="#DejaVuSans-36"/>
       <use xlink:href="#DejaVuSans-30" x="63.623047"/>
      </g>
     </g>
    </g>
    <g id="text_28">
     <!-- Epochs -->
     <g transform="translate(447.768064 348.676562) scale(0.1 -0.1)">
      <use xlink:href="#DejaVuSans-45"/>
      <use xlink:href="#DejaVuSans-70" x="63.183594"/>
      <use xlink:href="#DejaVuSans-6f" x="126.660156"/>
      <use xlink:href="#DejaVuSans-63" x="187.841797"/>
      <use xlink:href="#DejaVuSans-68" x="242.822266"/>
      <use xlink:href="#DejaVuSans-73" x="306.201172"/>
     </g>
    </g>
   </g>
   <g id="matplotlib.axis_4">
    <g id="ytick_7">
     <g id="line2d_45">
      <path d="M 329.586128 320.4 
L 601.78125 320.4 
" clip-path="url(#p5787f95994)" style="fill: none; stroke-dasharray: 0.8,1.32; stroke-dashoffset: 0; stroke: #b0b0b0; stroke-opacity: 0.4; stroke-width: 0.8"/>
     </g>
     <g id="line2d_46">
      <g>
       <use xlink:href="#mc826497398" x="329.586128" y="320.4" style="stroke: #000000; stroke-width: 0.8"/>
      </g>
     </g>
    </g>
    <g id="ytick_8">
     <g id="line2d_47">
      <path d="M 329.586128 264.96 
L 601.78125 264.96 
" clip-path="url(#p5787f95994)" style="fill: none; stroke-dasharray: 0.8,1.32; stroke-dashoffset: 0; stroke: #b0b0b0; stroke-opacity: 0.4; stroke-width: 0.8"/>
     </g>
     <g id="line2d_48">
      <g>
       <use xlink:href="#mc826497398" x="329.586128" y="264.96" style="stroke: #000000; stroke-width: 0.8"/>
      </g>
     </g>
    </g>
    <g id="ytick_9">
     <g id="line2d_49">
      <path d="M 329.586128 209.52 
L 601.78125 209.52 
" clip-path="url(#p5787f95994)" style="fill: none; stroke-dasharray: 0.8,1.32; stroke-dashoffset: 0; stroke: #b0b0b0; stroke-opacity: 0.4; stroke-width: 0.8"/>
     </g>
     <g id="line2d_50">
      <g>
       <use xlink:href="#mc826497398" x="329.586128" y="209.52" style="stroke: #000000; stroke-width: 0.8"/>
      </g>
     </g>
    </g>
    <g id="ytick_10">
     <g id="line2d_51">
      <path d="M 329.586128 154.08 
L 601.78125 154.08 
" clip-path="url(#p5787f95994)" style="fill: none; stroke-dasharray: 0.8,1.32; stroke-dashoffset: 0; stroke: #b0b0b0; stroke-opacity: 0.4; stroke-width: 0.8"/>
     </g>
     <g id="line2d_52">
      <g>
       <use xlink:href="#mc826497398" x="329.586128" y="154.08" style="stroke: #000000; stroke-width: 0.8"/>
      </g>
     </g>
    </g>
    <g id="ytick_11">
     <g id="line2d_53">
      <path d="M 329.586128 98.64 
L 601.78125 98.64 
" clip-path="url(#p5787f95994)" style="fill: none; stroke-dasharray: 0.8,1.32; stroke-dashoffset: 0; stroke: #b0b0b0; stroke-opacity: 0.4; stroke-width: 0.8"/>
     </g>
     <g id="line2d_54">
      <g>
       <use xlink:href="#mc826497398" x="329.586128" y="98.64" style="stroke: #000000; stroke-width: 0.8"/>
      </g>
     </g>
    </g>
    <g id="ytick_12">
     <g id="line2d_55">
      <path d="M 329.586128 43.2 
L 601.78125 43.2 
" clip-path="url(#p5787f95994)" style="fill: none; stroke-dasharray: 0.8,1.32; stroke-dashoffset: 0; stroke: #b0b0b0; stroke-opacity: 0.4; stroke-width: 0.8"/>
     </g>
     <g id="line2d_56">
      <g>
       <use xlink:href="#mc826497398" x="329.586128" y="43.2" style="stroke: #000000; stroke-width: 0.8"/>
      </g>
     </g>
    </g>
   </g>
   <g id="line2d_57">
    <path d="M 341.958634 78.622852 
L 345.825042 68.860753 
L 349.69145 67.973285 
L 353.557858 66.135266 
L 357.424266 63.695799 
L 361.290674 68.162549 
L 365.157081 61.407726 
L 369.023489 63.485485 
L 372.889897 59.397263 
L 376.756305 60.103877 
L 380.622713 59.422509 
L 384.489121 60.63803 
L 388.355529 62.56859 
L 392.221937 59.144916 
L 396.088345 59.679069 
L 399.954753 59.519248 
L 403.821161 60.85254 
L 407.687569 58.783191 
L 411.553977 57.311094 
L 415.420385 56.970419 
L 419.286793 56.011442 
L 423.153201 57.487752 
L 427.019609 58.589714 
L 430.886017 58.6486 
L 434.752425 56.40261 
L 438.618833 57.567671 
L 442.485241 59.325771 
L 446.351649 55.872654 
L 450.218057 56.364757 
L 454.084465 54.324851 
L 457.950873 56.87368 
L 461.817281 54.101931 
L 465.683689 60.675883 
L 469.550097 55.447846 
L 473.416505 54.791708 
L 477.282913 55.212302 
L 481.149321 55.889473 
L 485.015729 53.614024 
L 488.882137 55.203893 
L 492.748545 54.716002 
L 496.614953 57.689639 
L 500.481361 54.947333 
L 504.347769 54.308015 
L 508.214177 55.128187 
L 512.080585 58.312121 
L 515.946993 56.612907 
L 519.813401 56.957796 
L 523.679809 57.109207 
L 527.546217 53.820124 
L 531.412625 53.496269 
L 535.279033 54.791708 
L 539.145441 56.16287 
L 543.011849 55.283811 
L 546.878257 55.027252 
L 550.744665 55.767505 
L 554.611073 55.37214 
L 558.477481 54.938923 
L 562.343889 56.230165 
L 566.210297 55.826391 
L 570.076705 55.044071 
L 573.943113 58.459336 
L 577.809521 55.531961 
L 581.675928 54.299605 
L 585.542336 55.473076 
L 589.408744 54.589821 
" clip-path="url(#p5787f95994)" style="fill: none; stroke: #1f77b4; stroke-width: 1.5; stroke-linecap: square"/>
    <g clip-path="url(#p5787f95994)">
     <use xlink:href="#mb1463be81d" x="341.958634" y="78.622852" style="fill: #1f77b4; stroke: #1f77b4"/>
     <use xlink:href="#mb1463be81d" x="345.825042" y="68.860753" style="fill: #1f77b4; stroke: #1f77b4"/>
     <use xlink:href="#mb1463be81d" x="349.69145" y="67.973285" style="fill: #1f77b4; stroke: #1f77b4"/>
     <use xlink:href="#mb1463be81d" x="353.557858" y="66.135266" style="fill: #1f77b4; stroke: #1f77b4"/>
     <use xlink:href="#mb1463be81d" x="357.424266" y="63.695799" style="fill: #1f77b4; stroke: #1f77b4"/>
     <use xlink:href="#mb1463be81d" x="361.290674" y="68.162549" style="fill: #1f77b4; stroke: #1f77b4"/>
     <use xlink:href="#mb1463be81d" x="365.157081" y="61.407726" style="fill: #1f77b4; stroke: #1f77b4"/>
     <use xlink:href="#mb1463be81d" x="369.023489" y="63.485485" style="fill: #1f77b4; stroke: #1f77b4"/>
     <use xlink:href="#mb1463be81d" x="372.889897" y="59.397263" style="fill: #1f77b4; stroke: #1f77b4"/>
     <use xlink:href="#mb1463be81d" x="376.756305" y="60.103877" style="fill: #1f77b4; stroke: #1f77b4"/>
     <use xlink:href="#mb1463be81d" x="380.622713" y="59.422509" style="fill: #1f77b4; stroke: #1f77b4"/>
     <use xlink:href="#mb1463be81d" x="384.489121" y="60.63803" style="fill: #1f77b4; stroke: #1f77b4"/>
     <use xlink:href="#mb1463be81d" x="388.355529" y="62.56859" style="fill: #1f77b4; stroke: #1f77b4"/>
     <use xlink:href="#mb1463be81d" x="392.221937" y="59.144916" style="fill: #1f77b4; stroke: #1f77b4"/>
     <use xlink:href="#mb1463be81d" x="396.088345" y="59.679069" style="fill: #1f77b4; stroke: #1f77b4"/>
     <use xlink:href="#mb1463be81d" x="399.954753" y="59.519248" style="fill: #1f77b4; stroke: #1f77b4"/>
     <use xlink:href="#mb1463be81d" x="403.821161" y="60.85254" style="fill: #1f77b4; stroke: #1f77b4"/>
     <use xlink:href="#mb1463be81d" x="407.687569" y="58.783191" style="fill: #1f77b4; stroke: #1f77b4"/>
     <use xlink:href="#mb1463be81d" x="411.553977" y="57.311094" style="fill: #1f77b4; stroke: #1f77b4"/>
     <use xlink:href="#mb1463be81d" x="415.420385" y="56.970419" style="fill: #1f77b4; stroke: #1f77b4"/>
     <use xlink:href="#mb1463be81d" x="419.286793" y="56.011442" style="fill: #1f77b4; stroke: #1f77b4"/>
     <use xlink:href="#mb1463be81d" x="423.153201" y="57.487752" style="fill: #1f77b4; stroke: #1f77b4"/>
     <use xlink:href="#mb1463be81d" x="427.019609" y="58.589714" style="fill: #1f77b4; stroke: #1f77b4"/>
     <use xlink:href="#mb1463be81d" x="430.886017" y="58.6486" style="fill: #1f77b4; stroke: #1f77b4"/>
     <use xlink:href="#mb1463be81d" x="434.752425" y="56.40261" style="fill: #1f77b4; stroke: #1f77b4"/>
     <use xlink:href="#mb1463be81d" x="438.618833" y="57.567671" style="fill: #1f77b4; stroke: #1f77b4"/>
     <use xlink:href="#mb1463be81d" x="442.485241" y="59.325771" style="fill: #1f77b4; stroke: #1f77b4"/>
     <use xlink:href="#mb1463be81d" x="446.351649" y="55.872654" style="fill: #1f77b4; stroke: #1f77b4"/>
     <use xlink:href="#mb1463be81d" x="450.218057" y="56.364757" style="fill: #1f77b4; stroke: #1f77b4"/>
     <use xlink:href="#mb1463be81d" x="454.084465" y="54.324851" style="fill: #1f77b4; stroke: #1f77b4"/>
     <use xlink:href="#mb1463be81d" x="457.950873" y="56.87368" style="fill: #1f77b4; stroke: #1f77b4"/>
     <use xlink:href="#mb1463be81d" x="461.817281" y="54.101931" style="fill: #1f77b4; stroke: #1f77b4"/>
     <use xlink:href="#mb1463be81d" x="465.683689" y="60.675883" style="fill: #1f77b4; stroke: #1f77b4"/>
     <use xlink:href="#mb1463be81d" x="469.550097" y="55.447846" style="fill: #1f77b4; stroke: #1f77b4"/>
     <use xlink:href="#mb1463be81d" x="473.416505" y="54.791708" style="fill: #1f77b4; stroke: #1f77b4"/>
     <use xlink:href="#mb1463be81d" x="477.282913" y="55.212302" style="fill: #1f77b4; stroke: #1f77b4"/>
     <use xlink:href="#mb1463be81d" x="481.149321" y="55.889473" style="fill: #1f77b4; stroke: #1f77b4"/>
     <use xlink:href="#mb1463be81d" x="485.015729" y="53.614024" style="fill: #1f77b4; stroke: #1f77b4"/>
     <use xlink:href="#mb1463be81d" x="488.882137" y="55.203893" style="fill: #1f77b4; stroke: #1f77b4"/>
     <use xlink:href="#mb1463be81d" x="492.748545" y="54.716002" style="fill: #1f77b4; stroke: #1f77b4"/>
     <use xlink:href="#mb1463be81d" x="496.614953" y="57.689639" style="fill: #1f77b4; stroke: #1f77b4"/>
     <use xlink:href="#mb1463be81d" x="500.481361" y="54.947333" style="fill: #1f77b4; stroke: #1f77b4"/>
     <use xlink:href="#mb1463be81d" x="504.347769" y="54.308015" style="fill: #1f77b4; stroke: #1f77b4"/>
     <use xlink:href="#mb1463be81d" x="508.214177" y="55.128187" style="fill: #1f77b4; stroke: #1f77b4"/>
     <use xlink:href="#mb1463be81d" x="512.080585" y="58.312121" style="fill: #1f77b4; stroke: #1f77b4"/>
     <use xlink:href="#mb1463be81d" x="515.946993" y="56.612907" style="fill: #1f77b4; stroke: #1f77b4"/>
     <use xlink:href="#mb1463be81d" x="519.813401" y="56.957796" style="fill: #1f77b4; stroke: #1f77b4"/>
     <use xlink:href="#mb1463be81d" x="523.679809" y="57.109207" style="fill: #1f77b4; stroke: #1f77b4"/>
     <use xlink:href="#mb1463be81d" x="527.546217" y="53.820124" style="fill: #1f77b4; stroke: #1f77b4"/>
     <use xlink:href="#mb1463be81d" x="531.412625" y="53.496269" style="fill: #1f77b4; stroke: #1f77b4"/>
     <use xlink:href="#mb1463be81d" x="535.279033" y="54.791708" style="fill: #1f77b4; stroke: #1f77b4"/>
     <use xlink:href="#mb1463be81d" x="539.145441" y="56.16287" style="fill: #1f77b4; stroke: #1f77b4"/>
     <use xlink:href="#mb1463be81d" x="543.011849" y="55.283811" style="fill: #1f77b4; stroke: #1f77b4"/>
     <use xlink:href="#mb1463be81d" x="546.878257" y="55.027252" style="fill: #1f77b4; stroke: #1f77b4"/>
     <use xlink:href="#mb1463be81d" x="550.744665" y="55.767505" style="fill: #1f77b4; stroke: #1f77b4"/>
     <use xlink:href="#mb1463be81d" x="554.611073" y="55.37214" style="fill: #1f77b4; stroke: #1f77b4"/>
     <use xlink:href="#mb1463be81d" x="558.477481" y="54.938923" style="fill: #1f77b4; stroke: #1f77b4"/>
     <use xlink:href="#mb1463be81d" x="562.343889" y="56.230165" style="fill: #1f77b4; stroke: #1f77b4"/>
     <use xlink:href="#mb1463be81d" x="566.210297" y="55.826391" style="fill: #1f77b4; stroke: #1f77b4"/>
     <use xlink:href="#mb1463be81d" x="570.076705" y="55.044071" style="fill: #1f77b4; stroke: #1f77b4"/>
     <use xlink:href="#mb1463be81d" x="573.943113" y="58.459336" style="fill: #1f77b4; stroke: #1f77b4"/>
     <use xlink:href="#mb1463be81d" x="577.809521" y="55.531961" style="fill: #1f77b4; stroke: #1f77b4"/>
     <use xlink:href="#mb1463be81d" x="581.675928" y="54.299605" style="fill: #1f77b4; stroke: #1f77b4"/>
     <use xlink:href="#mb1463be81d" x="585.542336" y="55.473076" style="fill: #1f77b4; stroke: #1f77b4"/>
     <use xlink:href="#mb1463be81d" x="589.408744" y="54.589821" style="fill: #1f77b4; stroke: #1f77b4"/>
    </g>
   </g>
   <g id="line2d_58">
    <path d="M 341.958634 238.343429 
L 345.825042 257.894518 
L 349.69145 259.708323 
L 353.557858 264.938004 
L 357.424266 268.904889 
L 361.290674 259.64916 
L 365.157081 274.970579 
L 369.023489 270.333098 
L 372.889897 279.043129 
L 376.756305 277.095307 
L 380.622713 279.311073 
L 384.489121 275.604337 
L 388.355529 271.235862 
L 392.221937 280.023652 
L 396.088345 279.019106 
L 399.954753 278.520534 
L 403.821161 275.661691 
L 407.687569 280.563517 
L 411.553977 283.897718 
L 415.420385 284.717866 
L 419.286793 287.084081 
L 423.153201 283.538154 
L 427.019609 280.647538 
L 430.886017 279.200745 
L 434.752425 286.022804 
L 438.618833 283.739041 
L 442.485241 279.693773 
L 446.351649 287.156245 
L 450.218057 285.764984 
L 454.084465 291.308026 
L 457.950873 284.75519 
L 461.817281 291.889628 
L 465.683689 275.085228 
L 469.550097 288.686131 
L 473.416505 290.546676 
L 477.282913 289.32195 
L 481.149321 287.847683 
L 485.015729 292.967618 
L 488.882137 289.380793 
L 492.748545 290.538202 
L 496.614953 283.661341 
L 500.481361 289.791381 
L 504.347769 292.092331 
L 508.214177 290.151861 
L 512.080585 281.604235 
L 515.946993 286.249154 
L 519.813401 285.278244 
L 523.679809 283.350942 
L 527.546217 292.790101 
L 531.412625 293.630189 
L 535.279033 290.15537 
L 539.145441 287.621693 
L 543.011849 288.95397 
L 546.878257 290.098314 
L 550.744665 288.254407 
L 554.611073 288.634079 
L 558.477481 290.603001 
L 562.343889 286.92907 
L 566.210297 287.89401 
L 570.076705 289.320866 
L 573.943113 280.707064 
L 577.809521 288.416531 
L 581.675928 291.031576 
L 585.542336 287.941218 
L 589.408744 290.540943 
" clip-path="url(#p5787f95994)" style="fill: none; stroke: #ff7f0e; stroke-width: 1.5; stroke-linecap: square"/>
    <g clip-path="url(#p5787f95994)">
     <use xlink:href="#me5c51c9389" x="341.958634" y="238.343429" style="fill: #ff7f0e; stroke: #ff7f0e"/>
     <use xlink:href="#me5c51c9389" x="345.825042" y="257.894518" style="fill: #ff7f0e; stroke: #ff7f0e"/>
     <use xlink:href="#me5c51c9389" x="349.69145" y="259.708323" style="fill: #ff7f0e; stroke: #ff7f0e"/>
     <use xlink:href="#me5c51c9389" x="353.557858" y="264.938004" style="fill: #ff7f0e; stroke: #ff7f0e"/>
     <use xlink:href="#me5c51c9389" x="357.424266" y="268.904889" style="fill: #ff7f0e; stroke: #ff7f0e"/>
     <use xlink:href="#me5c51c9389" x="361.290674" y="259.64916" style="fill: #ff7f0e; stroke: #ff7f0e"/>
     <use xlink:href="#me5c51c9389" x="365.157081" y="274.970579" style="fill: #ff7f0e; stroke: #ff7f0e"/>
     <use xlink:href="#me5c51c9389" x="369.023489" y="270.333098" style="fill: #ff7f0e; stroke: #ff7f0e"/>
     <use xlink:href="#me5c51c9389" x="372.889897" y="279.043129" style="fill: #ff7f0e; stroke: #ff7f0e"/>
     <use xlink:href="#me5c51c9389" x="376.756305" y="277.095307" style="fill: #ff7f0e; stroke: #ff7f0e"/>
     <use xlink:href="#me5c51c9389" x="380.622713" y="279.311073" style="fill: #ff7f0e; stroke: #ff7f0e"/>
     <use xlink:href="#me5c51c9389" x="384.489121" y="275.604337" style="fill: #ff7f0e; stroke: #ff7f0e"/>
     <use xlink:href="#me5c51c9389" x="388.355529" y="271.235862" style="fill: #ff7f0e; stroke: #ff7f0e"/>
     <use xlink:href="#me5c51c9389" x="392.221937" y="280.023652" style="fill: #ff7f0e; stroke: #ff7f0e"/>
     <use xlink:href="#me5c51c9389" x="396.088345" y="279.019106" style="fill: #ff7f0e; stroke: #ff7f0e"/>
     <use xlink:href="#me5c51c9389" x="399.954753" y="278.520534" style="fill: #ff7f0e; stroke: #ff7f0e"/>
     <use xlink:href="#me5c51c9389" x="403.821161" y="275.661691" style="fill: #ff7f0e; stroke: #ff7f0e"/>
     <use xlink:href="#me5c51c9389" x="407.687569" y="280.563517" style="fill: #ff7f0e; stroke: #ff7f0e"/>
     <use xlink:href="#me5c51c9389" x="411.553977" y="283.897718" style="fill: #ff7f0e; stroke: #ff7f0e"/>
     <use xlink:href="#me5c51c9389" x="415.420385" y="284.717866" style="fill: #ff7f0e; stroke: #ff7f0e"/>
     <use xlink:href="#me5c51c9389" x="419.286793" y="287.084081" style="fill: #ff7f0e; stroke: #ff7f0e"/>
     <use xlink:href="#me5c51c9389" x="423.153201" y="283.538154" style="fill: #ff7f0e; stroke: #ff7f0e"/>
     <use xlink:href="#me5c51c9389" x="427.019609" y="280.647538" style="fill: #ff7f0e; stroke: #ff7f0e"/>
     <use xlink:href="#me5c51c9389" x="430.886017" y="279.200745" style="fill: #ff7f0e; stroke: #ff7f0e"/>
     <use xlink:href="#me5c51c9389" x="434.752425" y="286.022804" style="fill: #ff7f0e; stroke: #ff7f0e"/>
     <use xlink:href="#me5c51c9389" x="438.618833" y="283.739041" style="fill: #ff7f0e; stroke: #ff7f0e"/>
     <use xlink:href="#me5c51c9389" x="442.485241" y="279.693773" style="fill: #ff7f0e; stroke: #ff7f0e"/>
     <use xlink:href="#me5c51c9389" x="446.351649" y="287.156245" style="fill: #ff7f0e; stroke: #ff7f0e"/>
     <use xlink:href="#me5c51c9389" x="450.218057" y="285.764984" style="fill: #ff7f0e; stroke: #ff7f0e"/>
     <use xlink:href="#me5c51c9389" x="454.084465" y="291.308026" style="fill: #ff7f0e; stroke: #ff7f0e"/>
     <use xlink:href="#me5c51c9389" x="457.950873" y="284.75519" style="fill: #ff7f0e; stroke: #ff7f0e"/>
     <use xlink:href="#me5c51c9389" x="461.817281" y="291.889628" style="fill: #ff7f0e; stroke: #ff7f0e"/>
     <use xlink:href="#me5c51c9389" x="465.683689" y="275.085228" style="fill: #ff7f0e; stroke: #ff7f0e"/>
     <use xlink:href="#me5c51c9389" x="469.550097" y="288.686131" style="fill: #ff7f0e; stroke: #ff7f0e"/>
     <use xlink:href="#me5c51c9389" x="473.416505" y="290.546676" style="fill: #ff7f0e; stroke: #ff7f0e"/>
     <use xlink:href="#me5c51c9389" x="477.282913" y="289.32195" style="fill: #ff7f0e; stroke: #ff7f0e"/>
     <use xlink:href="#me5c51c9389" x="481.149321" y="287.847683" style="fill: #ff7f0e; stroke: #ff7f0e"/>
     <use xlink:href="#me5c51c9389" x="485.015729" y="292.967618" style="fill: #ff7f0e; stroke: #ff7f0e"/>
     <use xlink:href="#me5c51c9389" x="488.882137" y="289.380793" style="fill: #ff7f0e; stroke: #ff7f0e"/>
     <use xlink:href="#me5c51c9389" x="492.748545" y="290.538202" style="fill: #ff7f0e; stroke: #ff7f0e"/>
     <use xlink:href="#me5c51c9389" x="496.614953" y="283.661341" style="fill: #ff7f0e; stroke: #ff7f0e"/>
     <use xlink:href="#me5c51c9389" x="500.481361" y="289.791381" style="fill: #ff7f0e; stroke: #ff7f0e"/>
     <use xlink:href="#me5c51c9389" x="504.347769" y="292.092331" style="fill: #ff7f0e; stroke: #ff7f0e"/>
     <use xlink:href="#me5c51c9389" x="508.214177" y="290.151861" style="fill: #ff7f0e; stroke: #ff7f0e"/>
     <use xlink:href="#me5c51c9389" x="512.080585" y="281.604235" style="fill: #ff7f0e; stroke: #ff7f0e"/>
     <use xlink:href="#me5c51c9389" x="515.946993" y="286.249154" style="fill: #ff7f0e; stroke: #ff7f0e"/>
     <use xlink:href="#me5c51c9389" x="519.813401" y="285.278244" style="fill: #ff7f0e; stroke: #ff7f0e"/>
     <use xlink:href="#me5c51c9389" x="523.679809" y="283.350942" style="fill: #ff7f0e; stroke: #ff7f0e"/>
     <use xlink:href="#me5c51c9389" x="527.546217" y="292.790101" style="fill: #ff7f0e; stroke: #ff7f0e"/>
     <use xlink:href="#me5c51c9389" x="531.412625" y="293.630189" style="fill: #ff7f0e; stroke: #ff7f0e"/>
     <use xlink:href="#me5c51c9389" x="535.279033" y="290.15537" style="fill: #ff7f0e; stroke: #ff7f0e"/>
     <use xlink:href="#me5c51c9389" x="539.145441" y="287.621693" style="fill: #ff7f0e; stroke: #ff7f0e"/>
     <use xlink:href="#me5c51c9389" x="543.011849" y="288.95397" style="fill: #ff7f0e; stroke: #ff7f0e"/>
     <use xlink:href="#me5c51c9389" x="546.878257" y="290.098314" style="fill: #ff7f0e; stroke: #ff7f0e"/>
     <use xlink:href="#me5c51c9389" x="550.744665" y="288.254407" style="fill: #ff7f0e; stroke: #ff7f0e"/>
     <use xlink:href="#me5c51c9389" x="554.611073" y="288.634079" style="fill: #ff7f0e; stroke: #ff7f0e"/>
     <use xlink:href="#me5c51c9389" x="558.477481" y="290.603001" style="fill: #ff7f0e; stroke: #ff7f0e"/>
     <use xlink:href="#me5c51c9389" x="562.343889" y="286.92907" style="fill: #ff7f0e; stroke: #ff7f0e"/>
     <use xlink:href="#me5c51c9389" x="566.210297" y="287.89401" style="fill: #ff7f0e; stroke: #ff7f0e"/>
     <use xlink:href="#me5c51c9389" x="570.076705" y="289.320866" style="fill: #ff7f0e; stroke: #ff7f0e"/>
     <use xlink:href="#me5c51c9389" x="573.943113" y="280.707064" style="fill: #ff7f0e; stroke: #ff7f0e"/>
     <use xlink:href="#me5c51c9389" x="577.809521" y="288.416531" style="fill: #ff7f0e; stroke: #ff7f0e"/>
     <use xlink:href="#me5c51c9389" x="581.675928" y="291.031576" style="fill: #ff7f0e; stroke: #ff7f0e"/>
     <use xlink:href="#me5c51c9389" x="585.542336" y="287.941218" style="fill: #ff7f0e; stroke: #ff7f0e"/>
     <use xlink:href="#me5c51c9389" x="589.408744" y="290.540943" style="fill: #ff7f0e; stroke: #ff7f0e"/>
    </g>
   </g>
   <g id="patch_11">
    <path d="M 329.586128 320.4 
L 329.586128 43.2 
" style="fill: none; stroke: #000000; stroke-width: 0.8; stroke-linejoin: miter; stroke-linecap: square"/>
   </g>
   <g id="patch_12">
    <path d="M 601.78125 320.4 
L 601.78125 43.2 
" style="fill: none; stroke: #000000; stroke-width: 0.8; stroke-linejoin: miter; stroke-linecap: square"/>
   </g>
   <g id="patch_13">
    <path d="M 329.586128 320.4 
L 601.78125 320.4 
" style="fill: none; stroke: #000000; stroke-width: 0.8; stroke-linejoin: miter; stroke-linecap: square"/>
   </g>
   <g id="patch_14">
    <path d="M 329.586128 43.2 
L 601.78125 43.2 
" style="fill: none; stroke: #000000; stroke-width: 0.8; stroke-linejoin: miter; stroke-linecap: square"/>
   </g>
   <g id="text_29">
    <!-- Validation set -->
    <g transform="translate(424.978377 37.2) scale(0.12 -0.12)">
     <defs>
      <path id="DejaVuSans-56" d="M 1831 0 
L 50 4666 
L 709 4666 
L 2188 738 
L 3669 4666 
L 4325 4666 
L 2547 0 
L 1831 0 
z
" transform="scale(0.015625)"/>
      <path id="DejaVuSans-64" d="M 2906 2969 
L 2906 4863 
L 3481 4863 
L 3481 0 
L 2906 0 
L 2906 525 
Q 2725 213 2448 61 
Q 2172 -91 1784 -91 
Q 1150 -91 751 415 
Q 353 922 353 1747 
Q 353 2572 751 3078 
Q 1150 3584 1784 3584 
Q 2172 3584 2448 3432 
Q 2725 3281 2906 2969 
z
M 947 1747 
Q 947 1113 1208 752 
Q 1469 391 1925 391 
Q 2381 391 2643 752 
Q 2906 1113 2906 1747 
Q 2906 2381 2643 2742 
Q 2381 3103 1925 3103 
Q 1469 3103 1208 2742 
Q 947 2381 947 1747 
z
" transform="scale(0.015625)"/>
     </defs>
     <use xlink:href="#DejaVuSans-56"/>
     <use xlink:href="#DejaVuSans-61" x="60.658203"/>
     <use xlink:href="#DejaVuSans-6c" x="121.9375"/>
     <use xlink:href="#DejaVuSans-69" x="149.720703"/>
     <use xlink:href="#DejaVuSans-64" x="177.503906"/>
     <use xlink:href="#DejaVuSans-61" x="240.980469"/>
     <use xlink:href="#DejaVuSans-74" x="302.259766"/>
     <use xlink:href="#DejaVuSans-69" x="341.46875"/>
     <use xlink:href="#DejaVuSans-6f" x="369.251953"/>
     <use xlink:href="#DejaVuSans-6e" x="430.433594"/>
     <use xlink:href="#DejaVuSans-20" x="493.8125"/>
     <use xlink:href="#DejaVuSans-73" x="525.599609"/>
     <use xlink:href="#DejaVuSans-65" x="577.699219"/>
     <use xlink:href="#DejaVuSans-74" x="639.222656"/>
    </g>
   </g>
  </g>
  <g id="text_30">
   <!-- Train History -->
   <g transform="translate(276.135938 16.318125) scale(0.12 -0.12)">
    <defs>
     <path id="DejaVuSans-48" d="M 628 4666 
L 1259 4666 
L 1259 2753 
L 3553 2753 
L 3553 4666 
L 4184 4666 
L 4184 0 
L 3553 0 
L 3553 2222 
L 1259 2222 
L 1259 0 
L 628 0 
L 628 4666 
z
" transform="scale(0.015625)"/>
    </defs>
    <use xlink:href="#DejaVuSans-54"/>
    <use xlink:href="#DejaVuSans-72" x="46.333984"/>
    <use xlink:href="#DejaVuSans-61" x="87.447266"/>
    <use xlink:href="#DejaVuSans-69" x="148.726562"/>
    <use xlink:href="#DejaVuSans-6e" x="176.509766"/>
    <use xlink:href="#DejaVuSans-20" x="239.888672"/>
    <use xlink:href="#DejaVuSans-48" x="271.675781"/>
    <use xlink:href="#DejaVuSans-69" x="346.871094"/>
    <use xlink:href="#DejaVuSans-73" x="374.654297"/>
    <use xlink:href="#DejaVuSans-74" x="426.753906"/>
    <use xlink:href="#DejaVuSans-6f" x="465.962891"/>
    <use xlink:href="#DejaVuSans-72" x="527.144531"/>
    <use xlink:href="#DejaVuSans-79" x="568.257812"/>
   </g>
  </g>
 </g>
 <defs>
  <clipPath id="p8538e89072">
   <rect x="43.78125" y="43.2" width="272.195122" height="277.2"/>
  </clipPath>
  <clipPath id="p5787f95994">
   <rect x="329.586128" y="43.2" width="272.195122" height="277.2"/>
  </clipPath>
 </defs>
</svg>
